<?xml version="1.0" encoding="utf-8"?>
<!-- Generator: Adobe Illustrator 16.0.0, SVG Export Plug-In . SVG Version: 6.00 Build 0)  -->
<!DOCTYPE svg PUBLIC "-//W3C//DTD SVG 1.1//EN" "http://www.w3.org/Graphics/SVG/1.1/DTD/svg11.dtd">
<svg version="1.1" id="Layer_1" xmlns="http://www.w3.org/2000/svg" xmlns:xlink="http://www.w3.org/1999/xlink" x="0px" y="0px"
	 width="2600px" height="250px" viewBox="0 0 2600 250" enable-background="new 0 0 2600 250" xml:space="preserve">
<path fill="#FFFFFF" d="M1580.525,190.993c-215.485,45.616-408.228,58.185-567.95,49.401
	c-159.824-8.019-286.631-37.388-372.564-57.975c0.148,1.854-110.529-34.04-234.495-68.737
	C281.332,78.504,143.863,44.52,85.423,39.043c-28.524-4.229-55.925-5.292-85.422-5.624V250H2600V29.33
	c-119.298,4.109-249.924,20.844-386.789,42.569C2009.29,104.816,1791.535,148.783,1580.525,190.993z"/>
<path fill="#013745" d="M2600,19.394c-106.923-4.722-231.92-1.491-367.555,10.732c-210.402,17.354-446.393,56.369-673.141,81.549
	c-283.714,34.144-543.083,28.734-700.774-1.968c-212.757-40.828-343.795-67.81-453.243-87.665
	C295.977,3.41,208.258-8.094,85.395,10.317c-32.218,5.488-59.76,12.667-85.394,21.261v1.906c26.554-4.562,51.587-7.787,77.545-8.323
	c58.43-3.394,195.491,8.533,319.649,35.752c123.925,25.562,234.278,55.152,234.243,54.663
	c85.863,17.344,212.588,43.934,372.373,53.919c159.683,10.53,352.428,4.455,568.02-30.961
	c211.11-32.359,428.993-66.885,633.104-90.382c139.979-15.837,273.484-26.49,395.065-24.713L2600,19.394L2600,19.394z"/>
<path fill="#F5BA8C" d="M2600,25.534c-105.048-0.449-227.158,8.004-359.403,26.31c-210.188,27.258-446.013,79.457-672.678,115.141
	c-141.713,22.77-277.584,36.357-397.598,38.267c-120.041,2.267-224.224-7.147-303.211-22.095
	c-212.903-42.233-344.077-77.381-453.666-105.893C303.993,49.318,216.13,28.007,93.063,26.567
	c-35.445,0.123-65.244,2.766-93.062,7.08v1.933c29.498,0.332,56.898,1.395,85.422,5.624c58.438,5.478,195.909,39.461,320.091,74.64
	c123.967,34.697,234.644,70.592,234.496,68.737c85.933,20.587,212.741,49.956,372.564,57.974
	c159.723,8.782,352.464-3.785,567.95-49.4c211.011-42.209,428.764-86.176,632.686-119.094
	c136.865-21.725,267.491-38.46,386.789-42.568L2600,25.534L2600,25.534z"/>
<path fill="#47ACC6" d="M2600,23.074c-106.934-2.391-231.943,3.484-367.593,18.266c-210.402,21.322-446.396,64.093-673.144,91.227
	c-283.716,36.774-543.083,30.728-700.773-1.447C645.729,88.352,514.693,58.574,405.244,36.092
	C295.937,14.697,208.219,0.6,85.354,14.308C53.153,18.539,25.622,24.585,0,32.072v1.904c26.539-3.416,51.56-5.614,77.504-5.134
	c58.317-2.889,195.602,17.513,319.643,45.771c123.822,27.028,234.398,61.911,234.25,59.585
	c85.865,18.718,212.588,46.981,372.373,57.647c159.683,11.235,352.426,4.871,568.019-32.527
	c211.113-34.246,428.994-72.141,633.106-99.436C2344.886,41.444,2478.409,27.989,2600,27.121V23.074L2600,23.074z"/>
<path fill="#EA862B" d="M2600,24.233c-106.829-1.299-231.724,6.439-367.259,24.135c-210.315,25.717-446.238,75.442-672.942,109.618
	c-141.734,21.828-277.614,34.66-397.62,36.14c-120.036,1.825-224.204-7.703-303.175-22.547
	C646.15,129.639,515.029,95.829,405.491,68.8c-109.398-26.359-197.213-45.934-320.2-43.967C53.12,25.59,25.603,28.616,0,33.332
	v1.708c26.582-0.943,51.652-1.012,77.659,1.518c58.397,2.282,195.787,30.808,319.913,62.762
	c123.909,31.239,234.551,65.905,234.402,63.925c85.904,19.347,212.675,47.422,372.479,55.401
	c159.705,8.697,352.441-2.698,567.97-45.748C1928.777,107.249,2301.231,27.09,2600,26.137V24.233z"/>
</svg>
