<?xml version="1.0" encoding="utf-8"?>
<!-- Generator: Adobe Illustrator 16.0.0, SVG Export Plug-In . SVG Version: 6.00 Build 0)  -->
<!DOCTYPE svg PUBLIC "-//W3C//DTD SVG 1.1//EN" "http://www.w3.org/Graphics/SVG/1.1/DTD/svg11.dtd">
<svg version="1.1" id="Layer_1" xmlns="http://www.w3.org/2000/svg" xmlns:xlink="http://www.w3.org/1999/xlink" x="0px" y="0px"
	 width="1853.01px" height="228px" viewBox="0 0 1853.01 228" enable-background="new 0 0 1853.01 228" xml:space="preserve">
<path fill="#FFFFFF" d="M1126.434,177.103c-153.576,39.347-290.942,50.188-404.776,42.612
	c-113.906-6.916-204.281-32.248-265.525-50.006c0.105,1.599-78.774-29.361-167.124-59.289
	C200.504,80.076,102.53,50.763,60.88,46.039C40.551,42.391,21.023,41.474,0,41.188V228h1853.01V37.66
	c-85.024,3.544-178.12,17.979-275.663,36.718C1432.013,102.771,1276.819,140.695,1126.434,177.103z"/>
<path fill="#013745" d="M1853.01,27.227c-76.204-4.073-165.289-1.286-261.955,9.257c-149.953,14.969-318.142,48.621-479.745,70.34
	c-202.202,29.452-387.053,24.785-499.439-1.697c-151.632-35.216-245.022-58.49-323.026-75.616
	C210.941,13.44,148.424,3.517,60.86,19.398C37.898,24.132,18.269,30.324,0,37.737v1.644c18.925-3.935,36.766-6.717,55.266-7.179
	c41.643-2.927,139.326,7.36,227.813,30.838c88.321,22.049,166.969,47.572,166.944,47.15
	c61.195,14.961,151.511,37.896,265.388,46.508c113.806,9.083,251.174,3.843,404.825-26.705
	c150.458-27.912,305.742-57.692,451.21-77.96c99.763-13.66,194.912-22.849,281.563-21.316V27.227z"/>
<path fill="#F5BA8C" d="M1853.01,32.523c-74.868-0.387-161.896,6.904-256.146,22.694c-149.802,23.511-317.872,68.536-479.415,99.315
	c-100.998,19.639-197.833,31.361-283.366,33.006c-85.553,1.955-159.803-6.166-216.098-19.057
	c-151.735-36.428-245.222-66.745-323.326-91.339C216.654,53.038,154.034,34.656,66.325,33.414C41.064,33.52,19.826,35.8,0,39.521
	v1.667c21.023,0.286,40.551,1.203,60.88,4.851c41.649,4.725,139.624,34.037,228.128,64.381
	c88.35,29.928,167.229,60.888,167.124,59.289c61.244,17.758,151.62,43.09,265.525,50.006c113.834,7.575,251.2-3.266,404.776-42.612
	c150.386-36.407,305.579-74.331,450.913-102.725c97.543-18.739,190.639-33.174,275.663-36.718V32.523z"/>
<path fill="#47ACC6" d="M1853.01,30.401c-76.211-2.062-165.306,3.005-261.983,15.755c-149.953,18.392-318.143,55.284-479.746,78.688
	c-202.203,31.721-387.053,26.504-499.439-1.248C460.208,86.707,366.819,61.022,288.815,41.63
	c-77.903-18.454-140.419-30.614-227.984-18.79C37.882,26.489,18.26,31.704,0,38.162v1.642c18.914-2.946,36.746-4.842,55.237-4.428
	c41.562-2.492,139.404,15.106,227.808,39.48c88.247,23.313,167.055,53.402,166.949,51.395
	c61.195,16.145,151.511,40.525,265.388,49.725c113.806,9.691,251.173,4.202,404.824-28.057
	c150.46-29.539,305.743-62.225,451.213-85.768c99.773-15.905,194.933-27.51,281.592-28.259V30.401z"/>
<path fill="#EA862B" d="M1853.01,31.401c-76.137-1.121-165.15,5.554-261.744,20.818c-149.892,22.182-318.033,65.073-479.604,94.553
	c-101.014,18.828-197.854,29.896-283.383,31.171c-85.549,1.575-159.789-6.644-216.071-19.448
	c-151.7-36.176-245.149-65.339-323.217-88.652C211.024,47.107,148.438,30.222,60.786,31.919C37.858,32.572,18.247,35.182,0,39.25
	v1.473c18.945-0.814,36.812-0.873,55.347,1.309C96.967,44,194.884,68.606,283.348,96.168
	c88.309,26.945,167.164,56.846,167.057,55.138c61.224,16.688,151.573,40.905,265.465,47.788
	c113.821,7.502,251.184-2.329,404.79-39.461c253.972-56.626,519.418-125.768,732.35-126.59V31.401z"/>
</svg>
