<?xml version="1.0" encoding="utf-8"?>
<!-- Generator: Adobe Illustrator 16.0.0, SVG Export Plug-In . SVG Version: 6.00 Build 0)  -->
<!DOCTYPE svg PUBLIC "-//W3C//DTD SVG 1.1//EN" "http://www.w3.org/Graphics/SVG/1.1/DTD/svg11.dtd">
<svg version="1.1" id="Layer_1" xmlns="http://www.w3.org/2000/svg" xmlns:xlink="http://www.w3.org/1999/xlink" x="0px" y="0px"
	 width="870px" height="72.186px" viewBox="0 0 870 72.186" enable-background="new 0 0 870 72.186" xml:space="preserve">
<g>
	<path fill="#1E91AD" d="M8.336,9.398l-0.962,7.891h8.567l-0.409,3.135h-8.55l-0.997,8.104h10.775l-0.409,3.259H1.55L4.702,6.139
		h14.784l-0.41,3.259H8.336z"/>
	<path fill="#1E91AD" d="M36.317,13.62l-9.013,18.168h-3.206L19.486,13.62h3.116c0.273,0,0.493,0.075,0.659,0.223
		c0.166,0.149,0.268,0.324,0.303,0.525l2.28,10.58c0.095,0.535,0.166,1.057,0.214,1.568c0.047,0.51,0.089,1.027,0.124,1.549
		c0.167-0.51,0.339-1.021,0.517-1.532c0.179-0.51,0.38-1.039,0.605-1.585l4.935-10.58c0.095-0.213,0.24-0.392,0.437-0.534
		c0.195-0.143,0.412-0.214,0.649-0.214H36.317z"/>
	<path fill="#1E91AD" d="M50.745,28.421c-0.617,0.629-1.224,1.173-1.816,1.629c-0.595,0.458-1.2,0.834-1.817,1.131
		s-1.265,0.517-1.941,0.659c-0.677,0.143-1.413,0.214-2.209,0.214c-1.057,0-2.007-0.178-2.85-0.534
		c-0.843-0.356-1.564-0.858-2.164-1.505c-0.6-0.647-1.06-1.431-1.38-2.351c-0.321-0.92-0.481-1.95-0.481-3.09
		c0-0.95,0.101-1.885,0.303-2.805c0.202-0.92,0.496-1.796,0.882-2.627s0.855-1.6,1.407-2.307s1.182-1.315,1.888-1.826
		c0.707-0.511,1.484-0.911,2.334-1.203c0.849-0.291,1.76-0.436,2.733-0.436c0.938,0,1.752,0.133,2.44,0.4
		c0.688,0.268,1.262,0.612,1.719,1.033c0.457,0.422,0.799,0.888,1.024,1.398s0.338,1.009,0.338,1.496
		c0,0.795-0.163,1.526-0.489,2.191c-0.327,0.665-0.911,1.265-1.755,1.799c-0.843,0.534-1.998,0.998-3.464,1.389
		c-1.467,0.392-3.346,0.707-5.638,0.944c-0.012,0.071-0.018,0.146-0.018,0.223s0,0.157,0,0.24c0,1.508,0.326,2.645,0.979,3.411
		c0.653,0.766,1.633,1.148,2.938,1.148c0.819,0,1.503-0.112,2.049-0.338c0.546-0.225,1.012-0.472,1.398-0.739
		c0.386-0.267,0.724-0.513,1.015-0.739s0.597-0.338,0.918-0.338c0.249,0,0.48,0.119,0.694,0.356L50.745,28.421z M45.419,16.078
		c-0.665,0-1.279,0.137-1.843,0.41c-0.564,0.273-1.069,0.65-1.515,1.131s-0.831,1.054-1.157,1.719
		c-0.327,0.665-0.579,1.389-0.757,2.173c1.639-0.214,2.956-0.451,3.954-0.712c0.997-0.261,1.763-0.546,2.298-0.855
		c0.534-0.309,0.891-0.638,1.068-0.988s0.268-0.722,0.268-1.113c0-0.19-0.042-0.392-0.125-0.606
		c-0.083-0.213-0.217-0.403-0.401-0.57c-0.184-0.166-0.424-0.306-0.721-0.418S45.835,16.078,45.419,16.078z"/>
	<path fill="#1E91AD" d="M58.475,18.304c0.463-0.962,0.965-1.787,1.505-2.476c0.541-0.688,1.104-1.229,1.692-1.621
		c0.588-0.392,1.193-0.624,1.817-0.694c0.623-0.071,1.249,0.03,1.879,0.303l-0.695,3.669c-1.508-0.605-2.829-0.413-3.963,0.579
		c-1.134,0.991-2.045,2.865-2.733,5.62l-0.962,8.104h-3.741l2.191-18.204h1.924c0.415,0,0.732,0.104,0.952,0.312
		c0.22,0.208,0.33,0.531,0.33,0.971L58.475,18.304z"/>
	<path fill="#1E91AD" d="M82.841,13.62l-12.13,23.369c-0.285,0.558-0.706,0.837-1.265,0.837h-2.832l3.99-7.303L65.974,13.62h3.17
		c0.297,0,0.517,0.075,0.659,0.223c0.143,0.149,0.237,0.324,0.285,0.525l2.564,10.313c0.06,0.273,0.109,0.552,0.151,0.837
		c0.042,0.285,0.074,0.564,0.098,0.837c0.119-0.285,0.241-0.567,0.365-0.846c0.125-0.279,0.253-0.561,0.384-0.846l5.076-10.313
		c0.106-0.214,0.258-0.389,0.454-0.525c0.195-0.136,0.4-0.205,0.614-0.205H82.841z"/>
	<path fill="#1E91AD" d="M89.431,32.055c-0.997,0-1.917-0.169-2.761-0.507c-0.843-0.339-1.57-0.831-2.182-1.479
		c-0.611-0.647-1.09-1.443-1.434-2.387c-0.345-0.944-0.517-2.016-0.517-3.215c0-1.556,0.246-3.01,0.739-4.364
		c0.492-1.354,1.167-2.532,2.021-3.535s1.855-1.793,3.001-2.369c1.146-0.576,2.372-0.864,3.679-0.864
		c0.997,0,1.917,0.169,2.761,0.507c0.843,0.338,1.567,0.832,2.173,1.479c0.605,0.647,1.08,1.443,1.425,2.387
		c0.344,0.944,0.517,2.016,0.517,3.215c0,1.021-0.113,2.007-0.339,2.957s-0.54,1.837-0.943,2.663
		c-0.404,0.826-0.894,1.577-1.47,2.253s-1.211,1.255-1.906,1.736c-0.694,0.481-1.445,0.855-2.253,1.122
		C91.135,31.921,90.298,32.055,89.431,32.055z M89.77,29.062c0.795,0,1.52-0.223,2.173-0.668s1.208-1.042,1.665-1.79
		s0.811-1.612,1.061-2.592c0.249-0.979,0.374-2.003,0.374-3.072c0-1.567-0.288-2.728-0.864-3.482
		c-0.576-0.754-1.428-1.131-2.556-1.131c-0.808,0-1.535,0.22-2.182,0.659c-0.647,0.439-1.197,1.027-1.648,1.763
		c-0.451,0.736-0.801,1.597-1.051,2.583c-0.249,0.986-0.374,2.019-0.374,3.1C86.367,27.519,87.501,29.062,89.77,29.062z"/>
	<path fill="#1E91AD" d="M106.28,17.734c0.938-1.472,1.989-2.574,3.153-3.304c1.163-0.73,2.362-1.095,3.598-1.095
		c0.76,0,1.437,0.151,2.03,0.454s1.081,0.748,1.461,1.336s0.642,1.309,0.783,2.164c0.143,0.855,0.148,1.834,0.019,2.939
		l-1.372,11.56h-3.812l1.372-11.56c0.166-1.294,0.092-2.235-0.223-2.823c-0.315-0.588-0.882-0.882-1.701-0.882
		c-0.522,0-1.061,0.149-1.612,0.445c-0.552,0.297-1.081,0.716-1.585,1.256c-0.505,0.541-0.977,1.193-1.416,1.959
		c-0.439,0.766-0.802,1.618-1.087,2.556l-0.997,9.048h-3.812l2.173-18.204h1.924c0.415,0,0.732,0.104,0.952,0.312
		c0.22,0.208,0.33,0.531,0.33,0.971L106.28,17.734z"/>
	<path fill="#1E91AD" d="M134.832,28.421c-0.617,0.629-1.223,1.173-1.816,1.629c-0.594,0.458-1.199,0.834-1.816,1.131
		c-0.618,0.297-1.265,0.517-1.941,0.659c-0.677,0.143-1.414,0.214-2.209,0.214c-1.057,0-2.007-0.178-2.85-0.534
		c-0.844-0.356-1.564-0.858-2.164-1.505c-0.6-0.647-1.061-1.431-1.381-2.351c-0.32-0.92-0.48-1.95-0.48-3.09
		c0-0.95,0.101-1.885,0.303-2.805c0.201-0.92,0.495-1.796,0.882-2.627c0.386-0.831,0.854-1.6,1.406-2.307
		c0.553-0.707,1.182-1.315,1.889-1.826c0.706-0.511,1.484-0.911,2.333-1.203c0.849-0.291,1.761-0.436,2.734-0.436
		c0.938,0,1.751,0.133,2.44,0.4c0.688,0.268,1.261,0.612,1.719,1.033c0.457,0.422,0.798,0.888,1.023,1.398s0.339,1.009,0.339,1.496
		c0,0.795-0.163,1.526-0.49,2.191c-0.326,0.665-0.911,1.265-1.754,1.799c-0.844,0.534-1.998,0.998-3.465,1.389
		c-1.467,0.392-3.346,0.707-5.637,0.944c-0.013,0.071-0.019,0.146-0.019,0.223s0,0.157,0,0.24c0,1.508,0.327,2.645,0.98,3.411
		c0.652,0.766,1.632,1.148,2.938,1.148c0.819,0,1.502-0.112,2.048-0.338c0.547-0.225,1.013-0.472,1.398-0.739
		c0.386-0.267,0.725-0.513,1.016-0.739s0.597-0.338,0.917-0.338c0.25,0,0.481,0.119,0.694,0.356L134.832,28.421z M129.507,16.078
		c-0.665,0-1.279,0.137-1.844,0.41c-0.563,0.273-1.068,0.65-1.514,1.131s-0.831,1.054-1.158,1.719
		c-0.326,0.665-0.578,1.389-0.757,2.173c1.639-0.214,2.957-0.451,3.954-0.712c0.998-0.261,1.764-0.546,2.298-0.855
		c0.534-0.309,0.891-0.638,1.068-0.988c0.179-0.35,0.268-0.722,0.268-1.113c0-0.19-0.042-0.392-0.125-0.606
		c-0.083-0.213-0.217-0.403-0.4-0.57c-0.185-0.166-0.425-0.306-0.722-0.418S129.922,16.078,129.507,16.078z"/>
	<path fill="#1E91AD" d="M164.007,9.488h-7.267l-2.743,22.3h-3.99l2.726-22.3h-7.303l0.392-3.349h18.613L164.007,9.488z"/>
	<path fill="#1E91AD" d="M167.124,32.055c-0.997,0-1.917-0.169-2.761-0.507c-0.843-0.339-1.57-0.831-2.182-1.479
		c-0.611-0.647-1.09-1.443-1.434-2.387c-0.345-0.944-0.517-2.016-0.517-3.215c0-1.556,0.246-3.01,0.739-4.364
		c0.492-1.354,1.167-2.532,2.021-3.535s1.855-1.793,3.001-2.369c1.146-0.576,2.372-0.864,3.679-0.864
		c0.997,0,1.917,0.169,2.761,0.507c0.843,0.338,1.567,0.832,2.173,1.479c0.605,0.647,1.08,1.443,1.425,2.387
		c0.344,0.944,0.517,2.016,0.517,3.215c0,1.021-0.113,2.007-0.339,2.957s-0.54,1.837-0.943,2.663
		c-0.404,0.826-0.894,1.577-1.47,2.253s-1.211,1.255-1.906,1.736c-0.694,0.481-1.445,0.855-2.253,1.122
		C168.828,31.921,167.991,32.055,167.124,32.055z M167.463,29.062c0.795,0,1.52-0.223,2.173-0.668s1.208-1.042,1.665-1.79
		s0.811-1.612,1.061-2.592c0.249-0.979,0.374-2.003,0.374-3.072c0-1.567-0.288-2.728-0.864-3.482
		c-0.576-0.754-1.428-1.131-2.556-1.131c-0.808,0-1.535,0.22-2.182,0.659c-0.647,0.439-1.197,1.027-1.648,1.763
		c-0.451,0.736-0.801,1.597-1.051,2.583c-0.249,0.986-0.374,2.019-0.374,3.1C164.061,27.519,165.194,29.062,167.463,29.062z"/>
	<path fill="#1E91AD" d="M195.605,14.261l-0.16,1.265c-0.071,0.522-0.339,0.861-0.802,1.015l-2.013,0.445
		c0.071,0.273,0.127,0.555,0.169,0.846c0.042,0.292,0.062,0.603,0.062,0.936c0,0.57-0.065,1.081-0.196,1.532s-0.291,0.87-0.48,1.255
		c-0.19,0.386-0.396,0.751-0.614,1.096c-0.221,0.344-0.422,0.688-0.606,1.033c-0.184,0.344-0.338,0.703-0.463,1.077
		c-0.124,0.374-0.187,0.781-0.187,1.22c0,0.487,0.109,0.935,0.329,1.345s0.463,0.832,0.73,1.265c0.268,0.434,0.511,0.899,0.73,1.398
		c0.22,0.499,0.329,1.075,0.329,1.728c-0.012,0.878-0.217,1.71-0.614,2.494c-0.398,0.784-0.968,1.472-1.71,2.066
		s-1.645,1.066-2.707,1.416c-1.063,0.35-2.266,0.526-3.607,0.526c-1.08,0-2.06-0.113-2.938-0.339s-1.627-0.54-2.244-0.944
		c-0.618-0.404-1.093-0.885-1.425-1.443c-0.333-0.558-0.499-1.175-0.499-1.852c0-0.796,0.169-1.494,0.508-2.093
		c0.338-0.6,0.792-1.11,1.362-1.532c0.57-0.421,1.229-0.763,1.978-1.024c0.748-0.261,1.534-0.451,2.359-0.57
		s1.659-0.169,2.503-0.151c0.843,0.018,1.645,0.086,2.404,0.205c-0.071-0.202-0.131-0.41-0.178-0.624
		c-0.048-0.213-0.071-0.439-0.071-0.677c0-0.356,0.05-0.727,0.151-1.113c0.101-0.386,0.264-0.804,0.489-1.255
		c-0.451,0.309-0.959,0.546-1.522,0.712c-0.564,0.167-1.227,0.249-1.986,0.249c-0.688,0-1.342-0.112-1.959-0.338
		c-0.617-0.225-1.158-0.563-1.621-1.015c-0.463-0.451-0.828-1.015-1.096-1.692c-0.267-0.677-0.4-1.472-0.4-2.387
		c0-0.867,0.16-1.722,0.481-2.565c0.32-0.843,0.798-1.591,1.434-2.244c0.635-0.653,1.419-1.182,2.351-1.585
		c0.933-0.403,2.004-0.605,3.215-0.605c0.665,0,1.292,0.077,1.88,0.231s1.125,0.386,1.611,0.695H195.605z M188.943,32.019
		c0-0.439-0.053-0.849-0.16-1.229c-1.496-0.249-2.775-0.353-3.838-0.312c-1.063,0.042-1.939,0.187-2.628,0.437
		c-0.688,0.249-1.193,0.573-1.514,0.971c-0.32,0.397-0.48,0.828-0.48,1.291c0,0.772,0.32,1.36,0.962,1.764
		c0.641,0.403,1.585,0.605,2.832,0.605c0.724,0,1.383-0.092,1.977-0.276s1.102-0.436,1.523-0.757
		c0.421-0.32,0.748-0.695,0.979-1.122S188.943,32.506,188.943,32.019z M185.756,23.416c0.581,0,1.095-0.13,1.54-0.392
		s0.819-0.605,1.122-1.033c0.303-0.427,0.534-0.911,0.695-1.452c0.16-0.54,0.246-1.083,0.258-1.63c0-0.961-0.237-1.692-0.712-2.19
		c-0.476-0.499-1.141-0.748-1.995-0.748c-0.582,0-1.093,0.122-1.532,0.365c-0.439,0.244-0.811,0.57-1.113,0.98
		s-0.531,0.879-0.686,1.407c-0.154,0.529-0.231,1.078-0.231,1.648c0,0.974,0.229,1.725,0.686,2.253S184.9,23.416,185.756,23.416z"/>
	<path fill="#1E91AD" d="M210.478,28.421c-0.617,0.629-1.223,1.173-1.816,1.629c-0.594,0.458-1.199,0.834-1.816,1.131
		c-0.618,0.297-1.265,0.517-1.941,0.659c-0.677,0.143-1.414,0.214-2.209,0.214c-1.057,0-2.007-0.178-2.85-0.534
		c-0.844-0.356-1.564-0.858-2.164-1.505c-0.6-0.647-1.061-1.431-1.381-2.351c-0.32-0.92-0.48-1.95-0.48-3.09
		c0-0.95,0.101-1.885,0.303-2.805c0.201-0.92,0.495-1.796,0.882-2.627c0.386-0.831,0.854-1.6,1.406-2.307
		c0.553-0.707,1.182-1.315,1.889-1.826c0.706-0.511,1.484-0.911,2.333-1.203c0.849-0.291,1.761-0.436,2.734-0.436
		c0.938,0,1.751,0.133,2.44,0.4c0.688,0.268,1.261,0.612,1.719,1.033c0.457,0.422,0.798,0.888,1.023,1.398s0.339,1.009,0.339,1.496
		c0,0.795-0.163,1.526-0.49,2.191c-0.326,0.665-0.911,1.265-1.754,1.799c-0.844,0.534-1.998,0.998-3.465,1.389
		c-1.467,0.392-3.346,0.707-5.637,0.944c-0.013,0.071-0.019,0.146-0.019,0.223s0,0.157,0,0.24c0,1.508,0.327,2.645,0.98,3.411
		c0.652,0.766,1.632,1.148,2.938,1.148c0.819,0,1.502-0.112,2.048-0.338c0.547-0.225,1.013-0.472,1.398-0.739
		c0.386-0.267,0.725-0.513,1.016-0.739s0.597-0.338,0.917-0.338c0.25,0,0.481,0.119,0.694,0.356L210.478,28.421z M205.152,16.078
		c-0.665,0-1.279,0.137-1.844,0.41c-0.563,0.273-1.068,0.65-1.514,1.131s-0.831,1.054-1.158,1.719
		c-0.326,0.665-0.578,1.389-0.757,2.173c1.639-0.214,2.957-0.451,3.954-0.712c0.998-0.261,1.764-0.546,2.298-0.855
		c0.534-0.309,0.891-0.638,1.068-0.988c0.179-0.35,0.268-0.722,0.268-1.113c0-0.19-0.042-0.392-0.125-0.606
		c-0.083-0.213-0.217-0.403-0.4-0.57c-0.185-0.166-0.425-0.306-0.722-0.418S205.567,16.078,205.152,16.078z"/>
	<path fill="#1E91AD" d="M214.36,28.208c0-0.083,0.003-0.181,0.009-0.294s0.019-0.276,0.036-0.49s0.044-0.499,0.08-0.855
		c0.035-0.356,0.089-0.813,0.16-1.372l1.051-8.567h-1.834c-0.202,0-0.362-0.068-0.481-0.205s-0.16-0.341-0.125-0.615l0.179-1.549
		l2.761-0.428l1.425-5.254c0.071-0.202,0.181-0.365,0.329-0.49s0.33-0.187,0.544-0.187h2.03l-0.748,5.967h4.577l-0.32,2.761h-4.596
		l-1.015,8.354c-0.06,0.487-0.107,0.876-0.143,1.167c-0.036,0.291-0.062,0.522-0.08,0.694c-0.018,0.172-0.03,0.292-0.036,0.356
		c-0.006,0.065-0.009,0.116-0.009,0.151c0,0.522,0.125,0.92,0.374,1.193c0.25,0.273,0.594,0.41,1.033,0.41
		c0.285,0,0.528-0.039,0.73-0.116s0.38-0.16,0.534-0.25c0.154-0.089,0.285-0.172,0.392-0.249c0.107-0.077,0.208-0.116,0.303-0.116
		c0.131,0,0.226,0.027,0.285,0.081c0.06,0.053,0.119,0.146,0.179,0.276l0.819,1.87c-0.63,0.523-1.327,0.923-2.093,1.202
		c-0.767,0.279-1.541,0.419-2.325,0.419c-1.223,0-2.19-0.335-2.903-1.006C214.771,30.396,214.396,29.442,214.36,28.208z"/>
	<path fill="#1E91AD" d="M231.317,17.129c0.914-1.259,1.911-2.206,2.992-2.841c1.08-0.635,2.19-0.953,3.33-0.953
		c0.772,0,1.458,0.151,2.058,0.454s1.089,0.748,1.47,1.336c0.38,0.588,0.641,1.309,0.783,2.164s0.143,1.834,0,2.939l-1.354,11.56
		h-3.812l1.354-11.56c0.166-1.294,0.095-2.241-0.214-2.841s-0.879-0.9-1.71-0.9c-0.498,0-1.013,0.14-1.54,0.419
		c-0.529,0.279-1.036,0.671-1.523,1.175c-0.487,0.505-0.947,1.116-1.38,1.834c-0.434,0.719-0.799,1.517-1.096,2.396l-1.14,9.476
		h-3.812l3.188-26.361h3.812L231.317,17.129z"/>
	<path fill="#1E91AD" d="M259.477,28.421c-0.617,0.629-1.224,1.173-1.816,1.629c-0.595,0.458-1.2,0.834-1.817,1.131
		s-1.265,0.517-1.941,0.659c-0.677,0.143-1.413,0.214-2.209,0.214c-1.057,0-2.007-0.178-2.85-0.534
		c-0.843-0.356-1.564-0.858-2.164-1.505c-0.6-0.647-1.06-1.431-1.38-2.351c-0.321-0.92-0.481-1.95-0.481-3.09
		c0-0.95,0.101-1.885,0.303-2.805c0.202-0.92,0.496-1.796,0.882-2.627s0.855-1.6,1.407-2.307s1.182-1.315,1.888-1.826
		c0.707-0.511,1.484-0.911,2.334-1.203c0.849-0.291,1.76-0.436,2.733-0.436c0.938,0,1.752,0.133,2.44,0.4
		c0.688,0.268,1.262,0.612,1.719,1.033c0.457,0.422,0.799,0.888,1.024,1.398s0.338,1.009,0.338,1.496
		c0,0.795-0.163,1.526-0.489,2.191c-0.327,0.665-0.911,1.265-1.755,1.799c-0.843,0.534-1.998,0.998-3.464,1.389
		c-1.467,0.392-3.346,0.707-5.638,0.944c-0.012,0.071-0.018,0.146-0.018,0.223s0,0.157,0,0.24c0,1.508,0.326,2.645,0.979,3.411
		c0.653,0.766,1.633,1.148,2.938,1.148c0.819,0,1.503-0.112,2.049-0.338c0.546-0.225,1.012-0.472,1.398-0.739
		c0.386-0.267,0.724-0.513,1.015-0.739s0.597-0.338,0.918-0.338c0.249,0,0.48,0.119,0.694,0.356L259.477,28.421z M254.15,16.078
		c-0.665,0-1.279,0.137-1.843,0.41c-0.564,0.273-1.069,0.65-1.515,1.131s-0.831,1.054-1.157,1.719
		c-0.327,0.665-0.579,1.389-0.757,2.173c1.639-0.214,2.956-0.451,3.954-0.712c0.997-0.261,1.763-0.546,2.298-0.855
		c0.534-0.309,0.891-0.638,1.068-0.988s0.268-0.722,0.268-1.113c0-0.19-0.042-0.392-0.125-0.606
		c-0.083-0.213-0.217-0.403-0.401-0.57c-0.184-0.166-0.424-0.306-0.721-0.418S254.566,16.078,254.15,16.078z"/>
	<path fill="#1E91AD" d="M267.206,18.304c0.463-0.962,0.965-1.787,1.505-2.476c0.541-0.688,1.104-1.229,1.692-1.621
		c0.588-0.392,1.193-0.624,1.817-0.694c0.623-0.071,1.249,0.03,1.879,0.303l-0.695,3.669c-1.508-0.605-2.829-0.413-3.963,0.579
		c-1.134,0.991-2.045,2.865-2.733,5.62l-0.962,8.104h-3.741l2.191-18.204h1.924c0.415,0,0.732,0.104,0.952,0.312
		c0.22,0.208,0.33,0.531,0.33,0.971L267.206,18.304z"/>
	<path fill="#1E91AD" d="M17.759,47.62l-2.191,18.167h-1.905c-0.927,0-1.39-0.451-1.39-1.354l0.178-2.617
		c-0.926,1.412-1.962,2.473-3.107,3.178c-1.146,0.707-2.325,1.061-3.536,1.061c-0.76,0-1.437-0.15-2.03-0.455
		c-0.594-0.303-1.081-0.748-1.461-1.334c-0.38-0.588-0.641-1.311-0.783-2.164c-0.143-0.855-0.148-1.836-0.018-2.939L2.886,47.62
		h3.812L5.326,59.162c-0.167,1.295-0.093,2.238,0.223,2.832c0.314,0.594,0.882,0.891,1.701,0.891c0.498,0,1.015-0.141,1.549-0.42
		c0.534-0.277,1.051-0.674,1.55-1.184s0.962-1.129,1.39-1.852c0.427-0.725,0.789-1.533,1.086-2.424l1.122-9.386H17.759z"/>
	<path fill="#1E91AD" d="M25.167,51.734c0.938-1.472,1.989-2.574,3.153-3.304c1.163-0.73,2.362-1.095,3.598-1.095
		c0.76,0,1.437,0.151,2.03,0.454s1.081,0.748,1.461,1.335s0.642,1.31,0.783,2.165c0.143,0.855,0.148,1.834,0.019,2.939
		l-1.372,11.559h-3.812l1.372-11.559c0.166-1.295,0.092-2.236-0.223-2.824c-0.315-0.588-0.882-0.881-1.701-0.881
		c-0.522,0-1.061,0.148-1.612,0.446c-0.552,0.297-1.081,0.715-1.585,1.256c-0.505,0.539-0.977,1.193-1.416,1.959
		s-0.802,1.617-1.087,2.557l-0.997,9.047h-3.812l2.173-18.203h1.924c0.415,0,0.732,0.104,0.952,0.312
		c0.22,0.208,0.33,0.531,0.33,0.971L25.167,51.734z"/>
	<path fill="#1E91AD" d="M56.943,39.427l-3.26,26.36h-2.013c-0.487,0-0.816-0.125-0.988-0.373c-0.173-0.25-0.259-0.559-0.259-0.926
		l0.231-3.1c-0.451,0.713-0.932,1.354-1.442,1.924c-0.511,0.568-1.048,1.059-1.612,1.469c-0.563,0.41-1.148,0.725-1.754,0.943
		c-0.605,0.221-1.229,0.33-1.87,0.33c-1.532,0-2.74-0.561-3.625-1.684c-0.885-1.121-1.327-2.799-1.327-5.031
		c0-1.01,0.104-2.006,0.312-2.992c0.208-0.986,0.502-1.924,0.882-2.814s0.84-1.713,1.381-2.467c0.54-0.754,1.137-1.407,1.79-1.959
		c0.652-0.552,1.356-0.985,2.11-1.3c0.754-0.314,1.541-0.472,2.36-0.472c0.854,0,1.632,0.16,2.333,0.481
		c0.7,0.32,1.301,0.771,1.799,1.354l1.211-9.743H56.943z M51.671,51.717c-0.428-0.523-0.93-0.889-1.505-1.096
		c-0.576-0.207-1.149-0.312-1.719-0.312c-0.855,0-1.63,0.259-2.325,0.775c-0.694,0.518-1.288,1.188-1.78,2.014
		c-0.493,0.824-0.873,1.75-1.141,2.777c-0.267,1.027-0.4,2.053-0.4,3.072c0,1.342,0.231,2.352,0.694,3.029
		c0.463,0.676,1.11,1.014,1.941,1.014c0.522,0,1.057-0.172,1.604-0.516c0.546-0.344,1.068-0.818,1.567-1.426
		c0.499-0.605,0.965-1.322,1.398-2.154c0.433-0.83,0.804-1.734,1.113-2.707L51.671,51.717z"/>
	<path fill="#1E91AD" d="M72.759,62.422c-0.617,0.629-1.223,1.172-1.816,1.629s-1.199,0.834-1.816,1.131
		c-0.618,0.297-1.265,0.518-1.941,0.66s-1.414,0.213-2.209,0.213c-1.057,0-2.007-0.178-2.85-0.535
		c-0.844-0.355-1.564-0.857-2.164-1.504s-1.061-1.432-1.381-2.352s-0.48-1.951-0.48-3.09c0-0.949,0.101-1.885,0.303-2.805
		c0.201-0.922,0.495-1.797,0.882-2.629c0.386-0.83,0.854-1.6,1.406-2.307c0.553-0.706,1.182-1.314,1.889-1.825
		c0.706-0.511,1.484-0.911,2.333-1.203c0.849-0.291,1.761-0.436,2.734-0.436c0.938,0,1.751,0.133,2.44,0.4
		c0.688,0.268,1.261,0.611,1.719,1.033c0.457,0.422,0.798,0.888,1.023,1.398s0.339,1.01,0.339,1.497c0,0.795-0.163,1.525-0.49,2.189
		c-0.326,0.666-0.911,1.266-1.754,1.799c-0.844,0.535-1.998,0.998-3.465,1.391c-1.467,0.391-3.346,0.707-5.637,0.943
		c-0.013,0.072-0.019,0.146-0.019,0.223c0,0.078,0,0.158,0,0.24c0,1.508,0.327,2.645,0.98,3.412
		c0.652,0.766,1.632,1.148,2.938,1.148c0.819,0,1.502-0.113,2.048-0.338c0.547-0.227,1.013-0.473,1.398-0.74
		s0.725-0.514,1.016-0.738c0.291-0.227,0.597-0.34,0.917-0.34c0.25,0,0.481,0.119,0.694,0.357L72.759,62.422z M67.434,50.078
		c-0.665,0-1.279,0.137-1.844,0.41c-0.563,0.273-1.068,0.649-1.514,1.131c-0.445,0.48-0.831,1.053-1.158,1.719
		c-0.326,0.664-0.578,1.389-0.757,2.172c1.639-0.213,2.957-0.451,3.954-0.711c0.998-0.262,1.764-0.547,2.298-0.855
		s0.891-0.639,1.068-0.988c0.179-0.352,0.268-0.723,0.268-1.113c0-0.191-0.042-0.393-0.125-0.605
		c-0.083-0.215-0.217-0.404-0.4-0.571c-0.185-0.166-0.425-0.306-0.722-0.419C68.205,50.134,67.849,50.078,67.434,50.078z"/>
	<path fill="#1E91AD" d="M80.489,52.305c0.463-0.963,0.965-1.788,1.505-2.476s1.104-1.229,1.692-1.621s1.193-0.624,1.816-0.694
		c0.623-0.071,1.25,0.03,1.879,0.303l-0.694,3.668c-1.508-0.605-2.829-0.412-3.963,0.58c-1.135,0.99-2.046,2.863-2.734,5.619
		l-0.962,8.104h-3.74l2.19-18.203h1.924c0.416,0,0.733,0.104,0.953,0.312c0.22,0.208,0.329,0.531,0.329,0.971L80.489,52.305z"/>
	<path fill="#1E91AD" d="M120.084,51.182c0,1.426-0.157,2.781-0.472,4.07c-0.315,1.289-0.764,2.484-1.345,3.59
		c-0.582,1.104-1.289,2.102-2.12,2.992s-1.761,1.65-2.787,2.279c-1.027,0.629-2.141,1.113-3.34,1.451
		c-1.199,0.34-2.458,0.508-3.776,0.508c-1.639,0-3.111-0.291-4.417-0.873c-1.307-0.582-2.42-1.383-3.34-2.404
		s-1.624-2.227-2.11-3.615c-0.487-1.389-0.73-2.896-0.73-4.523c0-1.426,0.157-2.783,0.472-4.071
		c0.314-1.288,0.767-2.485,1.354-3.589c0.587-1.104,1.294-2.102,2.119-2.993s1.751-1.653,2.778-2.289s2.141-1.122,3.34-1.46
		s2.464-0.508,3.794-0.508c1.639,0,3.111,0.291,4.417,0.873c1.307,0.582,2.417,1.383,3.331,2.404
		c0.914,1.021,1.615,2.229,2.102,3.625C119.841,48.044,120.084,49.555,120.084,51.182z M115.346,51.289
		c0-1.164-0.146-2.22-0.436-3.17c-0.291-0.95-0.713-1.764-1.265-2.44c-0.553-0.677-1.227-1.199-2.021-1.567
		c-0.796-0.368-1.692-0.552-2.69-0.552c-1.282,0-2.448,0.262-3.5,0.784c-1.051,0.523-1.95,1.265-2.698,2.227
		s-1.327,2.12-1.736,3.474c-0.41,1.354-0.614,2.856-0.614,4.506c0,1.164,0.143,2.221,0.427,3.17
		c0.285,0.951,0.701,1.762,1.247,2.432s1.214,1.188,2.004,1.549c0.79,0.363,1.689,0.543,2.698,0.543c1.294,0,2.47-0.26,3.527-0.783
		c1.057-0.521,1.959-1.258,2.707-2.209c0.748-0.949,1.327-2.098,1.736-3.445C115.142,54.457,115.346,52.951,115.346,51.289z"/>
	<path fill="#1E91AD" d="M145.715,40.032l-3.171,25.755h-2.387c-0.356,0-0.65-0.062-0.882-0.188
		c-0.231-0.123-0.448-0.328-0.65-0.613l-9.974-17.598c-0.024,0.297-0.048,0.579-0.071,0.846c-0.024,0.268-0.048,0.52-0.071,0.758
		l-2.031,16.795h-4.078l3.17-25.755h2.423c0.201,0,0.371,0.009,0.508,0.027c0.136,0.018,0.258,0.053,0.364,0.106
		c0.107,0.054,0.202,0.128,0.285,0.223c0.083,0.095,0.172,0.226,0.268,0.392l10.027,17.579c0.024-0.355,0.051-0.697,0.08-1.023
		c0.03-0.326,0.062-0.627,0.099-0.898l2.013-16.405H145.715z"/>
	<path fill="#1E91AD" d="M155.333,43.719l-0.909,7.32h8.141l-0.445,3.545h-8.141l-0.926,7.518h10.402l-0.464,3.686h-15.032
		l3.17-25.755h15.016l-0.464,3.687H155.333z"/>
	<path fill="#1E91AD" d="M179.823,52.305c0.463-0.963,0.965-1.788,1.505-2.476c0.541-0.688,1.104-1.229,1.692-1.621
		s1.193-0.624,1.817-0.694c0.623-0.071,1.249,0.03,1.879,0.303l-0.695,3.668c-1.508-0.605-2.829-0.412-3.963,0.58
		c-1.134,0.99-2.045,2.863-2.733,5.619l-0.962,8.104h-3.741l2.191-18.203h1.924c0.415,0,0.732,0.104,0.952,0.312
		c0.22,0.208,0.33,0.531,0.33,0.971L179.823,52.305z"/>
	<path fill="#1E91AD" d="M193.413,66.055c-0.997,0-1.918-0.17-2.761-0.508c-0.844-0.338-1.57-0.83-2.182-1.479
		c-0.612-0.646-1.09-1.441-1.435-2.387c-0.344-0.943-0.517-2.016-0.517-3.215c0-1.555,0.247-3.01,0.739-4.363
		c0.493-1.354,1.167-2.533,2.021-3.536c0.855-1.004,1.855-1.793,3.002-2.369c1.146-0.576,2.371-0.864,3.678-0.864
		c0.997,0,1.918,0.169,2.761,0.507c0.843,0.339,1.567,0.831,2.173,1.479s1.081,1.442,1.425,2.386
		c0.345,0.945,0.517,2.016,0.517,3.215c0,1.021-0.112,2.008-0.338,2.957c-0.226,0.951-0.541,1.838-0.944,2.664
		c-0.403,0.824-0.894,1.576-1.47,2.252c-0.575,0.678-1.211,1.256-1.905,1.736c-0.694,0.482-1.446,0.855-2.253,1.123
		C195.117,65.922,194.279,66.055,193.413,66.055z M193.751,63.062c0.796,0,1.521-0.223,2.174-0.668
		c0.652-0.445,1.208-1.043,1.665-1.791s0.811-1.611,1.06-2.59c0.25-0.98,0.374-2.004,0.374-3.074c0-1.566-0.288-2.727-0.863-3.48
		c-0.576-0.754-1.429-1.131-2.557-1.131c-0.808,0-1.534,0.22-2.182,0.659c-0.647,0.439-1.196,1.027-1.647,1.764
		s-0.802,1.598-1.051,2.582c-0.25,0.986-0.374,2.02-0.374,3.1C190.35,61.52,191.483,63.062,193.751,63.062z"/>
	<path fill="#1E91AD" d="M211.973,66.055c-0.997,0-1.918-0.17-2.761-0.508c-0.844-0.338-1.57-0.83-2.182-1.479
		c-0.612-0.646-1.09-1.441-1.435-2.387c-0.344-0.943-0.517-2.016-0.517-3.215c0-1.555,0.247-3.01,0.739-4.363
		c0.493-1.354,1.167-2.533,2.021-3.536c0.855-1.004,1.855-1.793,3.002-2.369c1.146-0.576,2.371-0.864,3.678-0.864
		c0.997,0,1.918,0.169,2.761,0.507c0.843,0.339,1.567,0.831,2.173,1.479s1.081,1.442,1.425,2.386
		c0.345,0.945,0.517,2.016,0.517,3.215c0,1.021-0.112,2.008-0.338,2.957c-0.226,0.951-0.541,1.838-0.944,2.664
		c-0.403,0.824-0.894,1.576-1.47,2.252c-0.575,0.678-1.211,1.256-1.905,1.736c-0.694,0.482-1.446,0.855-2.253,1.123
		C213.677,65.922,212.839,66.055,211.973,66.055z M212.311,63.062c0.796,0,1.521-0.223,2.174-0.668
		c0.652-0.445,1.208-1.043,1.665-1.791s0.811-1.611,1.06-2.59c0.25-0.98,0.374-2.004,0.374-3.074c0-1.566-0.288-2.727-0.863-3.48
		c-0.576-0.754-1.429-1.131-2.557-1.131c-0.808,0-1.534,0.22-2.182,0.659c-0.647,0.439-1.196,1.027-1.647,1.764
		s-0.802,1.598-1.051,2.582c-0.25,0.986-0.374,2.02-0.374,3.1C208.909,61.52,210.043,63.062,212.311,63.062z"/>
	<path fill="#1E91AD" d="M229.82,50.612l-1.746,14.5l-0.873,3.49c-0.166,0.51-0.397,0.906-0.694,1.186
		c-0.297,0.277-0.719,0.418-1.265,0.418h-1.531l2.368-19.557l-1.585-0.25c-0.249-0.059-0.448-0.163-0.597-0.312
		s-0.205-0.371-0.169-0.668l0.195-1.549h2.494l0.196-1.532c0.13-1.033,0.397-1.959,0.801-2.779c0.404-0.819,0.915-1.514,1.532-2.083
		c0.617-0.57,1.327-1.007,2.128-1.31c0.802-0.303,1.666-0.454,2.592-0.454c0.736,0,1.425,0.119,2.066,0.356l-0.356,1.995
		c-0.023,0.131-0.077,0.229-0.16,0.294c-0.083,0.065-0.193,0.11-0.329,0.134c-0.137,0.024-0.288,0.036-0.454,0.036
		c-0.167,0-0.339,0-0.517,0c-0.499,0-0.953,0.071-1.363,0.213c-0.409,0.143-0.774,0.369-1.095,0.677
		c-0.321,0.309-0.588,0.712-0.802,1.211c-0.214,0.499-0.362,1.11-0.445,1.834l-0.179,1.407h4.293l-0.356,2.743H229.82z"/>
	<path fill="#1E91AD" d="M235.128,63.578c0-0.344,0.062-0.668,0.187-0.971s0.3-0.566,0.525-0.791
		c0.226-0.227,0.487-0.404,0.784-0.535c0.296-0.131,0.623-0.195,0.979-0.195c0.344,0,0.668,0.064,0.971,0.195
		s0.563,0.309,0.783,0.535c0.22,0.225,0.395,0.488,0.525,0.791s0.196,0.627,0.196,0.971c0,0.357-0.065,0.684-0.196,0.98
		s-0.306,0.559-0.525,0.783c-0.22,0.227-0.48,0.4-0.783,0.525s-0.627,0.188-0.971,0.188c-0.356,0-0.684-0.062-0.979-0.188
		c-0.297-0.125-0.559-0.299-0.784-0.525c-0.226-0.225-0.4-0.486-0.525-0.783S235.128,63.936,235.128,63.578z M241.967,40.139
		l-1.246,10.206c-0.06,0.534-0.134,1.059-0.223,1.577c-0.09,0.516-0.188,1.035-0.294,1.559c-0.107,0.521-0.227,1.057-0.356,1.602
		c-0.131,0.547-0.268,1.123-0.41,1.729h-2.493c0-0.605,0.003-1.182,0.009-1.729c0.006-0.545,0.021-1.08,0.045-1.602
		c0.023-0.523,0.056-1.043,0.098-1.559c0.041-0.518,0.098-1.043,0.169-1.577l1.247-10.206H241.967z"/>
</g>
<g>
	<path fill="#1E91AD" d="M321.672,68.874h-1.895c-0.494,0-0.817-0.246-0.971-0.739l-5.223-20.661h-30.459l-10.308,20.661
		c-0.154,0.216-0.331,0.393-0.531,0.531c-0.201,0.139-0.424,0.208-0.67,0.208h-1.849L302.49,3.887h2.403L321.672,68.874z
		 M313.121,45.579l-9.151-36.283c-0.093-0.431-0.193-0.871-0.301-1.317c-0.108-0.446-0.208-0.917-0.3-1.41
		c-0.216,0.493-0.424,0.963-0.624,1.41c-0.201,0.447-0.409,0.886-0.624,1.317l-18.072,36.283H313.121z"/>
	<path fill="#1E91AD" d="M365.396,66.701l-0.277,2.173h-32.078l7.997-64.987h2.496l-7.719,62.814H365.396z"/>
	<path fill="#1E91AD" d="M408.103,66.701l-0.277,2.173h-32.078l7.997-64.987h2.496l-7.719,62.814H408.103z"/>
	<path fill="#1E91AD" d="M442.213,68.874h-2.496l7.996-64.987h2.496L442.213,68.874z"/>
	<path fill="#1E91AD" d="M514.64,3.887l-7.996,64.987h-0.925c-0.432,0-0.802-0.231-1.109-0.693L471.238,7.862L471.1,9.388
		l-7.257,59.486h-2.173l7.996-64.987h1.109c0.246,0,0.432,0.031,0.555,0.093c0.123,0.062,0.262,0.216,0.416,0.462l33.372,60.226
		c0-0.277,0.007-0.539,0.022-0.786c0.016-0.246,0.039-0.492,0.069-0.739l7.257-59.255H514.64z"/>
	<path fill="#1E91AD" d="M550.321,67.487c2.373,0,4.514-0.2,6.425-0.601c1.91-0.4,3.598-0.909,5.062-1.525
		c1.463-0.616,2.742-1.278,3.836-1.987s2.011-1.371,2.75-1.988c0.74-0.615,1.333-1.124,1.78-1.524
		c0.446-0.4,0.763-0.602,0.947-0.602c0.123,0,0.246,0.062,0.37,0.186l0.878,1.017c-1.418,1.356-2.92,2.597-4.507,3.721
		c-1.587,1.125-3.289,2.088-5.107,2.889c-1.818,0.802-3.783,1.426-5.893,1.872c-2.111,0.446-4.399,0.67-6.864,0.67
		c-3.667,0-6.995-0.67-9.983-2.011c-2.989-1.34-5.54-3.235-7.65-5.685c-2.11-2.45-3.743-5.408-4.899-8.875
		c-1.155-3.466-1.732-7.326-1.732-11.578c0-5.7,0.847-10.9,2.542-15.6c1.694-4.698,4.036-8.735,7.025-12.11
		c2.988-3.374,6.518-5.985,10.585-7.834c4.067-1.849,8.458-2.773,13.173-2.773c2.188,0,4.144,0.162,5.87,0.485
		c1.725,0.323,3.312,0.816,4.761,1.479c1.447,0.663,2.796,1.479,4.044,2.45s2.473,2.103,3.675,3.397l-0.693,0.878
		c-0.216,0.216-0.493,0.324-0.832,0.324c-0.216,0-0.485-0.169-0.809-0.509c-0.324-0.338-0.771-0.763-1.341-1.271
		s-1.271-1.063-2.103-1.664c-0.832-0.601-1.85-1.155-3.051-1.664c-1.202-0.509-2.597-0.932-4.184-1.271
		c-1.587-0.338-3.428-0.508-5.523-0.508c-4.314,0-8.327,0.84-12.04,2.519c-3.714,1.68-6.949,4.083-9.706,7.21
		c-2.759,3.128-4.923,6.918-6.494,11.371c-1.572,4.453-2.357,9.437-2.357,14.952c0,4.037,0.538,7.666,1.617,10.885
		c1.078,3.221,2.589,5.963,4.53,8.228s4.268,4.006,6.979,5.224C544.112,66.879,547.086,67.487,550.321,67.487z"/>
	<path fill="#1E91AD" d="M616.831,66.701l-0.277,2.173h-32.077l7.996-64.987h2.496l-7.719,62.814H616.831z"/>
	<path fill="#1E91AD" d="M645.812,67.487c3.051,0,5.854-0.593,8.413-1.779c2.557-1.186,4.807-2.819,6.748-4.899
		s3.536-4.514,4.783-7.303c1.248-2.789,2.072-5.785,2.474-8.99l4.945-40.628h2.542l-4.992,40.628
		c-0.462,3.482-1.395,6.756-2.796,9.822c-1.402,3.066-3.197,5.739-5.385,8.019c-2.188,2.281-4.723,4.076-7.604,5.385
		c-2.882,1.31-6.031,1.965-9.452,1.965c-3.39,0-6.371-0.655-8.943-1.965c-2.573-1.309-4.677-3.104-6.31-5.385
		c-1.634-2.279-2.773-4.952-3.42-8.019c-0.647-3.066-0.756-6.34-0.324-9.822l4.992-40.628h2.496l-4.992,40.536
		c-0.369,3.205-0.285,6.209,0.255,9.013c0.538,2.804,1.524,5.246,2.958,7.326c1.433,2.079,3.289,3.721,5.569,4.922
		C640.05,66.887,642.73,67.487,645.812,67.487z"/>
	<path fill="#1E91AD" d="M721.752,10.589c-0.185,0.309-0.447,0.462-0.786,0.462c-0.308,0-0.709-0.301-1.201-0.901
		c-0.493-0.601-1.194-1.271-2.104-2.011s-2.103-1.41-3.582-2.011c-1.479-0.601-3.359-0.901-5.639-0.901
		c-2.527,0-4.792,0.424-6.795,1.271c-2.003,0.848-3.697,1.987-5.084,3.42c-1.387,1.433-2.45,3.105-3.189,5.015
		c-0.739,1.911-1.109,3.945-1.109,6.101c0,2.034,0.385,3.737,1.155,5.107c0.771,1.372,1.795,2.542,3.074,3.513
		c1.278,0.97,2.727,1.795,4.345,2.473c1.618,0.678,3.281,1.34,4.992,1.987c1.71,0.647,3.374,1.34,4.991,2.08
		c1.618,0.74,3.066,1.641,4.345,2.704c1.278,1.063,2.304,2.35,3.074,3.859c0.77,1.51,1.155,3.359,1.155,5.546
		c0,2.866-0.493,5.593-1.479,8.181c-0.986,2.589-2.396,4.854-4.229,6.795c-1.834,1.941-4.061,3.482-6.679,4.622
		c-2.62,1.14-5.562,1.71-8.829,1.71c-2.003,0-3.798-0.192-5.385-0.577c-1.587-0.386-3.027-0.939-4.321-1.664
		c-1.294-0.724-2.466-1.61-3.513-2.658c-1.048-1.047-2.019-2.233-2.912-3.559l0.786-0.925c0.153-0.122,0.284-0.223,0.393-0.3
		c0.107-0.077,0.27-0.116,0.485-0.116c0.215,0,0.478,0.193,0.786,0.578c0.308,0.386,0.7,0.863,1.179,1.433
		c0.477,0.57,1.078,1.187,1.803,1.849c0.724,0.663,1.594,1.279,2.611,1.85c1.017,0.57,2.21,1.048,3.582,1.433
		c1.37,0.386,2.965,0.577,4.783,0.577c2.835,0,5.4-0.492,7.696-1.479c2.295-0.986,4.252-2.326,5.87-4.021
		c1.617-1.694,2.857-3.689,3.721-5.985c0.862-2.295,1.294-4.738,1.294-7.326c0-2.034-0.386-3.728-1.155-5.084
		c-0.771-1.355-1.796-2.511-3.074-3.466c-1.278-0.955-2.727-1.764-4.345-2.427c-1.617-0.662-3.281-1.309-4.991-1.941
		c-1.71-0.631-3.374-1.309-4.992-2.034c-1.617-0.724-3.066-1.618-4.345-2.681c-1.279-1.063-2.304-2.364-3.073-3.906
		c-0.771-1.541-1.156-3.451-1.156-5.731c0-2.403,0.424-4.707,1.271-6.91c0.847-2.203,2.072-4.152,3.675-5.847
		c1.602-1.694,3.574-3.042,5.916-4.044c2.342-1.001,4.992-1.502,7.95-1.502c2.988,0,5.593,0.54,7.812,1.618
		c2.218,1.079,4.159,2.727,5.823,4.946L721.752,10.589z"/>
	<path fill="#1E91AD" d="M734.508,68.874h-2.496l7.996-64.987h2.496L734.508,68.874z"/>
	<path fill="#1E91AD" d="M805.549,3.887l-32.725,64.987h-2.219l-16.87-64.987h1.94c0.524,0,0.816,0.247,0.879,0.74l14.929,58.377
		c0.123,0.432,0.238,0.895,0.347,1.387c0.108,0.493,0.192,1.002,0.255,1.525c0.215-0.523,0.423-1.032,0.624-1.525
		c0.2-0.492,0.423-0.955,0.67-1.387l29.165-58.377c0.216-0.493,0.602-0.74,1.156-0.74H805.549z"/>
	<path fill="#1E91AD" d="M819.044,6.014l-3.513,28.842h27.641l-0.277,2.08h-27.641l-3.651,29.812h32.909l-0.277,2.126h-35.405
		l7.996-64.987h35.359l-0.323,2.126H819.044z"/>
	<path fill="#1E91AD" d="M856.853,66.147c0-0.986,0.33-1.826,0.993-2.52c0.662-0.693,1.486-1.04,2.473-1.04s1.826,0.347,2.52,1.04
		s1.04,1.533,1.04,2.52s-0.347,1.811-1.04,2.473s-1.533,0.993-2.52,0.993s-1.811-0.331-2.473-0.993
		C857.183,67.958,856.853,67.134,856.853,66.147z M868.639,3.887l-3.235,26.438c-0.186,1.387-0.362,2.681-0.531,3.883
		c-0.17,1.202-0.347,2.426-0.532,3.674c-0.185,1.248-0.393,2.581-0.624,3.998c-0.23,1.418-0.485,3.021-0.763,4.807h-1.617
		c0.153-1.787,0.3-3.389,0.438-4.807c0.139-1.417,0.262-2.75,0.37-3.998c0.107-1.248,0.231-2.473,0.37-3.674
		c0.139-1.202,0.284-2.496,0.438-3.883l3.235-26.438H868.639z"/>
</g>
</svg>
