<?xml version="1.0" encoding="utf-8"?>
<!-- Generator: Adobe Illustrator 16.0.0, SVG Export Plug-In . SVG Version: 6.00 Build 0)  -->
<!DOCTYPE svg PUBLIC "-//W3C//DTD SVG 1.1//EN" "http://www.w3.org/Graphics/SVG/1.1/DTD/svg11.dtd">
<svg version="1.1" id="Layer_1" xmlns="http://www.w3.org/2000/svg" xmlns:xlink="http://www.w3.org/1999/xlink" x="0px" y="0px"
	 width="940px" height="72.186px" viewBox="0 0 940 72.186" enable-background="new 0 0 940 72.186" xml:space="preserve">
<g>
	<path fill="#1E91AD" d="M7.916,7.675l-0.962,7.891h8.567l-0.41,3.135h-8.55l-0.997,8.104H16.34l-0.41,3.259H1.129L4.282,4.416
		h14.784l-0.41,3.259H7.916z"/>
	<path fill="#1E91AD" d="M35.897,11.896l-9.013,18.168h-3.206l-4.613-18.168h3.117c0.273,0,0.493,0.075,0.659,0.223
		c0.166,0.149,0.267,0.324,0.303,0.526l2.28,10.58c0.095,0.535,0.167,1.057,0.214,1.568c0.047,0.51,0.089,1.027,0.125,1.549
		c0.167-0.51,0.338-1.021,0.517-1.532c0.178-0.51,0.38-1.039,0.605-1.585l4.934-10.58c0.095-0.214,0.24-0.392,0.437-0.535
		c0.196-0.143,0.412-0.214,0.65-0.214H35.897z"/>
	<path fill="#1E91AD" d="M50.324,26.698c-0.617,0.629-1.223,1.173-1.816,1.629c-0.594,0.458-1.2,0.834-1.817,1.131
		c-0.618,0.297-1.265,0.517-1.941,0.659c-0.677,0.143-1.414,0.214-2.209,0.214c-1.057,0-2.007-0.178-2.85-0.534
		c-0.843-0.356-1.564-0.858-2.164-1.505c-0.6-0.647-1.06-1.431-1.38-2.351c-0.321-0.92-0.481-1.95-0.481-3.09
		c0-0.95,0.101-1.885,0.303-2.805c0.202-0.92,0.496-1.796,0.882-2.627c0.386-0.831,0.855-1.6,1.407-2.307
		c0.552-0.707,1.182-1.315,1.888-1.826s1.484-0.911,2.333-1.203c0.849-0.291,1.76-0.436,2.734-0.436c0.938,0,1.751,0.133,2.44,0.4
		c0.688,0.268,1.261,0.612,1.719,1.033c0.457,0.422,0.798,0.888,1.024,1.398s0.338,1.009,0.338,1.496
		c0,0.795-0.163,1.526-0.49,2.191s-0.911,1.265-1.754,1.799s-1.998,0.998-3.464,1.389c-1.467,0.392-3.346,0.707-5.637,0.944
		c-0.012,0.071-0.018,0.146-0.018,0.223s0,0.157,0,0.24c0,1.508,0.327,2.645,0.98,3.411c0.653,0.766,1.632,1.148,2.938,1.148
		c0.819,0,1.502-0.112,2.048-0.338c0.546-0.225,1.012-0.472,1.398-0.739c0.386-0.267,0.724-0.513,1.015-0.739
		s0.597-0.338,0.917-0.338c0.25,0,0.481,0.119,0.694,0.356L50.324,26.698z M44.999,14.354c-0.665,0-1.279,0.137-1.843,0.41
		c-0.564,0.273-1.069,0.65-1.514,1.131s-0.831,1.054-1.158,1.719s-0.579,1.389-0.757,2.173c1.639-0.214,2.957-0.451,3.954-0.712
		s1.763-0.546,2.298-0.855c0.534-0.309,0.891-0.638,1.068-0.988c0.178-0.35,0.268-0.722,0.268-1.113c0-0.19-0.042-0.392-0.125-0.606
		c-0.083-0.213-0.217-0.403-0.401-0.57c-0.184-0.166-0.424-0.306-0.721-0.418S45.414,14.354,44.999,14.354z"/>
	<path fill="#1E91AD" d="M58.054,16.581c0.463-0.962,0.965-1.787,1.505-2.476c0.541-0.688,1.104-1.229,1.692-1.621
		c0.588-0.392,1.193-0.624,1.817-0.694c0.623-0.071,1.25,0.03,1.879,0.303l-0.695,3.669c-1.508-0.605-2.829-0.413-3.963,0.579
		c-1.134,0.991-2.045,2.865-2.734,5.62l-0.962,8.104h-3.741l2.191-18.204h1.924c0.416,0,0.733,0.104,0.953,0.312
		c0.22,0.208,0.33,0.531,0.33,0.971L58.054,16.581z"/>
	<path fill="#1E91AD" d="M82.42,11.896L70.291,35.266c-0.285,0.558-0.707,0.837-1.265,0.837h-2.832l3.99-7.303l-4.631-16.903h3.17
		c0.296,0,0.516,0.075,0.659,0.223c0.143,0.149,0.238,0.324,0.285,0.526l2.565,10.312c0.059,0.273,0.109,0.552,0.151,0.837
		c0.042,0.285,0.074,0.564,0.098,0.837c0.119-0.285,0.241-0.567,0.365-0.846c0.125-0.279,0.252-0.562,0.383-0.846l5.076-10.313
		c0.107-0.214,0.258-0.389,0.454-0.525c0.196-0.136,0.401-0.205,0.614-0.205H82.42z"/>
	<path fill="#1E91AD" d="M89.01,30.332c-0.997,0-1.917-0.169-2.761-0.507c-0.843-0.339-1.57-0.831-2.182-1.479
		c-0.612-0.647-1.09-1.443-1.434-2.387c-0.344-0.944-0.517-2.016-0.517-3.215c0-1.556,0.247-3.01,0.739-4.364
		c0.493-1.354,1.167-2.532,2.021-3.535c0.855-1.003,1.855-1.793,3.001-2.369c1.146-0.576,2.372-0.864,3.678-0.864
		c0.997,0,1.917,0.169,2.761,0.507c0.843,0.338,1.567,0.832,2.173,1.479c0.605,0.647,1.081,1.443,1.425,2.387
		s0.517,2.016,0.517,3.215c0,1.021-0.113,2.007-0.338,2.957s-0.541,1.837-0.944,2.663c-0.404,0.826-0.894,1.577-1.47,2.253
		c-0.576,0.677-1.211,1.255-1.906,1.736c-0.694,0.481-1.446,0.855-2.253,1.122C90.714,30.198,89.877,30.332,89.01,30.332z
		 M89.349,27.339c0.795,0,1.52-0.223,2.173-0.668c0.653-0.445,1.208-1.042,1.665-1.79s0.811-1.612,1.06-2.592
		c0.25-0.979,0.374-2.003,0.374-3.072c0-1.567-0.288-2.728-0.864-3.482c-0.576-0.754-1.428-1.131-2.556-1.131
		c-0.808,0-1.535,0.22-2.182,0.659c-0.647,0.439-1.197,1.027-1.648,1.763c-0.451,0.736-0.801,1.597-1.051,2.583
		c-0.25,0.986-0.374,2.019-0.374,3.1C85.947,25.796,87.081,27.339,89.349,27.339z"/>
	<path fill="#1E91AD" d="M105.86,16.011c0.938-1.472,1.989-2.574,3.153-3.304c1.164-0.73,2.363-1.095,3.598-1.095
		c0.76,0,1.437,0.151,2.03,0.454s1.081,0.748,1.46,1.336s0.642,1.309,0.784,2.164c0.143,0.855,0.148,1.834,0.018,2.939l-1.372,11.56
		h-3.812l1.372-11.56c0.166-1.294,0.092-2.235-0.223-2.823c-0.315-0.588-0.882-0.882-1.701-0.882c-0.522,0-1.06,0.149-1.612,0.445
		c-0.552,0.297-1.081,0.716-1.585,1.256c-0.505,0.541-0.977,1.193-1.416,1.959c-0.439,0.766-0.801,1.618-1.086,2.556l-0.998,9.048
		h-3.812l2.173-18.204h1.924c0.416,0,0.733,0.104,0.953,0.312c0.22,0.208,0.33,0.531,0.33,0.971L105.86,16.011z"/>
	<path fill="#1E91AD" d="M134.412,26.698c-0.617,0.629-1.223,1.173-1.816,1.629c-0.594,0.458-1.2,0.834-1.817,1.131
		c-0.618,0.297-1.265,0.517-1.941,0.659c-0.677,0.143-1.414,0.214-2.209,0.214c-1.057,0-2.007-0.178-2.85-0.534
		c-0.843-0.356-1.564-0.858-2.164-1.505c-0.6-0.647-1.06-1.431-1.38-2.351c-0.321-0.92-0.481-1.95-0.481-3.09
		c0-0.95,0.101-1.885,0.303-2.805c0.202-0.92,0.496-1.796,0.882-2.627c0.386-0.831,0.855-1.6,1.407-2.307
		c0.552-0.707,1.182-1.315,1.888-1.826s1.484-0.911,2.333-1.203c0.849-0.291,1.76-0.436,2.734-0.436c0.938,0,1.751,0.133,2.44,0.4
		c0.688,0.268,1.261,0.612,1.719,1.033c0.457,0.422,0.798,0.888,1.024,1.398s0.338,1.009,0.338,1.496
		c0,0.795-0.163,1.526-0.49,2.191s-0.911,1.265-1.754,1.799s-1.998,0.998-3.464,1.389c-1.467,0.392-3.346,0.707-5.637,0.944
		c-0.012,0.071-0.018,0.146-0.018,0.223s0,0.157,0,0.24c0,1.508,0.327,2.645,0.98,3.411c0.653,0.766,1.632,1.148,2.938,1.148
		c0.819,0,1.502-0.112,2.048-0.338c0.546-0.225,1.012-0.472,1.398-0.739c0.386-0.267,0.724-0.513,1.015-0.739
		s0.597-0.338,0.917-0.338c0.25,0,0.481,0.119,0.694,0.356L134.412,26.698z M129.086,14.354c-0.665,0-1.279,0.137-1.843,0.41
		c-0.564,0.273-1.069,0.65-1.514,1.131s-0.831,1.054-1.158,1.719s-0.579,1.389-0.757,2.173c1.639-0.214,2.957-0.451,3.954-0.712
		s1.763-0.546,2.298-0.855c0.534-0.309,0.891-0.638,1.068-0.988c0.178-0.35,0.268-0.722,0.268-1.113c0-0.19-0.042-0.392-0.125-0.606
		c-0.083-0.213-0.217-0.403-0.401-0.57c-0.184-0.166-0.424-0.306-0.721-0.418S129.501,14.354,129.086,14.354z"/>
	<path fill="#1E91AD" d="M163.586,7.765h-7.267l-2.743,22.3h-3.99l2.726-22.3h-7.303l0.392-3.349h18.613L163.586,7.765z"/>
	<path fill="#1E91AD" d="M166.704,30.332c-0.997,0-1.917-0.169-2.761-0.507c-0.843-0.339-1.57-0.831-2.182-1.479
		c-0.612-0.647-1.09-1.443-1.434-2.387c-0.344-0.944-0.517-2.016-0.517-3.215c0-1.556,0.247-3.01,0.739-4.364
		c0.493-1.354,1.167-2.532,2.021-3.535c0.855-1.003,1.855-1.793,3.001-2.369c1.146-0.576,2.372-0.864,3.678-0.864
		c0.997,0,1.917,0.169,2.761,0.507c0.843,0.338,1.567,0.832,2.173,1.479c0.605,0.647,1.081,1.443,1.425,2.387
		s0.517,2.016,0.517,3.215c0,1.021-0.113,2.007-0.338,2.957s-0.541,1.837-0.944,2.663c-0.404,0.826-0.894,1.577-1.47,2.253
		c-0.576,0.677-1.211,1.255-1.906,1.736c-0.694,0.481-1.446,0.855-2.253,1.122C168.408,30.198,167.57,30.332,166.704,30.332z
		 M167.042,27.339c0.795,0,1.52-0.223,2.173-0.668c0.653-0.445,1.208-1.042,1.665-1.79s0.811-1.612,1.06-2.592
		c0.25-0.979,0.374-2.003,0.374-3.072c0-1.567-0.288-2.728-0.864-3.482c-0.576-0.754-1.428-1.131-2.556-1.131
		c-0.808,0-1.535,0.22-2.182,0.659c-0.647,0.439-1.197,1.027-1.648,1.763c-0.451,0.736-0.801,1.597-1.051,2.583
		c-0.25,0.986-0.374,2.019-0.374,3.1C163.64,25.796,164.774,27.339,167.042,27.339z"/>
	<path fill="#1E91AD" d="M195.185,12.538l-0.16,1.265c-0.071,0.522-0.338,0.861-0.802,1.015l-2.013,0.445
		c0.071,0.273,0.127,0.555,0.169,0.846c0.042,0.292,0.062,0.603,0.062,0.936c0,0.57-0.065,1.081-0.196,1.532
		c-0.131,0.451-0.291,0.87-0.481,1.255c-0.19,0.386-0.395,0.751-0.614,1.096c-0.22,0.344-0.422,0.688-0.606,1.033
		c-0.184,0.344-0.338,0.703-0.463,1.077s-0.187,0.781-0.187,1.22c0,0.487,0.11,0.935,0.33,1.345s0.463,0.832,0.73,1.265
		c0.268,0.434,0.511,0.899,0.73,1.398c0.22,0.499,0.33,1.075,0.33,1.728c-0.012,0.878-0.217,1.71-0.615,2.494
		s-0.968,1.472-1.709,2.066c-0.743,0.594-1.645,1.066-2.708,1.416c-1.063,0.35-2.265,0.526-3.607,0.526
		c-1.081,0-2.06-0.113-2.939-0.339s-1.627-0.54-2.244-0.944c-0.618-0.404-1.092-0.885-1.425-1.443s-0.499-1.175-0.499-1.852
		c0-0.796,0.169-1.494,0.508-2.093c0.338-0.6,0.792-1.11,1.363-1.532c0.57-0.421,1.229-0.763,1.977-1.024
		c0.748-0.261,1.534-0.451,2.36-0.57c0.825-0.119,1.659-0.169,2.502-0.151c0.843,0.018,1.645,0.086,2.405,0.205
		c-0.071-0.202-0.131-0.41-0.178-0.624c-0.048-0.213-0.071-0.439-0.071-0.677c0-0.356,0.05-0.727,0.151-1.113
		c0.101-0.386,0.264-0.804,0.49-1.255c-0.451,0.309-0.959,0.546-1.523,0.712s-1.226,0.249-1.986,0.249
		c-0.689,0-1.342-0.112-1.959-0.338c-0.617-0.225-1.158-0.563-1.621-1.015c-0.463-0.451-0.828-1.015-1.096-1.692
		c-0.267-0.677-0.4-1.472-0.4-2.387c0-0.867,0.16-1.722,0.481-2.565c0.32-0.843,0.798-1.591,1.434-2.244
		c0.635-0.653,1.419-1.182,2.351-1.585c0.932-0.403,2.004-0.605,3.215-0.605c0.665,0,1.292,0.077,1.879,0.231
		s1.125,0.386,1.612,0.695H195.185z M188.523,30.296c0-0.439-0.053-0.849-0.16-1.229c-1.496-0.249-2.776-0.353-3.838-0.312
		c-1.063,0.042-1.939,0.187-2.627,0.437c-0.688,0.249-1.193,0.573-1.514,0.971c-0.321,0.397-0.481,0.828-0.481,1.291
		c0,0.772,0.32,1.36,0.962,1.764c0.641,0.403,1.585,0.605,2.832,0.605c0.724,0,1.383-0.092,1.977-0.276
		c0.593-0.184,1.101-0.436,1.523-0.757c0.421-0.32,0.748-0.695,0.979-1.122S188.523,30.783,188.523,30.296z M185.335,21.693
		c0.582,0,1.095-0.13,1.541-0.392s0.819-0.605,1.122-1.033c0.303-0.427,0.534-0.911,0.695-1.452c0.16-0.54,0.246-1.083,0.258-1.63
		c0-0.961-0.238-1.692-0.712-2.19c-0.475-0.499-1.14-0.748-1.995-0.748c-0.582,0-1.093,0.122-1.532,0.365
		c-0.439,0.244-0.811,0.57-1.113,0.98s-0.532,0.879-0.686,1.407c-0.155,0.529-0.232,1.078-0.232,1.648
		c0,0.974,0.229,1.725,0.686,2.253C183.824,21.429,184.48,21.693,185.335,21.693z"/>
	<path fill="#1E91AD" d="M210.057,26.698c-0.617,0.629-1.223,1.173-1.816,1.629c-0.594,0.458-1.2,0.834-1.817,1.131
		c-0.618,0.297-1.265,0.517-1.941,0.659c-0.677,0.143-1.414,0.214-2.209,0.214c-1.057,0-2.007-0.178-2.85-0.534
		c-0.843-0.356-1.564-0.858-2.164-1.505c-0.6-0.647-1.06-1.431-1.38-2.351c-0.321-0.92-0.481-1.95-0.481-3.09
		c0-0.95,0.101-1.885,0.303-2.805c0.202-0.92,0.496-1.796,0.882-2.627c0.386-0.831,0.855-1.6,1.407-2.307
		c0.552-0.707,1.182-1.315,1.888-1.826s1.484-0.911,2.333-1.203c0.849-0.291,1.76-0.436,2.734-0.436c0.938,0,1.751,0.133,2.44,0.4
		c0.688,0.268,1.261,0.612,1.719,1.033c0.457,0.422,0.798,0.888,1.024,1.398s0.338,1.009,0.338,1.496
		c0,0.795-0.163,1.526-0.49,2.191s-0.911,1.265-1.754,1.799s-1.998,0.998-3.464,1.389c-1.467,0.392-3.346,0.707-5.637,0.944
		c-0.012,0.071-0.018,0.146-0.018,0.223s0,0.157,0,0.24c0,1.508,0.327,2.645,0.98,3.411c0.653,0.766,1.632,1.148,2.938,1.148
		c0.819,0,1.502-0.112,2.048-0.338c0.546-0.225,1.012-0.472,1.398-0.739c0.386-0.267,0.724-0.513,1.015-0.739
		s0.597-0.338,0.917-0.338c0.25,0,0.481,0.119,0.694,0.356L210.057,26.698z M204.731,14.354c-0.665,0-1.279,0.137-1.843,0.41
		c-0.564,0.273-1.069,0.65-1.514,1.131s-0.831,1.054-1.158,1.719s-0.579,1.389-0.757,2.173c1.639-0.214,2.957-0.451,3.954-0.712
		s1.763-0.546,2.298-0.855c0.534-0.309,0.891-0.638,1.068-0.988c0.178-0.35,0.268-0.722,0.268-1.113c0-0.19-0.042-0.392-0.125-0.606
		c-0.083-0.213-0.217-0.403-0.401-0.57c-0.184-0.166-0.424-0.306-0.721-0.418S205.147,14.354,204.731,14.354z"/>
	<path fill="#1E91AD" d="M213.94,26.484c0-0.083,0.003-0.181,0.009-0.294s0.018-0.276,0.036-0.49
		c0.018-0.214,0.044-0.499,0.08-0.855s0.089-0.813,0.161-1.372l1.051-8.567h-1.834c-0.202,0-0.362-0.068-0.481-0.205
		c-0.119-0.137-0.16-0.341-0.125-0.615l0.178-1.549l2.761-0.428l1.425-5.254c0.071-0.202,0.181-0.365,0.329-0.49
		s0.33-0.187,0.543-0.187h2.03l-0.748,5.967h4.578l-0.32,2.761h-4.596l-1.015,8.354c-0.06,0.487-0.107,0.876-0.143,1.167
		s-0.062,0.522-0.08,0.694c-0.018,0.172-0.03,0.292-0.036,0.356c-0.006,0.065-0.009,0.116-0.009,0.151
		c0,0.522,0.125,0.92,0.374,1.193c0.25,0.273,0.594,0.41,1.033,0.41c0.285,0,0.528-0.039,0.73-0.116s0.38-0.16,0.535-0.25
		c0.154-0.089,0.285-0.172,0.392-0.249s0.208-0.116,0.303-0.116c0.131,0,0.226,0.027,0.285,0.081
		c0.059,0.053,0.119,0.146,0.178,0.276l0.819,1.87c-0.63,0.523-1.327,0.923-2.093,1.202c-0.766,0.279-1.541,0.419-2.325,0.419
		c-1.223,0-2.191-0.335-2.903-1.006S213.976,27.719,213.94,26.484z"/>
	<path fill="#1E91AD" d="M230.896,15.406c0.914-1.259,1.912-2.206,2.992-2.841c1.08-0.635,2.191-0.953,3.331-0.953
		c0.772,0,1.458,0.151,2.057,0.454s1.089,0.748,1.47,1.336c0.38,0.588,0.641,1.309,0.784,2.164s0.143,1.834,0,2.939l-1.354,11.56
		h-3.812l1.354-11.56c0.166-1.294,0.095-2.241-0.214-2.841c-0.309-0.6-0.879-0.9-1.71-0.9c-0.499,0-1.013,0.14-1.541,0.419
		c-0.529,0.279-1.036,0.671-1.523,1.175c-0.487,0.505-0.947,1.116-1.38,1.834c-0.434,0.719-0.799,1.517-1.096,2.396l-1.14,9.476
		h-3.812l3.188-26.361h3.812L230.896,15.406z"/>
	<path fill="#1E91AD" d="M259.056,26.698c-0.617,0.629-1.223,1.173-1.816,1.629c-0.594,0.458-1.2,0.834-1.817,1.131
		c-0.618,0.297-1.265,0.517-1.941,0.659c-0.677,0.143-1.414,0.214-2.209,0.214c-1.057,0-2.007-0.178-2.85-0.534
		c-0.843-0.356-1.564-0.858-2.164-1.505c-0.6-0.647-1.06-1.431-1.38-2.351c-0.321-0.92-0.481-1.95-0.481-3.09
		c0-0.95,0.101-1.885,0.303-2.805c0.202-0.92,0.496-1.796,0.882-2.627c0.386-0.831,0.855-1.6,1.407-2.307
		c0.552-0.707,1.182-1.315,1.888-1.826s1.484-0.911,2.333-1.203c0.849-0.291,1.76-0.436,2.734-0.436c0.938,0,1.751,0.133,2.44,0.4
		c0.688,0.268,1.261,0.612,1.719,1.033c0.457,0.422,0.798,0.888,1.024,1.398s0.338,1.009,0.338,1.496
		c0,0.795-0.163,1.526-0.49,2.191s-0.911,1.265-1.754,1.799s-1.998,0.998-3.464,1.389c-1.467,0.392-3.346,0.707-5.637,0.944
		c-0.012,0.071-0.018,0.146-0.018,0.223s0,0.157,0,0.24c0,1.508,0.327,2.645,0.98,3.411c0.653,0.766,1.632,1.148,2.938,1.148
		c0.819,0,1.502-0.112,2.048-0.338c0.546-0.225,1.012-0.472,1.398-0.739c0.386-0.267,0.724-0.513,1.015-0.739
		s0.597-0.338,0.917-0.338c0.25,0,0.481,0.119,0.694,0.356L259.056,26.698z M253.73,14.354c-0.665,0-1.279,0.137-1.843,0.41
		c-0.564,0.273-1.069,0.65-1.514,1.131s-0.831,1.054-1.158,1.719s-0.579,1.389-0.757,2.173c1.639-0.214,2.957-0.451,3.954-0.712
		s1.763-0.546,2.298-0.855c0.534-0.309,0.891-0.638,1.068-0.988c0.178-0.35,0.268-0.722,0.268-1.113c0-0.19-0.042-0.392-0.125-0.606
		c-0.083-0.213-0.217-0.403-0.401-0.57c-0.184-0.166-0.424-0.306-0.721-0.418S254.146,14.354,253.73,14.354z"/>
	<path fill="#1E91AD" d="M266.786,16.581c0.463-0.962,0.965-1.787,1.505-2.476c0.541-0.688,1.104-1.229,1.692-1.621
		c0.588-0.392,1.193-0.624,1.817-0.694c0.623-0.071,1.25,0.03,1.879,0.303l-0.695,3.669c-1.508-0.605-2.829-0.413-3.963,0.579
		c-1.134,0.991-2.045,2.865-2.734,5.62l-0.962,8.104h-3.741l2.191-18.204h1.924c0.416,0,0.733,0.104,0.953,0.312
		c0.22,0.208,0.33,0.531,0.33,0.971L266.786,16.581z"/>
	<path fill="#1E91AD" d="M17.338,45.896l-2.191,18.168h-1.906c-0.926,0-1.39-0.451-1.39-1.354l0.178-2.617
		c-0.926,1.412-1.962,2.473-3.108,3.178c-1.146,0.707-2.325,1.061-3.536,1.061c-0.76,0-1.437-0.15-2.031-0.455
		c-0.594-0.303-1.081-0.748-1.46-1.334c-0.38-0.588-0.641-1.311-0.784-2.164c-0.143-0.855-0.148-1.836-0.018-2.939l1.371-11.543
		h3.812L4.905,57.439c-0.167,1.295-0.092,2.238,0.223,2.832c0.314,0.594,0.882,0.891,1.701,0.891c0.499,0,1.015-0.141,1.549-0.42
		c0.534-0.277,1.051-0.674,1.55-1.184c0.499-0.51,0.962-1.129,1.389-1.852c0.427-0.725,0.79-1.533,1.086-2.424l1.122-9.387H17.338z"
		/>
	<path fill="#1E91AD" d="M25.637,50.011c0.938-1.472,1.989-2.574,3.153-3.304c1.164-0.73,2.363-1.095,3.598-1.095
		c0.76,0,1.437,0.151,2.03,0.454s1.081,0.748,1.46,1.335s0.642,1.31,0.784,2.165c0.143,0.855,0.148,1.834,0.018,2.94l-1.372,11.559
		h-3.812l1.372-11.559c0.166-1.295,0.092-2.237-0.223-2.825c-0.315-0.588-0.882-0.881-1.701-0.881c-0.522,0-1.06,0.148-1.612,0.446
		c-0.552,0.297-1.081,0.715-1.585,1.256c-0.505,0.54-0.977,1.194-1.416,1.959s-0.801,1.617-1.086,2.557l-0.998,9.047h-3.812
		l2.173-18.204h1.924c0.416,0,0.733,0.104,0.953,0.312c0.22,0.208,0.33,0.531,0.33,0.971L25.637,50.011z"/>
	<path fill="#1E91AD" d="M58.304,37.704l-3.26,26.361h-2.013c-0.487,0-0.816-0.125-0.988-0.373c-0.172-0.25-0.258-0.559-0.258-0.926
		l0.231-3.1c-0.451,0.713-0.932,1.354-1.443,1.924c-0.511,0.568-1.048,1.059-1.612,1.469s-1.149,0.725-1.754,0.943
		c-0.605,0.221-1.229,0.33-1.87,0.33c-1.532,0-2.74-0.561-3.625-1.684c-0.885-1.121-1.327-2.799-1.327-5.031
		c0-1.01,0.104-2.006,0.312-2.992c0.208-0.986,0.501-1.924,0.882-2.814c0.38-0.891,0.84-1.713,1.38-2.467
		c0.54-0.754,1.137-1.407,1.79-1.959c0.653-0.552,1.356-0.985,2.111-1.3c0.754-0.314,1.541-0.472,2.36-0.472
		c0.855,0,1.632,0.16,2.333,0.481c0.7,0.32,1.3,0.771,1.799,1.354l1.211-9.743H58.304z M53.031,49.994
		c-0.427-0.523-0.929-0.889-1.505-1.096c-0.576-0.207-1.149-0.312-1.719-0.312c-0.855,0-1.63,0.259-2.325,0.775
		c-0.694,0.518-1.289,1.188-1.781,2.014c-0.493,0.824-0.873,1.75-1.14,2.777s-0.401,2.053-0.401,3.072
		c0,1.342,0.231,2.352,0.695,3.029c0.463,0.676,1.11,1.014,1.941,1.014c0.522,0,1.057-0.172,1.603-0.516
		c0.546-0.344,1.069-0.818,1.567-1.426c0.499-0.605,0.965-1.322,1.398-2.154c0.433-0.83,0.804-1.734,1.113-2.707L53.031,49.994z"/>
	<path fill="#1E91AD" d="M75.01,60.699c-0.617,0.629-1.223,1.172-1.816,1.629c-0.594,0.457-1.2,0.834-1.817,1.131
		c-0.618,0.297-1.265,0.518-1.941,0.66s-1.414,0.213-2.209,0.213c-1.057,0-2.007-0.178-2.85-0.535
		c-0.843-0.355-1.564-0.857-2.164-1.504s-1.06-1.432-1.38-2.352c-0.321-0.92-0.481-1.951-0.481-3.09
		c0-0.949,0.101-1.885,0.303-2.805c0.202-0.922,0.496-1.797,0.882-2.629c0.386-0.831,0.855-1.6,1.407-2.307
		c0.552-0.706,1.182-1.314,1.888-1.825s1.484-0.911,2.333-1.203c0.849-0.291,1.76-0.436,2.734-0.436c0.938,0,1.751,0.133,2.44,0.4
		c0.688,0.268,1.261,0.611,1.719,1.033c0.457,0.422,0.798,0.888,1.024,1.398s0.338,1.01,0.338,1.497c0,0.795-0.163,1.526-0.49,2.19
		c-0.327,0.666-0.911,1.266-1.754,1.799c-0.843,0.535-1.998,0.998-3.464,1.391c-1.467,0.391-3.346,0.707-5.637,0.943
		c-0.012,0.072-0.018,0.146-0.018,0.223c0,0.078,0,0.158,0,0.24c0,1.508,0.327,2.645,0.98,3.412
		c0.653,0.766,1.632,1.148,2.938,1.148c0.819,0,1.502-0.113,2.048-0.338c0.546-0.227,1.012-0.473,1.398-0.74
		c0.386-0.268,0.724-0.514,1.015-0.738c0.291-0.227,0.597-0.34,0.917-0.34c0.25,0,0.481,0.119,0.694,0.357L75.01,60.699z
		 M69.685,48.354c-0.665,0-1.279,0.137-1.843,0.41s-1.069,0.649-1.514,1.131c-0.445,0.48-0.831,1.053-1.158,1.719
		c-0.327,0.664-0.579,1.389-0.757,2.172c1.639-0.213,2.957-0.451,3.954-0.711c0.998-0.262,1.763-0.547,2.298-0.855
		c0.534-0.309,0.891-0.639,1.068-0.988C71.911,50.881,72,50.509,72,50.119c0-0.191-0.042-0.393-0.125-0.605
		c-0.083-0.215-0.217-0.404-0.401-0.571c-0.184-0.166-0.424-0.306-0.721-0.419C70.457,48.411,70.1,48.354,69.685,48.354z"/>
	<path fill="#1E91AD" d="M83.631,50.582c0.463-0.963,0.965-1.788,1.505-2.476c0.541-0.688,1.104-1.229,1.692-1.621
		s1.193-0.624,1.817-0.694c0.623-0.071,1.25,0.03,1.879,0.303l-0.695,3.668c-1.508-0.605-2.829-0.412-3.963,0.58
		c-1.134,0.991-2.045,2.864-2.734,5.62l-0.962,8.104H78.43l2.191-18.204h1.924c0.416,0,0.733,0.104,0.953,0.312
		c0.22,0.208,0.33,0.531,0.33,0.971L83.631,50.582z"/>
	<path fill="#1E91AD" d="M125.007,49.458c0,1.426-0.158,2.782-0.472,4.071c-0.315,1.289-0.763,2.484-1.345,3.59
		c-0.582,1.104-1.289,2.102-2.12,2.992c-0.832,0.891-1.761,1.65-2.788,2.279c-1.027,0.629-2.141,1.113-3.34,1.451
		c-1.199,0.34-2.458,0.508-3.776,0.508c-1.639,0-3.111-0.291-4.417-0.873c-1.307-0.582-2.42-1.383-3.34-2.404
		c-0.92-1.021-1.624-2.227-2.111-3.615s-0.73-2.896-0.73-4.523c0-1.426,0.157-2.784,0.472-4.071
		c0.314-1.288,0.766-2.485,1.354-3.589c0.587-1.104,1.294-2.102,2.12-2.993c0.825-0.891,1.751-1.653,2.778-2.289
		c1.027-0.635,2.14-1.122,3.34-1.46c1.199-0.338,2.464-0.508,3.794-0.508c1.639,0,3.111,0.291,4.417,0.873
		c1.306,0.582,2.417,1.383,3.331,2.404c0.914,1.021,1.615,2.229,2.102,3.625C124.763,46.321,125.007,47.832,125.007,49.458z
		 M120.269,49.566c0-1.164-0.146-2.22-0.436-3.17c-0.291-0.95-0.712-1.764-1.265-2.44s-1.227-1.199-2.022-1.567
		c-0.795-0.368-1.692-0.552-2.689-0.552c-1.282,0-2.449,0.262-3.5,0.784c-1.051,0.523-1.95,1.265-2.698,2.227
		s-1.327,2.12-1.737,3.474c-0.41,1.354-0.614,2.856-0.614,4.507c0,1.164,0.143,2.221,0.427,3.17
		c0.285,0.951,0.701,1.762,1.247,2.432c0.546,0.67,1.214,1.188,2.004,1.549c0.79,0.363,1.689,0.543,2.698,0.543
		c1.294,0,2.47-0.26,3.527-0.783c1.057-0.521,1.959-1.258,2.707-2.209c0.748-0.949,1.327-2.098,1.737-3.445
		S120.269,51.229,120.269,49.566z"/>
	<path fill="#1E91AD" d="M151.528,38.309l-3.171,25.755h-2.387c-0.356,0-0.65-0.062-0.881-0.188
		c-0.231-0.123-0.448-0.328-0.65-0.613l-9.974-17.599c-0.024,0.297-0.048,0.579-0.071,0.846c-0.024,0.268-0.048,0.52-0.071,0.758
		l-2.031,16.796h-4.079l3.17-25.755h2.422c0.202,0,0.371,0.009,0.508,0.027c0.136,0.018,0.258,0.053,0.365,0.106
		c0.107,0.054,0.202,0.128,0.285,0.223c0.083,0.095,0.172,0.226,0.267,0.392l10.028,17.58c0.024-0.355,0.05-0.697,0.08-1.023
		s0.062-0.627,0.098-0.898l2.013-16.406H151.528z"/>
	<path fill="#1E91AD" d="M162.037,41.996l-0.909,7.32h8.14l-0.445,3.545h-8.14l-0.926,7.518h10.402l-0.463,3.686h-15.033
		l3.17-25.755h15.015l-0.463,3.687H162.037z"/>
	<path fill="#1E91AD" d="M188.309,50.582c0.463-0.963,0.965-1.788,1.505-2.476c0.541-0.688,1.104-1.229,1.692-1.621
		s1.193-0.624,1.817-0.694c0.623-0.071,1.25,0.03,1.879,0.303l-0.695,3.668c-1.508-0.605-2.829-0.412-3.963,0.58
		c-1.134,0.991-2.045,2.864-2.734,5.62l-0.962,8.104h-3.741l2.191-18.204h1.924c0.416,0,0.733,0.104,0.953,0.312
		c0.22,0.208,0.33,0.531,0.33,0.971L188.309,50.582z"/>
	<path fill="#1E91AD" d="M202.789,64.332c-0.997,0-1.917-0.17-2.761-0.508s-1.57-0.83-2.182-1.479
		c-0.612-0.646-1.09-1.441-1.434-2.387c-0.344-0.943-0.517-2.016-0.517-3.215c0-1.555,0.247-3.01,0.739-4.363
		s1.167-2.534,2.021-3.536c0.855-1.004,1.855-1.793,3.001-2.369c1.146-0.576,2.372-0.864,3.678-0.864
		c0.997,0,1.917,0.169,2.761,0.507c0.843,0.339,1.567,0.831,2.173,1.479s1.081,1.442,1.425,2.386
		c0.344,0.946,0.517,2.016,0.517,3.215c0,1.021-0.113,2.008-0.338,2.957c-0.226,0.951-0.541,1.838-0.944,2.664
		c-0.404,0.824-0.894,1.576-1.47,2.252c-0.576,0.678-1.211,1.256-1.906,1.736c-0.694,0.482-1.446,0.855-2.253,1.123
		C204.493,64.199,203.655,64.332,202.789,64.332z M203.127,61.34c0.795,0,1.52-0.223,2.173-0.668
		c0.653-0.445,1.208-1.043,1.665-1.791s0.811-1.611,1.06-2.59c0.25-0.98,0.374-2.004,0.374-3.074c0-1.566-0.288-2.727-0.864-3.481
		c-0.576-0.754-1.428-1.131-2.556-1.131c-0.808,0-1.535,0.22-2.182,0.659c-0.647,0.439-1.197,1.027-1.648,1.764
		c-0.451,0.736-0.801,1.598-1.051,2.582c-0.25,0.986-0.374,2.02-0.374,3.1C199.725,59.797,200.859,61.34,203.127,61.34z"/>
	<path fill="#1E91AD" d="M222.239,64.332c-0.997,0-1.917-0.17-2.761-0.508s-1.57-0.83-2.182-1.479
		c-0.612-0.646-1.09-1.441-1.434-2.387c-0.344-0.943-0.517-2.016-0.517-3.215c0-1.555,0.247-3.01,0.739-4.363
		s1.167-2.534,2.021-3.536c0.855-1.004,1.855-1.793,3.001-2.369c1.146-0.576,2.372-0.864,3.678-0.864
		c0.997,0,1.917,0.169,2.761,0.507c0.843,0.339,1.567,0.831,2.173,1.479s1.081,1.442,1.425,2.386
		c0.344,0.946,0.517,2.016,0.517,3.215c0,1.021-0.113,2.008-0.338,2.957c-0.226,0.951-0.541,1.838-0.944,2.664
		c-0.404,0.824-0.894,1.576-1.47,2.252c-0.576,0.678-1.211,1.256-1.906,1.736c-0.694,0.482-1.446,0.855-2.253,1.123
		C223.943,64.199,223.105,64.332,222.239,64.332z M222.577,61.34c0.795,0,1.52-0.223,2.173-0.668
		c0.653-0.445,1.208-1.043,1.665-1.791s0.811-1.611,1.06-2.59c0.25-0.98,0.374-2.004,0.374-3.074c0-1.566-0.288-2.727-0.864-3.481
		c-0.576-0.754-1.428-1.131-2.556-1.131c-0.808,0-1.535,0.22-2.182,0.659c-0.647,0.439-1.197,1.027-1.648,1.764
		c-0.451,0.736-0.801,1.598-1.051,2.582c-0.25,0.986-0.374,2.02-0.374,3.1C219.175,59.797,220.309,61.34,222.577,61.34z"/>
	<path fill="#1E91AD" d="M240.977,48.889l-1.746,14.5l-0.873,3.49c-0.166,0.51-0.398,0.906-0.694,1.186
		c-0.297,0.277-0.719,0.418-1.265,0.418h-1.532l2.369-19.558l-1.585-0.25c-0.25-0.059-0.448-0.163-0.597-0.312
		c-0.149-0.148-0.205-0.371-0.169-0.668l0.196-1.549h2.494l0.196-1.532c0.13-1.033,0.397-1.959,0.801-2.779s0.915-1.514,1.532-2.083
		c0.617-0.57,1.327-1.006,2.128-1.31c0.802-0.303,1.666-0.454,2.592-0.454c0.736,0,1.425,0.119,2.066,0.356l-0.356,1.995
		c-0.024,0.131-0.078,0.229-0.16,0.294c-0.083,0.065-0.193,0.11-0.33,0.134c-0.137,0.024-0.288,0.036-0.454,0.036
		c-0.167,0-0.339,0-0.517,0c-0.499,0-0.953,0.071-1.363,0.213c-0.41,0.143-0.775,0.369-1.095,0.677
		c-0.321,0.309-0.588,0.712-0.802,1.211c-0.214,0.499-0.362,1.11-0.445,1.834l-0.178,1.407h4.293l-0.356,2.743H240.977z"/>
	<path fill="#1E91AD" d="M247.175,61.855c0-0.344,0.062-0.668,0.187-0.971c0.125-0.303,0.299-0.566,0.525-0.791
		c0.225-0.227,0.487-0.404,0.784-0.535c0.296-0.131,0.623-0.195,0.979-0.195c0.344,0,0.668,0.064,0.971,0.195
		s0.564,0.309,0.784,0.535c0.22,0.225,0.395,0.488,0.525,0.791c0.13,0.303,0.196,0.627,0.196,0.971c0,0.357-0.065,0.684-0.196,0.98
		c-0.131,0.297-0.306,0.559-0.525,0.783c-0.22,0.227-0.481,0.4-0.784,0.525s-0.626,0.188-0.971,0.188
		c-0.356,0-0.683-0.062-0.979-0.188c-0.297-0.125-0.559-0.299-0.784-0.525c-0.226-0.225-0.401-0.486-0.525-0.783
		C247.237,62.539,247.175,62.213,247.175,61.855z M254.014,38.416l-1.247,10.206c-0.06,0.534-0.134,1.059-0.223,1.577
		c-0.089,0.516-0.187,1.036-0.294,1.559c-0.107,0.521-0.226,1.057-0.356,1.602c-0.131,0.547-0.267,1.123-0.41,1.729h-2.494
		c0-0.605,0.003-1.182,0.009-1.729c0.005-0.545,0.021-1.08,0.044-1.602c0.023-0.523,0.056-1.043,0.098-1.559
		c0.042-0.518,0.098-1.043,0.169-1.577l1.247-10.206H254.014z"/>
</g>
<g>
	<path fill="#1E91AD" d="M365.263,68.874h-1.988c-0.518,0-0.857-0.259-1.019-0.775l-5.479-21.672h-31.95l-10.812,21.672
		c-0.162,0.227-0.348,0.412-0.558,0.558c-0.21,0.146-0.444,0.218-0.703,0.218h-1.939l34.326-68.167h2.521L365.263,68.874z
		 M356.293,44.438l-9.6-38.059c-0.097-0.453-0.202-0.913-0.315-1.382c-0.114-0.468-0.218-0.961-0.315-1.479
		c-0.227,0.518-0.444,1.011-0.654,1.479c-0.21,0.469-0.429,0.929-0.655,1.382l-18.957,38.059H356.293z"/>
	<path fill="#1E91AD" d="M411.126,66.596l-0.291,2.278h-33.647l8.388-68.167h2.618l-8.097,65.889H411.126z"/>
	<path fill="#1E91AD" d="M455.924,66.596l-0.291,2.278h-33.647l8.388-68.167h2.618l-8.097,65.889H455.924z"/>
	<path fill="#1E91AD" d="M491.703,68.874h-2.619l8.389-68.167h2.617L491.703,68.874z"/>
	<path fill="#1E91AD" d="M567.676,0.707l-8.389,68.167h-0.969c-0.453,0-0.842-0.242-1.164-0.728L522.148,4.876l-0.145,1.6
		l-7.611,62.398h-2.279l8.389-68.167h1.162c0.26,0,0.453,0.033,0.582,0.097c0.129,0.065,0.275,0.227,0.438,0.485l35.004,63.173
		c0-0.291,0.008-0.565,0.023-0.824c0.018-0.258,0.041-0.517,0.074-0.775l7.611-62.156H567.676z"/>
	<path fill="#1E91AD" d="M605.104,67.42c2.488,0,4.734-0.21,6.738-0.631c2.004-0.42,3.773-0.953,5.309-1.6s2.877-1.341,4.023-2.085
		c1.148-0.743,2.109-1.438,2.885-2.085c0.777-0.646,1.398-1.18,1.867-1.6s0.801-0.631,0.994-0.631c0.129,0,0.258,0.065,0.389,0.194
		l0.92,1.066c-1.486,1.423-3.062,2.724-4.727,3.903c-1.666,1.18-3.451,2.189-5.357,3.03c-1.908,0.841-3.969,1.495-6.182,1.963
		c-2.215,0.469-4.613,0.703-7.199,0.703c-3.848,0-7.338-0.703-10.473-2.108c-3.135-1.406-5.811-3.395-8.023-5.964
		c-2.215-2.569-3.928-5.673-5.141-9.309c-1.211-3.636-1.818-7.685-1.818-12.145c0-5.979,0.889-11.434,2.668-16.363
		c1.777-4.928,4.234-9.163,7.369-12.703c3.135-3.539,6.836-6.278,11.102-8.218c4.268-1.939,8.873-2.909,13.818-2.909
		c2.295,0,4.348,0.169,6.158,0.509c1.809,0.339,3.473,0.857,4.994,1.551c1.518,0.696,2.932,1.552,4.242,2.57
		c1.309,1.018,2.594,2.206,3.854,3.563l-0.727,0.921c-0.227,0.227-0.518,0.339-0.873,0.339c-0.227,0-0.51-0.177-0.85-0.533
		c-0.338-0.355-0.807-0.8-1.404-1.333c-0.6-0.533-1.334-1.115-2.207-1.746c-0.873-0.63-1.939-1.212-3.199-1.745
		c-1.262-0.533-2.725-0.978-4.389-1.333c-1.664-0.355-3.596-0.533-5.793-0.533c-4.525,0-8.736,0.881-12.631,2.643
		s-7.289,4.283-10.182,7.563c-2.893,3.281-5.162,7.257-6.811,11.927c-1.648,4.671-2.473,9.899-2.473,15.684
		c0,4.235,0.564,8.041,1.697,11.417c1.131,3.378,2.715,6.255,4.75,8.63c2.037,2.376,4.477,4.202,7.322,5.479
		C598.59,66.781,601.709,67.42,605.104,67.42z"/>
	<path fill="#1E91AD" d="M674.869,66.596l-0.291,2.278h-33.646l8.387-68.167h2.617l-8.096,65.889H674.869z"/>
	<path fill="#1E91AD" d="M705.268,67.42c3.199,0,6.141-0.622,8.822-1.867c2.684-1.244,5.043-2.957,7.08-5.139
		c2.035-2.182,3.709-4.735,5.018-7.661c1.309-2.924,2.174-6.067,2.594-9.43l5.188-42.617h2.666l-5.236,42.617
		c-0.484,3.653-1.463,7.087-2.932,10.303c-1.473,3.217-3.355,6.021-5.648,8.412c-2.297,2.393-4.955,4.274-7.977,5.648
		c-3.021,1.373-6.326,2.061-9.914,2.061c-3.557,0-6.684-0.688-9.383-2.061c-2.697-1.374-4.904-3.256-6.617-5.648
		c-1.713-2.392-2.908-5.195-3.588-8.412c-0.678-3.216-0.793-6.65-0.34-10.303l5.236-42.617h2.619l-5.236,42.52
		c-0.389,3.362-0.299,6.513,0.266,9.454c0.566,2.941,1.602,5.503,3.104,7.685c1.504,2.182,3.449,3.903,5.842,5.163
		C699.223,66.789,702.035,67.42,705.268,67.42z"/>
	<path fill="#1E91AD" d="M784.924,7.737c-0.193,0.323-0.469,0.485-0.824,0.485c-0.324,0-0.744-0.315-1.26-0.945
		c-0.518-0.63-1.254-1.333-2.207-2.109c-0.953-0.775-2.205-1.479-3.758-2.109c-1.551-0.63-3.523-0.945-5.914-0.945
		c-2.65,0-5.027,0.444-7.127,1.333c-2.102,0.89-3.879,2.085-5.334,3.588c-1.453,1.503-2.568,3.257-3.346,5.26
		c-0.775,2.005-1.162,4.138-1.162,6.4c0,2.133,0.402,3.919,1.211,5.357c0.809,1.438,1.883,2.667,3.225,3.685
		c1.34,1.019,2.861,1.883,4.557,2.594c1.697,0.711,3.443,1.406,5.236,2.084c1.795,0.679,3.539,1.406,5.236,2.182
		c1.697,0.776,3.217,1.721,4.559,2.836c1.34,1.115,2.416,2.465,3.223,4.048c0.809,1.584,1.213,3.523,1.213,5.818
		c0,3.006-0.518,5.866-1.551,8.582c-1.035,2.715-2.514,5.091-4.438,7.127s-4.258,3.652-7.006,4.848
		c-2.746,1.196-5.834,1.794-9.26,1.794c-2.102,0-3.984-0.202-5.648-0.605c-1.664-0.404-3.176-0.985-4.533-1.746
		c-1.357-0.759-2.586-1.688-3.684-2.787c-1.1-1.099-2.119-2.344-3.055-3.733l0.824-0.97c0.16-0.129,0.297-0.234,0.412-0.315
		c0.111-0.08,0.281-0.121,0.508-0.121s0.502,0.202,0.824,0.606c0.324,0.404,0.736,0.905,1.236,1.503
		c0.502,0.599,1.131,1.244,1.891,1.939s1.674,1.342,2.74,1.939s2.318,1.099,3.758,1.503c1.438,0.404,3.109,0.605,5.018,0.605
		c2.973,0,5.664-0.517,8.072-1.551s4.461-2.44,6.158-4.219c1.695-1.777,2.996-3.87,3.902-6.278c0.904-2.407,1.357-4.97,1.357-7.685
		c0-2.133-0.404-3.911-1.213-5.333c-0.807-1.422-1.883-2.634-3.223-3.636c-1.342-1.001-2.861-1.85-4.559-2.545
		c-1.697-0.695-3.441-1.374-5.236-2.037c-1.793-0.662-3.539-1.373-5.236-2.133c-1.695-0.759-3.217-1.697-4.557-2.812
		c-1.342-1.115-2.416-2.48-3.225-4.097c-0.809-1.616-1.211-3.62-1.211-6.012c0-2.521,0.443-4.937,1.332-7.249
		c0.889-2.311,2.174-4.355,3.855-6.133c1.68-1.777,3.748-3.192,6.205-4.242s5.236-1.576,8.34-1.576c3.135,0,5.865,0.565,8.193,1.697
		c2.326,1.132,4.363,2.86,6.109,5.188L784.924,7.737z"/>
	<path fill="#1E91AD" d="M798.305,68.874h-2.617l8.387-68.167h2.617L798.305,68.874z"/>
	<path fill="#1E91AD" d="M872.822,0.707l-34.326,68.167h-2.328L818.473,0.707h2.037c0.549,0,0.855,0.259,0.92,0.776l15.66,61.234
		c0.129,0.453,0.25,0.938,0.363,1.454c0.113,0.518,0.201,1.051,0.268,1.601c0.225-0.55,0.443-1.083,0.654-1.601
		c0.209-0.517,0.443-1.001,0.703-1.454L869.67,1.482c0.227-0.517,0.631-0.776,1.213-0.776H872.822z"/>
	<path fill="#1E91AD" d="M886.979,2.937l-3.686,30.253h28.994l-0.291,2.182h-28.992l-3.832,31.271h34.521l-0.291,2.23h-37.139
		l8.389-68.167h37.088l-0.338,2.23H886.979z"/>
	<path fill="#1E91AD" d="M926.637,66.014c0-1.034,0.348-1.915,1.043-2.643s1.559-1.091,2.594-1.091c1.033,0,1.916,0.363,2.643,1.091
		s1.09,1.608,1.09,2.643s-0.363,1.899-1.09,2.594s-1.609,1.042-2.643,1.042c-1.035,0-1.898-0.348-2.594-1.042
		S926.637,67.048,926.637,66.014z M939,0.707l-3.393,27.732c-0.195,1.455-0.381,2.812-0.559,4.073
		c-0.178,1.26-0.363,2.545-0.557,3.854c-0.195,1.309-0.412,2.708-0.654,4.194c-0.244,1.487-0.51,3.168-0.801,5.042h-1.697
		c0.162-1.874,0.316-3.555,0.461-5.042c0.145-1.486,0.273-2.885,0.389-4.194c0.111-1.309,0.242-2.594,0.387-3.854
		c0.146-1.261,0.299-2.618,0.461-4.073l3.395-27.732H939z"/>
</g>
</svg>
