<?xml version="1.0" encoding="utf-8"?>
<!-- Generator: Adobe Illustrator 16.0.0, SVG Export Plug-In . SVG Version: 6.00 Build 0)  -->
<!DOCTYPE svg PUBLIC "-//W3C//DTD SVG 1.1//EN" "http://www.w3.org/Graphics/SVG/1.1/DTD/svg11.dtd">
<svg version="1.1" id="Layer_1" xmlns="http://www.w3.org/2000/svg" xmlns:xlink="http://www.w3.org/1999/xlink" x="0px" y="0px"
	 width="940px" height="147px" viewBox="0 0 940 147" enable-background="new 0 0 940 147" xml:space="preserve">
<g>
	<g>
		<path fill="#1E91AD" d="M36.473,138.608h-3.73c-0.429,0-0.762-0.104-0.997-0.312c-0.236-0.207-0.404-0.482-0.504-0.825
			l-1.458-6.925H17.755l-3.173,6.925c-0.144,0.3-0.368,0.565-0.676,0.793c-0.308,0.229-0.661,0.344-1.062,0.344H9.071l15.03-30.875
			h4.91L36.473,138.608z M29.054,127.073l-2.443-11.557c-0.072-0.443-0.161-0.951-0.269-1.522s-0.211-1.201-0.311-1.887
			c-0.243,0.686-0.486,1.318-0.729,1.897s-0.465,1.097-0.664,1.555l-5.274,11.514H29.054z"/>
		<path fill="#1E91AD" d="M39.26,138.608l3.838-31.732h4.545l-3.859,31.732H39.26z"/>
		<path fill="#1E91AD" d="M49.229,138.608l3.838-31.732h4.545l-3.859,31.732H49.229z"/>
		<path fill="#1E91AD" d="M70.349,134.299c0-0.101,0.004-0.218,0.011-0.354c0.008-0.135,0.021-0.332,0.043-0.589
			c0.021-0.258,0.054-0.601,0.097-1.029s0.107-0.979,0.193-1.651l1.265-10.312h-2.208c-0.243,0-0.437-0.082-0.579-0.247
			c-0.144-0.164-0.193-0.41-0.15-0.739l0.215-1.865l3.323-0.515l1.715-6.325c0.086-0.243,0.218-0.439,0.396-0.59
			s0.397-0.225,0.654-0.225h2.444l-0.9,7.183h5.51l-0.386,3.323H76.46l-1.223,10.056c-0.071,0.586-0.129,1.054-0.171,1.404
			c-0.043,0.351-0.075,0.629-0.097,0.836s-0.036,0.351-0.043,0.429c-0.008,0.079-0.011,0.14-0.011,0.183
			c0,0.629,0.15,1.107,0.45,1.437s0.715,0.493,1.243,0.493c0.344,0,0.636-0.047,0.88-0.14c0.242-0.093,0.457-0.192,0.643-0.3
			s0.343-0.207,0.472-0.301c0.129-0.093,0.25-0.139,0.364-0.139c0.157,0,0.271,0.032,0.344,0.096
			c0.071,0.064,0.143,0.176,0.214,0.333L80.512,137c-0.758,0.629-1.597,1.111-2.52,1.447c-0.922,0.336-1.854,0.504-2.798,0.504
			c-1.472,0-2.637-0.403-3.494-1.211C70.842,136.933,70.392,135.785,70.349,134.299z"/>
		<path fill="#1E91AD" d="M90.761,120.962c1.101-1.515,2.301-2.654,3.602-3.419s2.638-1.147,4.01-1.147
			c0.929,0,1.754,0.183,2.477,0.547c0.722,0.364,1.311,0.9,1.769,1.607c0.457,0.708,0.771,1.576,0.943,2.605s0.172,2.208,0,3.538
			l-1.63,13.915h-4.588l1.63-13.915c0.199-1.559,0.113-2.698-0.258-3.42c-0.372-0.722-1.058-1.083-2.059-1.083
			c-0.6,0-1.219,0.168-1.854,0.504s-1.247,0.808-1.833,1.415s-1.14,1.344-1.662,2.208c-0.521,0.865-0.961,1.826-1.318,2.884
			l-1.372,11.407h-4.588l3.838-31.732h4.588L90.761,120.962z"/>
		<path fill="#1E91AD" d="M124.657,134.556c-0.743,0.758-1.472,1.412-2.187,1.962c-0.715,0.551-1.444,1.005-2.188,1.361
			c-0.743,0.357-1.521,0.622-2.337,0.794c-0.814,0.171-1.701,0.257-2.658,0.257c-1.272,0-2.416-0.214-3.431-0.644
			c-1.016-0.429-1.884-1.032-2.605-1.812c-0.722-0.778-1.275-1.722-1.661-2.83c-0.386-1.107-0.579-2.348-0.579-3.72
			c0-1.144,0.121-2.27,0.364-3.377s0.597-2.162,1.062-3.163c0.465-1,1.029-1.926,1.694-2.776c0.664-0.851,1.422-1.583,2.272-2.197
			c0.85-0.614,1.786-1.097,2.809-1.447c1.021-0.351,2.119-0.525,3.291-0.525c1.129,0,2.108,0.16,2.938,0.482
			c0.829,0.321,1.519,0.736,2.069,1.243c0.55,0.508,0.961,1.069,1.232,1.684s0.407,1.215,0.407,1.801
			c0,0.958-0.196,1.837-0.589,2.638c-0.394,0.8-1.098,1.521-2.112,2.165c-1.016,0.644-2.405,1.201-4.17,1.673
			c-1.766,0.472-4.028,0.851-6.786,1.136c-0.015,0.086-0.021,0.176-0.021,0.269s0,0.189,0,0.289c0,1.815,0.393,3.184,1.179,4.105
			c0.786,0.923,1.966,1.384,3.538,1.384c0.986,0,1.808-0.136,2.466-0.408c0.657-0.271,1.219-0.567,1.683-0.89
			c0.465-0.321,0.872-0.618,1.223-0.89c0.35-0.271,0.718-0.407,1.104-0.407c0.301,0,0.579,0.143,0.837,0.429L124.657,134.556z
			 M118.247,119.697c-0.801,0-1.541,0.164-2.22,0.493s-1.286,0.782-1.822,1.361s-1.001,1.269-1.394,2.069
			c-0.394,0.801-0.697,1.672-0.911,2.615c1.973-0.257,3.559-0.543,4.76-0.857c1.2-0.314,2.123-0.657,2.766-1.029
			c0.644-0.371,1.072-0.768,1.287-1.189c0.214-0.422,0.321-0.868,0.321-1.34c0-0.229-0.051-0.472-0.15-0.729
			c-0.1-0.257-0.261-0.485-0.482-0.686s-0.511-0.368-0.868-0.504S118.747,119.697,118.247,119.697z"/>
		<path fill="#1E91AD" d="M144.769,116.738l-2.637,21.87h-4.524l2.616-21.87H144.769z M146.141,110.135
			c0,0.415-0.085,0.808-0.257,1.179c-0.172,0.372-0.4,0.697-0.687,0.976c-0.286,0.279-0.607,0.501-0.965,0.665
			c-0.357,0.165-0.729,0.247-1.114,0.247c-0.387,0-0.755-0.082-1.104-0.247c-0.351-0.164-0.657-0.386-0.922-0.665
			c-0.265-0.278-0.479-0.604-0.644-0.976c-0.164-0.371-0.246-0.764-0.246-1.179c0-0.414,0.082-0.812,0.246-1.19
			c0.164-0.378,0.383-0.707,0.654-0.986c0.271-0.278,0.586-0.5,0.943-0.664s0.722-0.247,1.094-0.247
			c0.386,0,0.761,0.083,1.125,0.247c0.365,0.164,0.687,0.386,0.965,0.664c0.279,0.279,0.5,0.604,0.665,0.976
			C146.059,109.306,146.141,109.706,146.141,110.135z"/>
		<path fill="#1E91AD" d="M153.881,121.691c1.129-1.772,2.394-3.099,3.795-3.978c1.4-0.879,2.844-1.318,4.331-1.318
			c0.914,0,1.729,0.183,2.444,0.547c0.714,0.364,1.3,0.9,1.758,1.607c0.457,0.708,0.771,1.576,0.943,2.605s0.179,2.208,0.021,3.538
			l-1.651,13.915h-4.588l1.65-13.915c0.2-1.559,0.111-2.691-0.268-3.398c-0.379-0.708-1.062-1.062-2.048-1.062
			c-0.629,0-1.275,0.179-1.94,0.536c-0.664,0.357-1.301,0.861-1.908,1.512s-1.176,1.437-1.704,2.358
			c-0.529,0.922-0.965,1.947-1.309,3.076l-1.2,10.893h-4.588l2.615-21.913h2.315c0.5,0,0.883,0.126,1.147,0.376
			s0.396,0.64,0.396,1.168L153.881,121.691z"/>
		<path fill="#1E91AD" d="M191.017,117.511l-0.193,1.521c-0.086,0.63-0.407,1.037-0.965,1.223l-2.423,0.536
			c0.086,0.329,0.153,0.668,0.204,1.019c0.05,0.35,0.074,0.726,0.074,1.125c0,0.687-0.078,1.301-0.235,1.844
			c-0.157,0.544-0.351,1.048-0.579,1.512c-0.229,0.465-0.476,0.904-0.739,1.319c-0.265,0.414-0.508,0.829-0.729,1.243
			c-0.222,0.415-0.407,0.847-0.558,1.297c-0.149,0.45-0.225,0.94-0.225,1.469c0,0.587,0.132,1.126,0.396,1.619
			s0.558,1.001,0.879,1.522c0.322,0.521,0.614,1.082,0.879,1.683s0.397,1.294,0.397,2.08c-0.015,1.058-0.262,2.059-0.74,3.002
			s-1.165,1.771-2.059,2.487c-0.894,0.714-1.979,1.282-3.259,1.704s-2.727,0.633-4.342,0.633c-1.301,0-2.479-0.137-3.538-0.407
			c-1.058-0.272-1.958-0.651-2.701-1.137c-0.743-0.486-1.314-1.065-1.715-1.737s-0.601-1.415-0.601-2.229
			c0-0.958,0.204-1.798,0.611-2.52s0.954-1.336,1.64-1.844c0.687-0.507,1.479-0.918,2.38-1.232s1.848-0.543,2.841-0.687
			c0.994-0.143,1.998-0.203,3.013-0.182s1.979,0.104,2.895,0.246c-0.086-0.243-0.157-0.493-0.214-0.75
			c-0.058-0.258-0.086-0.529-0.086-0.815c0-0.429,0.061-0.875,0.182-1.34c0.122-0.464,0.318-0.968,0.59-1.512
			c-0.543,0.372-1.154,0.658-1.833,0.857c-0.679,0.201-1.477,0.301-2.391,0.301c-0.829,0-1.615-0.136-2.358-0.407
			s-1.394-0.679-1.951-1.223c-0.558-0.543-0.997-1.222-1.318-2.037c-0.322-0.814-0.482-1.771-0.482-2.873
			c0-1.043,0.192-2.072,0.578-3.087c0.387-1.015,0.962-1.915,1.727-2.702c0.765-0.785,1.708-1.422,2.83-1.908
			c1.122-0.485,2.412-0.729,3.87-0.729c0.8,0,1.555,0.093,2.262,0.278c0.708,0.187,1.354,0.465,1.94,0.837H191.017z
			 M182.997,138.887c0-0.528-0.064-1.021-0.192-1.479c-1.802-0.3-3.342-0.425-4.621-0.375s-2.333,0.226-3.162,0.525
			s-1.437,0.689-1.822,1.169c-0.387,0.479-0.579,0.996-0.579,1.554c0,0.93,0.386,1.637,1.157,2.123
			c0.772,0.485,1.908,0.729,3.409,0.729c0.872,0,1.665-0.11,2.38-0.332s1.326-0.525,1.834-0.911c0.507-0.386,0.9-0.836,1.179-1.351
			C182.858,140.023,182.997,139.473,182.997,138.887z M179.159,128.531c0.7,0,1.319-0.157,1.854-0.472
			c0.536-0.314,0.986-0.729,1.352-1.244c0.364-0.515,0.643-1.097,0.836-1.747c0.192-0.65,0.296-1.305,0.311-1.962
			c0-1.158-0.286-2.037-0.857-2.638c-0.572-0.6-1.372-0.9-2.401-0.9c-0.7,0-1.315,0.147-1.844,0.439
			c-0.529,0.294-0.976,0.687-1.34,1.18c-0.365,0.493-0.641,1.058-0.826,1.693c-0.186,0.637-0.278,1.298-0.278,1.983
			c0,1.173,0.275,2.077,0.825,2.713S178.13,128.531,179.159,128.531z"/>
		<path fill="#1E91AD" d="M198.006,122.377c0.558-1.157,1.161-2.15,1.812-2.979s1.33-1.479,2.037-1.951
			c0.708-0.472,1.437-0.751,2.188-0.837c0.75-0.085,1.504,0.036,2.262,0.365l-0.836,4.417c-1.815-0.729-3.406-0.497-4.771,0.696
			c-1.364,1.193-2.462,3.448-3.291,6.765l-1.157,9.756h-4.503l2.638-21.913h2.315c0.5,0,0.882,0.126,1.146,0.376
			s0.397,0.64,0.397,1.168L198.006,122.377z"/>
		<path fill="#1E91AD" d="M223.691,134.556c-0.743,0.758-1.472,1.412-2.187,1.962c-0.715,0.551-1.444,1.005-2.188,1.361
			c-0.743,0.357-1.521,0.622-2.337,0.794c-0.814,0.171-1.701,0.257-2.658,0.257c-1.272,0-2.416-0.214-3.431-0.644
			c-1.016-0.429-1.884-1.032-2.605-1.812c-0.722-0.778-1.275-1.722-1.661-2.83c-0.386-1.107-0.579-2.348-0.579-3.72
			c0-1.144,0.121-2.27,0.364-3.377s0.597-2.162,1.062-3.163c0.465-1,1.029-1.926,1.694-2.776c0.664-0.851,1.422-1.583,2.272-2.197
			c0.85-0.614,1.786-1.097,2.809-1.447c1.021-0.351,2.119-0.525,3.291-0.525c1.129,0,2.108,0.16,2.938,0.482
			c0.829,0.321,1.519,0.736,2.069,1.243c0.55,0.508,0.961,1.069,1.232,1.684s0.407,1.215,0.407,1.801
			c0,0.958-0.196,1.837-0.589,2.638c-0.394,0.8-1.098,1.521-2.112,2.165c-1.016,0.644-2.405,1.201-4.17,1.673
			c-1.766,0.472-4.028,0.851-6.786,1.136c-0.015,0.086-0.021,0.176-0.021,0.269s0,0.189,0,0.289c0,1.815,0.393,3.184,1.179,4.105
			c0.786,0.923,1.966,1.384,3.538,1.384c0.986,0,1.808-0.136,2.466-0.408c0.657-0.271,1.219-0.567,1.683-0.89
			c0.465-0.321,0.872-0.618,1.223-0.89c0.35-0.271,0.718-0.407,1.104-0.407c0.301,0,0.579,0.143,0.837,0.429L223.691,134.556z
			 M217.281,119.697c-0.801,0-1.541,0.164-2.22,0.493s-1.286,0.782-1.822,1.361s-1.001,1.269-1.394,2.069
			c-0.394,0.801-0.697,1.672-0.911,2.615c1.973-0.257,3.559-0.543,4.76-0.857c1.2-0.314,2.123-0.657,2.766-1.029
			c0.644-0.371,1.072-0.768,1.287-1.189c0.214-0.422,0.321-0.868,0.321-1.34c0-0.229-0.051-0.472-0.15-0.729
			c-0.1-0.257-0.261-0.485-0.482-0.686s-0.511-0.368-0.868-0.504S217.781,119.697,217.281,119.697z"/>
		<path fill="#1E91AD" d="M248.283,106.876l-3.924,31.732h-2.423c-0.586,0-0.982-0.15-1.189-0.45
			c-0.207-0.301-0.311-0.672-0.311-1.115l0.278-3.73c-0.543,0.857-1.122,1.629-1.736,2.315c-0.615,0.687-1.262,1.275-1.94,1.769
			c-0.68,0.493-1.383,0.872-2.112,1.137c-0.729,0.265-1.479,0.396-2.251,0.396c-1.844,0-3.299-0.676-4.363-2.026
			c-1.065-1.351-1.598-3.369-1.598-6.057c0-1.215,0.125-2.416,0.375-3.603c0.25-1.186,0.604-2.315,1.062-3.388
			c0.457-1.071,1.011-2.062,1.662-2.969c0.65-0.908,1.368-1.694,2.154-2.359c0.786-0.664,1.633-1.186,2.541-1.564
			c0.907-0.379,1.854-0.568,2.841-0.568c1.029,0,1.965,0.193,2.809,0.579s1.565,0.929,2.166,1.629l1.458-11.728H248.283z
			 M241.937,121.67c-0.514-0.629-1.118-1.068-1.812-1.318s-1.383-0.376-2.068-0.376c-1.029,0-1.962,0.312-2.799,0.934
			c-0.836,0.621-1.551,1.429-2.144,2.422c-0.594,0.994-1.051,2.109-1.372,3.346c-0.322,1.236-0.482,2.469-0.482,3.698
			c0,1.615,0.278,2.83,0.836,3.645c0.558,0.815,1.336,1.223,2.337,1.223c0.629,0,1.272-0.207,1.93-0.622
			c0.657-0.414,1.286-0.986,1.887-1.715c0.601-0.729,1.161-1.594,1.684-2.595c0.521-1,0.968-2.087,1.34-3.259L241.937,121.67z"/>
		<path fill="#1E91AD" d="M257.031,116.738l-2.638,21.87h-4.523l2.615-21.87H257.031z M258.403,110.135
			c0,0.415-0.086,0.808-0.258,1.179c-0.171,0.372-0.4,0.697-0.686,0.976c-0.286,0.279-0.607,0.501-0.965,0.665
			c-0.357,0.165-0.729,0.247-1.115,0.247s-0.754-0.082-1.104-0.247c-0.35-0.164-0.657-0.386-0.922-0.665
			c-0.265-0.278-0.479-0.604-0.643-0.976c-0.165-0.371-0.247-0.764-0.247-1.179c0-0.414,0.082-0.812,0.247-1.19
			c0.164-0.378,0.382-0.707,0.653-0.986c0.271-0.278,0.586-0.5,0.943-0.664s0.722-0.247,1.094-0.247
			c0.386,0,0.762,0.083,1.126,0.247s0.686,0.386,0.965,0.664c0.278,0.279,0.5,0.604,0.664,0.976
			C258.32,109.306,258.403,109.706,258.403,110.135z"/>
		<path fill="#1E91AD" d="M277.528,134.556c-0.743,0.758-1.473,1.412-2.188,1.962c-0.715,0.551-1.443,1.005-2.187,1.361
			c-0.743,0.357-1.522,0.622-2.337,0.794c-0.815,0.171-1.701,0.257-2.659,0.257c-1.272,0-2.415-0.214-3.431-0.644
			c-1.015-0.429-1.883-1.032-2.604-1.812c-0.722-0.778-1.275-1.722-1.662-2.83c-0.386-1.107-0.578-2.348-0.578-3.72
			c0-1.144,0.121-2.27,0.364-3.377c0.242-1.107,0.597-2.162,1.062-3.163c0.464-1,1.028-1.926,1.693-2.776s1.422-1.583,2.272-2.197
			s1.787-1.097,2.809-1.447c1.022-0.351,2.119-0.525,3.292-0.525c1.129,0,2.107,0.16,2.938,0.482
			c0.828,0.321,1.519,0.736,2.068,1.243c0.551,0.508,0.961,1.069,1.233,1.684c0.271,0.614,0.407,1.215,0.407,1.801
			c0,0.958-0.197,1.837-0.59,2.638c-0.394,0.8-1.097,1.521-2.112,2.165c-1.015,0.644-2.404,1.201-4.17,1.673
			s-4.027,0.851-6.786,1.136c-0.015,0.086-0.021,0.176-0.021,0.269s0,0.189,0,0.289c0,1.815,0.394,3.184,1.18,4.105
			c0.786,0.923,1.965,1.384,3.537,1.384c0.986,0,1.809-0.136,2.466-0.408c0.657-0.271,1.219-0.567,1.684-0.89
			c0.464-0.321,0.871-0.618,1.222-0.89s0.719-0.407,1.104-0.407c0.3,0,0.579,0.143,0.836,0.429L277.528,134.556z M271.117,119.697
			c-0.801,0-1.54,0.164-2.219,0.493c-0.68,0.329-1.287,0.782-1.822,1.361c-0.536,0.579-1.001,1.269-1.395,2.069
			c-0.393,0.801-0.696,1.672-0.911,2.615c1.973-0.257,3.56-0.543,4.76-0.857c1.201-0.314,2.123-0.657,2.767-1.029
			c0.643-0.371,1.071-0.768,1.286-1.189s0.321-0.868,0.321-1.34c0-0.229-0.05-0.472-0.149-0.729
			c-0.101-0.257-0.262-0.485-0.482-0.686c-0.222-0.2-0.512-0.368-0.869-0.504S271.617,119.697,271.117,119.697z"/>
		<path fill="#1E91AD" d="M286.854,121.691c1.129-1.772,2.394-3.099,3.795-3.978c1.4-0.879,2.844-1.318,4.331-1.318
			c0.914,0,1.729,0.183,2.444,0.547c0.714,0.364,1.3,0.9,1.758,1.607c0.457,0.708,0.771,1.576,0.943,2.605s0.179,2.208,0.021,3.538
			l-1.651,13.915h-4.588l1.65-13.915c0.2-1.559,0.111-2.691-0.268-3.398c-0.379-0.708-1.062-1.062-2.048-1.062
			c-0.629,0-1.275,0.179-1.94,0.536c-0.664,0.357-1.301,0.861-1.908,1.512s-1.176,1.437-1.704,2.358
			c-0.529,0.922-0.965,1.947-1.309,3.076l-1.2,10.893h-4.588l2.615-21.913h2.315c0.5,0,0.883,0.126,1.147,0.376
			s0.396,0.64,0.396,1.168L286.854,121.691z"/>
		<path fill="#1E91AD" d="M305.058,134.299c0-0.101,0.004-0.218,0.011-0.354c0.008-0.135,0.021-0.332,0.043-0.589
			c0.021-0.258,0.054-0.601,0.097-1.029s0.107-0.979,0.193-1.651l1.265-10.312h-2.208c-0.243,0-0.437-0.082-0.579-0.247
			c-0.144-0.164-0.193-0.41-0.15-0.739l0.215-1.865l3.323-0.515l1.715-6.325c0.086-0.243,0.218-0.439,0.396-0.59
			s0.397-0.225,0.654-0.225h2.444l-0.9,7.183h5.51l-0.386,3.323h-5.531l-1.223,10.056c-0.071,0.586-0.129,1.054-0.171,1.404
			c-0.043,0.351-0.075,0.629-0.097,0.836s-0.036,0.351-0.043,0.429c-0.008,0.079-0.011,0.14-0.011,0.183
			c0,0.629,0.15,1.107,0.45,1.437s0.715,0.493,1.243,0.493c0.344,0,0.636-0.047,0.88-0.14c0.242-0.093,0.457-0.192,0.643-0.3
			s0.343-0.207,0.472-0.301c0.129-0.093,0.25-0.139,0.364-0.139c0.157,0,0.271,0.032,0.344,0.096
			c0.071,0.064,0.143,0.176,0.214,0.333l0.986,2.251c-0.758,0.629-1.597,1.111-2.52,1.447c-0.922,0.336-1.854,0.504-2.798,0.504
			c-1.472,0-2.637-0.403-3.494-1.211C305.551,136.933,305.101,135.785,305.058,134.299z"/>
		<path fill="#1E91AD" d="M333.081,120.576c-0.129,0.2-0.261,0.344-0.396,0.429c-0.136,0.086-0.304,0.129-0.504,0.129
			c-0.229,0-0.465-0.075-0.708-0.225c-0.243-0.15-0.532-0.318-0.868-0.504s-0.732-0.354-1.189-0.504
			c-0.458-0.15-1.008-0.226-1.651-0.226c-0.601,0-1.14,0.079-1.619,0.236c-0.479,0.157-0.89,0.371-1.232,0.643
			s-0.604,0.594-0.782,0.965c-0.18,0.372-0.269,0.765-0.269,1.18c0,0.472,0.125,0.868,0.375,1.189
			c0.25,0.322,0.583,0.604,0.997,0.848c0.415,0.243,0.887,0.464,1.415,0.664c0.529,0.2,1.068,0.407,1.619,0.622
			c0.55,0.214,1.09,0.461,1.619,0.739c0.528,0.279,1,0.615,1.415,1.008c0.414,0.394,0.746,0.868,0.997,1.426
			c0.25,0.558,0.375,1.223,0.375,1.994c0,1.029-0.204,2.016-0.611,2.959s-0.993,1.769-1.758,2.477
			c-0.765,0.707-1.687,1.272-2.766,1.693c-1.08,0.422-2.284,0.633-3.613,0.633c-1.387,0-2.641-0.254-3.763-0.761
			c-1.123-0.508-2.02-1.147-2.691-1.919l1.137-1.759c0.143-0.214,0.307-0.382,0.493-0.504c0.186-0.121,0.414-0.182,0.686-0.182
			c0.258,0,0.508,0.096,0.751,0.289s0.532,0.407,0.868,0.644c0.336,0.235,0.747,0.45,1.233,0.643c0.485,0.193,1.114,0.29,1.887,0.29
			c0.643,0,1.215-0.089,1.715-0.269c0.5-0.178,0.922-0.425,1.266-0.739c0.343-0.314,0.607-0.679,0.793-1.094
			c0.186-0.414,0.278-0.85,0.278-1.308c0-0.515-0.125-0.943-0.375-1.286c-0.25-0.344-0.582-0.64-0.997-0.891
			c-0.414-0.249-0.883-0.468-1.404-0.653s-1.058-0.379-1.608-0.579c-0.55-0.2-1.086-0.429-1.607-0.687
			c-0.522-0.257-0.99-0.578-1.404-0.965c-0.415-0.386-0.748-0.854-0.997-1.404c-0.251-0.55-0.376-1.226-0.376-2.025
			c0-0.943,0.186-1.862,0.559-2.756c0.371-0.893,0.907-1.683,1.607-2.369c0.7-0.686,1.558-1.236,2.573-1.65
			c1.015-0.415,2.172-0.622,3.474-0.622c1.357,0,2.555,0.229,3.591,0.686c1.036,0.458,1.919,1.065,2.648,1.823L333.081,120.576z"/>
		<path fill="#1E91AD" d="M353.707,120.341l-2.101,17.452l-1.051,4.203c-0.2,0.614-0.479,1.09-0.837,1.426
			c-0.357,0.335-0.864,0.504-1.521,0.504h-1.845l2.853-23.542l-1.908-0.301c-0.301-0.071-0.54-0.196-0.719-0.375
			s-0.246-0.446-0.204-0.804l0.236-1.865h3.002l0.235-1.845c0.157-1.243,0.479-2.358,0.965-3.345s1.101-1.822,1.844-2.508
			c0.743-0.687,1.598-1.212,2.562-1.576s2.005-0.547,3.12-0.547c0.886,0,1.715,0.143,2.486,0.429l-0.429,2.401
			c-0.028,0.157-0.093,0.275-0.192,0.354c-0.101,0.079-0.232,0.133-0.396,0.161c-0.165,0.029-0.348,0.043-0.547,0.043
			c-0.2,0-0.407,0-0.622,0c-0.601,0-1.147,0.086-1.641,0.257c-0.493,0.172-0.933,0.443-1.318,0.815s-0.707,0.857-0.965,1.458
			c-0.257,0.6-0.437,1.336-0.536,2.208l-0.214,1.694h5.167l-0.429,3.302H353.707z"/>
		<path fill="#1E91AD" d="M367.429,138.93c-1.2,0-2.309-0.203-3.323-0.611c-1.015-0.407-1.89-1-2.626-1.779
			s-1.312-1.736-1.727-2.873c-0.414-1.137-0.621-2.426-0.621-3.87c0-1.872,0.296-3.623,0.89-5.253
			c0.593-1.63,1.404-3.048,2.434-4.256s2.233-2.158,3.612-2.852c1.38-0.693,2.855-1.04,4.428-1.04c1.201,0,2.309,0.203,3.323,0.611
			c1.015,0.407,1.887,1,2.616,1.779c0.729,0.779,1.301,1.736,1.715,2.873c0.415,1.137,0.622,2.427,0.622,3.87
			c0,1.229-0.136,2.416-0.407,3.56s-0.65,2.212-1.137,3.205s-1.075,1.897-1.769,2.712c-0.693,0.815-1.458,1.512-2.294,2.091
			c-0.837,0.579-1.741,1.029-2.713,1.351S368.473,138.93,367.429,138.93z M367.837,135.328c0.957,0,1.829-0.269,2.615-0.805
			s1.454-1.254,2.005-2.154c0.55-0.9,0.976-1.94,1.275-3.12c0.301-1.179,0.45-2.412,0.45-3.698c0-1.887-0.347-3.284-1.039-4.191
			c-0.694-0.908-1.72-1.362-3.077-1.362c-0.973,0-1.848,0.265-2.627,0.794c-0.778,0.528-1.439,1.236-1.982,2.122
			c-0.544,0.887-0.965,1.923-1.266,3.109c-0.3,1.187-0.45,2.43-0.45,3.73C363.741,133.47,365.106,135.328,367.837,135.328z"/>
		<path fill="#1E91AD" d="M387.69,122.377c0.558-1.157,1.161-2.15,1.812-2.979s1.329-1.479,2.037-1.951
			c0.707-0.472,1.437-0.751,2.187-0.837c0.751-0.085,1.505,0.036,2.263,0.365l-0.837,4.417c-1.815-0.729-3.405-0.497-4.771,0.696
			s-2.462,3.448-3.291,6.765l-1.158,9.756h-4.502l2.637-21.913h2.316c0.5,0,0.882,0.126,1.146,0.376s0.396,0.64,0.396,1.168
			L387.69,122.377z"/>
		<path fill="#1E91AD" d="M406.794,134.299c0-0.101,0.004-0.218,0.011-0.354c0.007-0.135,0.021-0.332,0.043-0.589
			c0.021-0.258,0.054-0.601,0.097-1.029s0.107-0.979,0.192-1.651l1.266-10.312h-2.209c-0.243,0-0.436-0.082-0.578-0.247
			c-0.144-0.164-0.193-0.41-0.15-0.739l0.214-1.865l3.324-0.515l1.715-6.325c0.086-0.243,0.218-0.439,0.396-0.59
			s0.396-0.225,0.654-0.225h2.444l-0.9,7.183h5.51l-0.386,3.323h-5.532l-1.222,10.056c-0.071,0.586-0.129,1.054-0.172,1.404
			s-0.075,0.629-0.096,0.836c-0.021,0.207-0.036,0.351-0.043,0.429c-0.008,0.079-0.011,0.14-0.011,0.183
			c0,0.629,0.149,1.107,0.45,1.437c0.3,0.329,0.714,0.493,1.243,0.493c0.343,0,0.636-0.047,0.879-0.14s0.458-0.192,0.644-0.3
			s0.343-0.207,0.472-0.301c0.129-0.093,0.25-0.139,0.364-0.139c0.157,0,0.271,0.032,0.343,0.096
			c0.072,0.064,0.144,0.176,0.215,0.333l0.986,2.251c-0.758,0.629-1.598,1.111-2.52,1.447s-1.854,0.504-2.798,0.504
			c-1.473,0-2.637-0.403-3.495-1.211C407.287,136.933,406.837,135.785,406.794,134.299z"/>
		<path fill="#1E91AD" d="M427.205,120.962c1.101-1.515,2.301-2.654,3.602-3.419s2.638-1.147,4.01-1.147
			c0.929,0,1.755,0.183,2.477,0.547s1.312,0.9,1.769,1.607c0.457,0.708,0.772,1.576,0.943,2.605c0.172,1.029,0.172,2.208,0,3.538
			l-1.629,13.915h-4.589l1.63-13.915c0.2-1.559,0.114-2.698-0.258-3.42c-0.371-0.722-1.058-1.083-2.058-1.083
			c-0.601,0-1.219,0.168-1.855,0.504c-0.636,0.336-1.247,0.808-1.833,1.415s-1.14,1.344-1.661,2.208
			c-0.522,0.865-0.962,1.826-1.319,2.884l-1.372,11.407h-4.588l3.838-31.732h4.588L427.205,120.962z"/>
		<path fill="#1E91AD" d="M461.103,134.556c-0.743,0.758-1.473,1.412-2.187,1.962c-0.715,0.551-1.444,1.005-2.188,1.361
			c-0.743,0.357-1.522,0.622-2.337,0.794c-0.814,0.171-1.701,0.257-2.658,0.257c-1.272,0-2.416-0.214-3.431-0.644
			c-1.016-0.429-1.884-1.032-2.605-1.812c-0.722-0.778-1.275-1.722-1.661-2.83c-0.387-1.107-0.579-2.348-0.579-3.72
			c0-1.144,0.121-2.27,0.364-3.377s0.597-2.162,1.062-3.163c0.464-1,1.029-1.926,1.693-2.776c0.665-0.851,1.423-1.583,2.273-2.197
			c0.85-0.614,1.786-1.097,2.809-1.447c1.021-0.351,2.119-0.525,3.291-0.525c1.129,0,2.108,0.16,2.938,0.482
			c0.828,0.321,1.519,0.736,2.068,1.243c0.551,0.508,0.962,1.069,1.233,1.684s0.407,1.215,0.407,1.801
			c0,0.958-0.196,1.837-0.59,2.638c-0.393,0.8-1.097,1.521-2.111,2.165c-1.016,0.644-2.405,1.201-4.171,1.673
			s-4.027,0.851-6.786,1.136c-0.014,0.086-0.021,0.176-0.021,0.269s0,0.189,0,0.289c0,1.815,0.393,3.184,1.179,4.105
			c0.786,0.923,1.965,1.384,3.538,1.384c0.986,0,1.808-0.136,2.466-0.408c0.657-0.271,1.218-0.567,1.683-0.89
			c0.465-0.321,0.872-0.618,1.223-0.89c0.35-0.271,0.718-0.407,1.104-0.407c0.301,0,0.579,0.143,0.837,0.429L461.103,134.556z
			 M454.691,119.697c-0.8,0-1.54,0.164-2.219,0.493s-1.286,0.782-1.822,1.361s-1.001,1.269-1.394,2.069
			c-0.394,0.801-0.697,1.672-0.911,2.615c1.973-0.257,3.559-0.543,4.76-0.857c1.2-0.314,2.122-0.657,2.766-1.029
			c0.644-0.371,1.072-0.768,1.286-1.189c0.215-0.422,0.322-0.868,0.322-1.34c0-0.229-0.051-0.472-0.15-0.729
			c-0.101-0.257-0.261-0.485-0.482-0.686s-0.512-0.368-0.868-0.504C455.621,119.766,455.192,119.697,454.691,119.697z"/>
		<path fill="#1E91AD" d="M487.39,107.733c1.687,0,3.147,0.203,4.385,0.611c1.235,0.407,2.258,0.979,3.065,1.715
			s1.404,1.615,1.79,2.638c0.387,1.021,0.579,2.147,0.579,3.377c0,1.644-0.261,3.155-0.782,4.534
			c-0.522,1.38-1.297,2.569-2.326,3.57c-1.029,1-2.306,1.783-3.827,2.348c-1.522,0.564-3.284,0.847-5.285,0.847h-4.16l-1.372,11.235
			h-4.803l3.773-30.875H487.39z M485.46,123.557c1.144,0,2.147-0.175,3.012-0.525c0.865-0.35,1.583-0.836,2.155-1.458
			c0.571-0.622,1-1.364,1.286-2.229s0.429-1.812,0.429-2.841c0-1.516-0.442-2.724-1.329-3.624s-2.251-1.351-4.095-1.351h-4.139
			l-1.479,12.028H485.46z"/>
		<path fill="#1E91AD" d="M515.047,134.556c-0.743,0.758-1.473,1.412-2.187,1.962c-0.715,0.551-1.444,1.005-2.188,1.361
			c-0.743,0.357-1.522,0.622-2.337,0.794c-0.814,0.171-1.701,0.257-2.658,0.257c-1.272,0-2.416-0.214-3.431-0.644
			c-1.016-0.429-1.884-1.032-2.605-1.812c-0.722-0.778-1.275-1.722-1.661-2.83c-0.387-1.107-0.579-2.348-0.579-3.72
			c0-1.144,0.121-2.27,0.364-3.377s0.597-2.162,1.062-3.163c0.464-1,1.029-1.926,1.693-2.776c0.665-0.851,1.423-1.583,2.273-2.197
			c0.85-0.614,1.786-1.097,2.809-1.447c1.021-0.351,2.119-0.525,3.291-0.525c1.129,0,2.108,0.16,2.938,0.482
			c0.828,0.321,1.519,0.736,2.068,1.243c0.551,0.508,0.962,1.069,1.233,1.684s0.407,1.215,0.407,1.801
			c0,0.958-0.196,1.837-0.59,2.638c-0.393,0.8-1.097,1.521-2.111,2.165c-1.016,0.644-2.405,1.201-4.171,1.673
			s-4.027,0.851-6.786,1.136c-0.014,0.086-0.021,0.176-0.021,0.269s0,0.189,0,0.289c0,1.815,0.393,3.184,1.179,4.105
			c0.786,0.923,1.965,1.384,3.538,1.384c0.986,0,1.808-0.136,2.466-0.408c0.657-0.271,1.218-0.567,1.683-0.89
			c0.465-0.321,0.872-0.618,1.223-0.89c0.35-0.271,0.718-0.407,1.104-0.407c0.301,0,0.579,0.143,0.837,0.429L515.047,134.556z
			 M508.636,119.697c-0.8,0-1.54,0.164-2.219,0.493s-1.286,0.782-1.822,1.361s-1.001,1.269-1.394,2.069
			c-0.394,0.801-0.697,1.672-0.911,2.615c1.973-0.257,3.559-0.543,4.76-0.857c1.2-0.314,2.122-0.657,2.766-1.029
			c0.644-0.371,1.072-0.768,1.286-1.189c0.215-0.422,0.322-0.868,0.322-1.34c0-0.229-0.051-0.472-0.15-0.729
			c-0.101-0.257-0.261-0.485-0.482-0.686s-0.512-0.368-0.868-0.504C509.565,119.766,509.137,119.697,508.636,119.697z"/>
		<path fill="#1E91AD" d="M524.353,122.377c0.558-1.157,1.161-2.15,1.812-2.979s1.329-1.479,2.037-1.951
			c0.707-0.472,1.437-0.751,2.187-0.837c0.751-0.085,1.505,0.036,2.263,0.365l-0.837,4.417c-1.815-0.729-3.405-0.497-4.771,0.696
			s-2.462,3.448-3.291,6.765l-1.158,9.756h-4.502l2.637-21.913h2.316c0.5,0,0.882,0.126,1.146,0.376s0.396,0.64,0.396,1.168
			L524.353,122.377z"/>
		<path fill="#1E91AD" d="M541.011,120.341l-2.101,17.452l-1.051,4.203c-0.2,0.614-0.479,1.09-0.837,1.426
			c-0.357,0.335-0.864,0.504-1.521,0.504h-1.845l2.853-23.542l-1.908-0.301c-0.301-0.071-0.54-0.196-0.719-0.375
			s-0.246-0.446-0.204-0.804l0.236-1.865h3.002l0.235-1.845c0.157-1.243,0.479-2.358,0.965-3.345s1.101-1.822,1.844-2.508
			c0.743-0.687,1.598-1.212,2.562-1.576s2.005-0.547,3.12-0.547c0.886,0,1.715,0.143,2.486,0.429l-0.429,2.401
			c-0.028,0.157-0.093,0.275-0.192,0.354c-0.101,0.079-0.232,0.133-0.396,0.161c-0.165,0.029-0.348,0.043-0.547,0.043
			c-0.2,0-0.407,0-0.622,0c-0.601,0-1.147,0.086-1.641,0.257c-0.493,0.172-0.933,0.443-1.318,0.815s-0.707,0.857-0.965,1.458
			c-0.257,0.6-0.437,1.336-0.536,2.208l-0.214,1.694h5.167l-0.429,3.302H541.011z"/>
		<path fill="#1E91AD" d="M564.06,134.556c-0.743,0.758-1.473,1.412-2.187,1.962c-0.715,0.551-1.444,1.005-2.188,1.361
			c-0.743,0.357-1.522,0.622-2.337,0.794c-0.814,0.171-1.701,0.257-2.658,0.257c-1.272,0-2.416-0.214-3.431-0.644
			c-1.016-0.429-1.884-1.032-2.605-1.812c-0.722-0.778-1.275-1.722-1.661-2.83c-0.387-1.107-0.579-2.348-0.579-3.72
			c0-1.144,0.121-2.27,0.364-3.377s0.597-2.162,1.062-3.163c0.464-1,1.029-1.926,1.693-2.776c0.665-0.851,1.423-1.583,2.273-2.197
			c0.85-0.614,1.786-1.097,2.809-1.447c1.021-0.351,2.119-0.525,3.291-0.525c1.129,0,2.108,0.16,2.938,0.482
			c0.828,0.321,1.519,0.736,2.068,1.243c0.551,0.508,0.962,1.069,1.233,1.684s0.407,1.215,0.407,1.801
			c0,0.958-0.196,1.837-0.59,2.638c-0.393,0.8-1.097,1.521-2.111,2.165c-1.016,0.644-2.405,1.201-4.171,1.673
			s-4.027,0.851-6.786,1.136c-0.014,0.086-0.021,0.176-0.021,0.269s0,0.189,0,0.289c0,1.815,0.393,3.184,1.179,4.105
			c0.786,0.923,1.965,1.384,3.538,1.384c0.986,0,1.808-0.136,2.466-0.408c0.657-0.271,1.218-0.567,1.683-0.89
			c0.465-0.321,0.872-0.618,1.223-0.89c0.35-0.271,0.718-0.407,1.104-0.407c0.301,0,0.579,0.143,0.837,0.429L564.06,134.556z
			 M557.648,119.697c-0.8,0-1.54,0.164-2.219,0.493s-1.286,0.782-1.822,1.361s-1.001,1.269-1.394,2.069
			c-0.394,0.801-0.697,1.672-0.911,2.615c1.973-0.257,3.559-0.543,4.76-0.857c1.2-0.314,2.122-0.657,2.766-1.029
			c0.644-0.371,1.072-0.768,1.286-1.189c0.215-0.422,0.322-0.868,0.322-1.34c0-0.229-0.051-0.472-0.15-0.729
			c-0.101-0.257-0.261-0.485-0.482-0.686s-0.512-0.368-0.868-0.504C558.578,119.766,558.149,119.697,557.648,119.697z"/>
		<path fill="#1E91AD" d="M581.577,136.732c-0.673,0.536-1.348,0.968-2.026,1.297c-0.68,0.329-1.387,0.562-2.123,0.697
			c-0.736,0.135-1.54,0.203-2.412,0.203c-1.272,0-2.401-0.218-3.388-0.654c-0.986-0.436-1.815-1.05-2.487-1.844
			c-0.672-0.793-1.187-1.747-1.543-2.862c-0.357-1.114-0.536-2.351-0.536-3.709c0-1.172,0.129-2.322,0.386-3.452
			c0.257-1.129,0.622-2.19,1.094-3.184s1.047-1.908,1.726-2.745c0.679-0.836,1.44-1.554,2.283-2.154
			c0.844-0.601,1.759-1.068,2.745-1.404s2.029-0.504,3.13-0.504c1.458,0,2.684,0.257,3.678,0.771
			c0.993,0.515,1.868,1.272,2.626,2.273l-1.458,1.758c-0.114,0.114-0.243,0.218-0.386,0.311c-0.144,0.094-0.3,0.14-0.472,0.14
			c-0.215,0-0.422-0.078-0.622-0.236c-0.2-0.156-0.443-0.332-0.729-0.524c-0.286-0.193-0.644-0.372-1.072-0.536
			s-0.979-0.247-1.651-0.247c-0.9,0-1.755,0.243-2.562,0.729c-0.808,0.485-1.516,1.161-2.123,2.025
			c-0.607,0.865-1.09,1.897-1.447,3.099s-0.536,2.509-0.536,3.924c0,1.687,0.375,3.009,1.126,3.967
			c0.75,0.957,1.812,1.437,3.184,1.437c0.887,0,1.622-0.129,2.209-0.387c0.586-0.257,1.082-0.535,1.49-0.836
			c0.407-0.3,0.761-0.579,1.061-0.836c0.301-0.258,0.615-0.386,0.943-0.386c0.301,0,0.579,0.143,0.837,0.429l1.157,1.415
			C582.949,135.521,582.248,136.196,581.577,136.732z"/>
		<path fill="#1E91AD" d="M588.287,134.299c0-0.101,0.004-0.218,0.011-0.354c0.007-0.135,0.021-0.332,0.043-0.589
			c0.021-0.258,0.054-0.601,0.097-1.029s0.107-0.979,0.192-1.651l1.266-10.312h-2.209c-0.243,0-0.436-0.082-0.578-0.247
			c-0.144-0.164-0.193-0.41-0.15-0.739l0.214-1.865l3.324-0.515l1.715-6.325c0.086-0.243,0.218-0.439,0.396-0.59
			s0.396-0.225,0.654-0.225h2.444l-0.9,7.183h5.51l-0.386,3.323h-5.532l-1.222,10.056c-0.071,0.586-0.129,1.054-0.172,1.404
			s-0.075,0.629-0.096,0.836c-0.021,0.207-0.036,0.351-0.043,0.429c-0.008,0.079-0.011,0.14-0.011,0.183
			c0,0.629,0.149,1.107,0.45,1.437c0.3,0.329,0.714,0.493,1.243,0.493c0.343,0,0.636-0.047,0.879-0.14s0.458-0.192,0.644-0.3
			s0.343-0.207,0.472-0.301c0.129-0.093,0.25-0.139,0.364-0.139c0.157,0,0.271,0.032,0.343,0.096
			c0.072,0.064,0.144,0.176,0.215,0.333L598.45,137c-0.758,0.629-1.598,1.111-2.52,1.447s-1.854,0.504-2.798,0.504
			c-1.473,0-2.637-0.403-3.495-1.211C588.78,136.933,588.33,135.785,588.287,134.299z"/>
		<path fill="#1E91AD" d="M620.642,111.657l-1.243,10.099h10.999l-0.515,3.902h-10.956l-1.608,12.95h-4.846l3.795-30.875h17.796
			l-0.493,3.924H620.642z"/>
		<path fill="#1E91AD" d="M645.276,133.505c-0.5,0.829-1.032,1.576-1.597,2.241c-0.565,0.664-1.162,1.232-1.791,1.704
			s-1.294,0.836-1.994,1.094c-0.7,0.257-1.429,0.386-2.187,0.386c-0.844,0-1.622-0.164-2.337-0.493
			c-0.715-0.328-1.329-0.821-1.844-1.479c-0.515-0.657-0.919-1.469-1.212-2.434s-0.439-2.083-0.439-3.355
			c0-1.301,0.164-2.569,0.493-3.806s0.793-2.401,1.394-3.495c0.601-1.093,1.322-2.097,2.166-3.012
			c0.843-0.915,1.786-1.701,2.83-2.358c1.043-0.658,2.169-1.169,3.377-1.533c1.208-0.365,2.477-0.547,3.806-0.547
			c0.957,0,1.908,0.075,2.852,0.225c0.943,0.15,1.865,0.411,2.766,0.783l-2.615,21.184h-2.423c-0.587,0-0.986-0.15-1.201-0.45
			c-0.214-0.301-0.321-0.672-0.321-1.115L645.276,133.505z M646.734,119.826c-0.243-0.028-0.482-0.05-0.718-0.064
			c-0.236-0.014-0.476-0.021-0.719-0.021c-1.229,0-2.384,0.286-3.463,0.857c-1.079,0.572-2.015,1.344-2.809,2.315
			c-0.793,0.973-1.419,2.099-1.876,3.377c-0.457,1.279-0.686,2.627-0.686,4.042c0,1.63,0.26,2.834,0.782,3.612
			c0.521,0.779,1.262,1.169,2.219,1.169c0.644,0,1.272-0.211,1.887-0.633c0.615-0.421,1.197-1,1.748-1.736
			c0.55-0.736,1.062-1.604,1.533-2.605c0.472-1,0.879-2.087,1.222-3.259L646.734,119.826z"/>
		<path fill="#1E91AD" d="M654.175,138.608l2.637-21.913h2.316c0.5,0,0.882,0.126,1.146,0.376s0.396,0.64,0.396,1.168l-0.192,3.088
			c1.029-1.644,2.147-2.877,3.355-3.699c1.207-0.821,2.483-1.232,3.827-1.232c1.4,0,2.473,0.476,3.216,1.426
			c0.743,0.951,1.144,2.319,1.201,4.105c1.058-1.9,2.236-3.298,3.537-4.191c1.301-0.893,2.694-1.34,4.182-1.34
			c1.857,0,3.208,0.722,4.052,2.165c0.844,1.444,1.107,3.488,0.793,6.133l-1.65,13.915h-4.524l1.63-13.915
			c0.1-0.772,0.14-1.44,0.118-2.005s-0.107-1.029-0.258-1.394c-0.149-0.365-0.372-0.633-0.664-0.805
			c-0.294-0.171-0.676-0.257-1.147-0.257c-0.572,0-1.14,0.15-1.704,0.45c-0.565,0.3-1.104,0.736-1.619,1.308
			c-0.515,0.572-0.994,1.272-1.437,2.102c-0.443,0.829-0.836,1.772-1.18,2.83l-1.372,11.686h-4.523l1.65-13.915
			c0.1-0.772,0.143-1.44,0.129-2.005c-0.015-0.564-0.093-1.029-0.236-1.394c-0.143-0.365-0.357-0.633-0.643-0.805
			c-0.286-0.171-0.665-0.257-1.137-0.257c-0.629,0-1.229,0.161-1.801,0.482c-0.572,0.321-1.115,0.782-1.63,1.383
			s-0.993,1.333-1.437,2.197c-0.443,0.865-0.836,1.841-1.179,2.927l-1.352,11.386H654.175z"/>
		<path fill="#1E91AD" d="M695.447,116.738l-2.637,21.87h-4.524l2.616-21.87H695.447z M696.82,110.135
			c0,0.415-0.086,0.808-0.258,1.179c-0.171,0.372-0.4,0.697-0.686,0.976c-0.286,0.279-0.608,0.501-0.965,0.665
			c-0.357,0.165-0.729,0.247-1.115,0.247s-0.754-0.082-1.104-0.247c-0.351-0.164-0.657-0.386-0.922-0.665
			c-0.265-0.278-0.479-0.604-0.644-0.976c-0.164-0.371-0.246-0.764-0.246-1.179c0-0.414,0.082-0.812,0.246-1.19
			c0.165-0.378,0.383-0.707,0.654-0.986c0.271-0.278,0.586-0.5,0.943-0.664s0.722-0.247,1.094-0.247
			c0.386,0,0.761,0.083,1.126,0.247c0.364,0.164,0.686,0.386,0.965,0.664c0.278,0.279,0.5,0.604,0.664,0.976
			C696.737,109.306,696.82,109.706,696.82,110.135z"/>
		<path fill="#1E91AD" d="M698.363,138.608l3.838-31.732h4.545l-3.859,31.732H698.363z"/>
		<path fill="#1E91AD" d="M728.917,116.738l-14.602,28.131c-0.343,0.672-0.851,1.008-1.522,1.008h-3.409l4.803-8.791l-5.574-20.348
			h3.816c0.357,0,0.622,0.09,0.793,0.269c0.172,0.179,0.286,0.39,0.344,0.632l3.087,12.415c0.071,0.328,0.133,0.664,0.183,1.007
			c0.05,0.344,0.089,0.68,0.118,1.008c0.143-0.343,0.289-0.682,0.439-1.019c0.15-0.335,0.304-0.675,0.461-1.018l6.11-12.415
			c0.129-0.257,0.312-0.468,0.547-0.632c0.236-0.164,0.482-0.247,0.739-0.247H728.917z"/>
		<path fill="#1E91AD" d="M746.819,111.657l-1.157,9.498h10.312l-0.493,3.773H745.19l-1.201,9.756h12.972l-0.493,3.924H738.65
			l3.795-30.875h17.796l-0.493,3.924H746.819z"/>
		<path fill="#1E91AD" d="M772.806,126.815l5.703,11.793h-4.138c-0.329,0-0.587-0.086-0.772-0.258
			c-0.186-0.171-0.329-0.378-0.429-0.621l-3.709-8.19c-0.071,0.171-0.146,0.332-0.226,0.482c-0.078,0.149-0.168,0.297-0.268,0.439
			l-5.382,7.29c-0.157,0.229-0.336,0.429-0.536,0.6c-0.2,0.172-0.45,0.258-0.75,0.258h-4.031l8.748-11.814l-5.146-10.056h4.138
			c0.329,0,0.564,0.043,0.708,0.129c0.143,0.086,0.264,0.243,0.364,0.472l3.302,6.989c0.086-0.156,0.179-0.321,0.278-0.493
			c0.101-0.171,0.207-0.343,0.322-0.514l4.353-5.896c0.271-0.457,0.621-0.687,1.051-0.687h4.138L772.806,126.815z"/>
		<path fill="#1E91AD" d="M787.578,122.013c0.528-0.857,1.104-1.629,1.726-2.315s1.272-1.275,1.951-1.769s1.387-0.872,2.123-1.137
			c0.735-0.265,1.49-0.396,2.262-0.396c0.915,0,1.74,0.168,2.477,0.504s1.361,0.844,1.876,1.522s0.911,1.522,1.189,2.529
			c0.279,1.008,0.419,2.184,0.419,3.527c0,1.215-0.126,2.416-0.376,3.603s-0.604,2.312-1.061,3.377
			c-0.458,1.064-1.012,2.055-1.662,2.969c-0.65,0.915-1.369,1.705-2.154,2.37c-0.787,0.664-1.638,1.187-2.552,1.564
			c-0.915,0.379-1.865,0.568-2.852,0.568c-1.029,0-1.962-0.193-2.798-0.579c-0.837-0.386-1.555-0.922-2.155-1.607l-1.115,9.134
			h-4.48l3.559-29.182h2.315c0.501,0,0.883,0.126,1.147,0.376s0.396,0.64,0.396,1.168L787.578,122.013z M786.377,133.634
			c0.515,0.644,1.118,1.094,1.812,1.351c0.693,0.258,1.384,0.386,2.069,0.386c0.687,0,1.329-0.143,1.93-0.429
			c0.601-0.285,1.15-0.679,1.651-1.179c0.5-0.5,0.95-1.09,1.351-1.77c0.4-0.679,0.736-1.404,1.008-2.176s0.479-1.576,0.622-2.412
			c0.143-0.836,0.214-1.662,0.214-2.477c0-1.615-0.275-2.826-0.825-3.634c-0.551-0.808-1.333-1.212-2.348-1.212
			c-0.63,0-1.266,0.204-1.908,0.611c-0.644,0.407-1.266,0.976-1.865,1.704c-0.601,0.729-1.166,1.587-1.694,2.573
			c-0.529,0.986-0.979,2.059-1.351,3.216L786.377,133.634z"/>
		<path fill="#1E91AD" d="M821.861,134.556c-0.743,0.758-1.473,1.412-2.187,1.962c-0.715,0.551-1.444,1.005-2.188,1.361
			c-0.743,0.357-1.522,0.622-2.337,0.794c-0.814,0.171-1.701,0.257-2.658,0.257c-1.272,0-2.416-0.214-3.431-0.644
			c-1.016-0.429-1.884-1.032-2.605-1.812c-0.722-0.778-1.275-1.722-1.661-2.83c-0.387-1.107-0.579-2.348-0.579-3.72
			c0-1.144,0.121-2.27,0.364-3.377s0.597-2.162,1.062-3.163c0.464-1,1.029-1.926,1.693-2.776c0.665-0.851,1.423-1.583,2.273-2.197
			c0.85-0.614,1.786-1.097,2.809-1.447c1.021-0.351,2.119-0.525,3.291-0.525c1.129,0,2.108,0.16,2.938,0.482
			c0.828,0.321,1.519,0.736,2.068,1.243c0.551,0.508,0.962,1.069,1.233,1.684s0.407,1.215,0.407,1.801
			c0,0.958-0.196,1.837-0.59,2.638c-0.393,0.8-1.097,1.521-2.111,2.165c-1.016,0.644-2.405,1.201-4.171,1.673
			s-4.027,0.851-6.786,1.136c-0.014,0.086-0.021,0.176-0.021,0.269s0,0.189,0,0.289c0,1.815,0.393,3.184,1.179,4.105
			c0.786,0.923,1.965,1.384,3.538,1.384c0.986,0,1.808-0.136,2.466-0.408c0.657-0.271,1.218-0.567,1.683-0.89
			c0.465-0.321,0.872-0.618,1.223-0.89c0.35-0.271,0.718-0.407,1.104-0.407c0.301,0,0.579,0.143,0.837,0.429L821.861,134.556z
			 M815.45,119.697c-0.8,0-1.54,0.164-2.219,0.493s-1.286,0.782-1.822,1.361s-1.001,1.269-1.394,2.069
			c-0.394,0.801-0.697,1.672-0.911,2.615c1.973-0.257,3.559-0.543,4.76-0.857c1.2-0.314,2.122-0.657,2.766-1.029
			c0.644-0.371,1.072-0.768,1.286-1.189c0.215-0.422,0.322-0.868,0.322-1.34c0-0.229-0.051-0.472-0.15-0.729
			c-0.101-0.257-0.261-0.485-0.482-0.686s-0.512-0.368-0.868-0.504C816.38,119.766,815.951,119.697,815.45,119.697z"/>
		<path fill="#1E91AD" d="M831.166,122.377c0.558-1.157,1.161-2.15,1.812-2.979s1.329-1.479,2.037-1.951
			c0.707-0.472,1.437-0.751,2.187-0.837c0.751-0.085,1.505,0.036,2.263,0.365l-0.837,4.417c-1.815-0.729-3.405-0.497-4.771,0.696
			s-2.462,3.448-3.291,6.765l-1.158,9.756h-4.502l2.637-21.913h2.316c0.5,0,0.882,0.126,1.146,0.376s0.396,0.64,0.396,1.168
			L831.166,122.377z"/>
		<path fill="#1E91AD" d="M847.203,116.738l-2.637,21.87h-4.524l2.616-21.87H847.203z M848.576,110.135
			c0,0.415-0.086,0.808-0.258,1.179c-0.171,0.372-0.4,0.697-0.686,0.976c-0.286,0.279-0.608,0.501-0.965,0.665
			c-0.357,0.165-0.729,0.247-1.115,0.247s-0.754-0.082-1.104-0.247c-0.351-0.164-0.657-0.386-0.922-0.665
			c-0.265-0.278-0.479-0.604-0.644-0.976c-0.164-0.371-0.246-0.764-0.246-1.179c0-0.414,0.082-0.812,0.246-1.19
			c0.165-0.378,0.383-0.707,0.654-0.986c0.271-0.278,0.586-0.5,0.943-0.664s0.722-0.247,1.094-0.247
			c0.386,0,0.761,0.083,1.126,0.247c0.364,0.164,0.686,0.386,0.965,0.664c0.278,0.279,0.5,0.604,0.664,0.976
			C848.493,109.306,848.576,109.706,848.576,110.135z"/>
		<path fill="#1E91AD" d="M867.7,134.556c-0.743,0.758-1.473,1.412-2.187,1.962c-0.715,0.551-1.444,1.005-2.188,1.361
			c-0.743,0.357-1.522,0.622-2.337,0.794c-0.814,0.171-1.701,0.257-2.658,0.257c-1.272,0-2.416-0.214-3.431-0.644
			c-1.016-0.429-1.884-1.032-2.605-1.812c-0.722-0.778-1.275-1.722-1.661-2.83c-0.387-1.107-0.579-2.348-0.579-3.72
			c0-1.144,0.121-2.27,0.364-3.377s0.597-2.162,1.062-3.163c0.464-1,1.029-1.926,1.693-2.776c0.665-0.851,1.423-1.583,2.273-2.197
			c0.85-0.614,1.786-1.097,2.809-1.447c1.021-0.351,2.119-0.525,3.291-0.525c1.129,0,2.108,0.16,2.938,0.482
			c0.828,0.321,1.519,0.736,2.068,1.243c0.551,0.508,0.962,1.069,1.233,1.684s0.407,1.215,0.407,1.801
			c0,0.958-0.196,1.837-0.59,2.638c-0.393,0.8-1.097,1.521-2.111,2.165c-1.016,0.644-2.405,1.201-4.171,1.673
			s-4.027,0.851-6.786,1.136c-0.014,0.086-0.021,0.176-0.021,0.269s0,0.189,0,0.289c0,1.815,0.393,3.184,1.179,4.105
			c0.786,0.923,1.965,1.384,3.538,1.384c0.986,0,1.808-0.136,2.466-0.408c0.657-0.271,1.218-0.567,1.683-0.89
			c0.465-0.321,0.872-0.618,1.223-0.89c0.35-0.271,0.718-0.407,1.104-0.407c0.301,0,0.579,0.143,0.837,0.429L867.7,134.556z
			 M861.289,119.697c-0.8,0-1.54,0.164-2.219,0.493s-1.286,0.782-1.822,1.361s-1.001,1.269-1.394,2.069
			c-0.394,0.801-0.697,1.672-0.911,2.615c1.973-0.257,3.559-0.543,4.76-0.857c1.2-0.314,2.122-0.657,2.766-1.029
			c0.644-0.371,1.072-0.768,1.286-1.189c0.215-0.422,0.322-0.868,0.322-1.34c0-0.229-0.051-0.472-0.15-0.729
			c-0.101-0.257-0.261-0.485-0.482-0.686s-0.512-0.368-0.868-0.504C862.219,119.766,861.79,119.697,861.289,119.697z"/>
		<path fill="#1E91AD" d="M877.027,121.691c1.129-1.772,2.394-3.099,3.795-3.978c1.4-0.879,2.844-1.318,4.331-1.318
			c0.914,0,1.729,0.183,2.444,0.547s1.301,0.9,1.758,1.607c0.457,0.708,0.772,1.576,0.943,2.605
			c0.172,1.029,0.179,2.208,0.021,3.538l-1.65,13.915h-4.589l1.651-13.915c0.199-1.559,0.11-2.691-0.269-3.398
			c-0.379-0.708-1.062-1.062-2.048-1.062c-0.629,0-1.275,0.179-1.939,0.536c-0.665,0.357-1.302,0.861-1.909,1.512
			s-1.176,1.437-1.704,2.358c-0.529,0.922-0.965,1.947-1.308,3.076l-1.201,10.893h-4.588l2.615-21.913h2.316
			c0.5,0,0.882,0.126,1.146,0.376s0.396,0.64,0.396,1.168L877.027,121.691z"/>
		<path fill="#1E91AD" d="M908.267,136.732c-0.673,0.536-1.348,0.968-2.026,1.297c-0.68,0.329-1.387,0.562-2.123,0.697
			c-0.736,0.135-1.54,0.203-2.412,0.203c-1.272,0-2.401-0.218-3.388-0.654c-0.986-0.436-1.815-1.05-2.487-1.844
			c-0.672-0.793-1.187-1.747-1.543-2.862c-0.357-1.114-0.536-2.351-0.536-3.709c0-1.172,0.129-2.322,0.386-3.452
			c0.257-1.129,0.622-2.19,1.094-3.184s1.047-1.908,1.726-2.745c0.679-0.836,1.44-1.554,2.283-2.154
			c0.844-0.601,1.759-1.068,2.745-1.404s2.029-0.504,3.13-0.504c1.458,0,2.684,0.257,3.678,0.771
			c0.993,0.515,1.868,1.272,2.626,2.273l-1.458,1.758c-0.114,0.114-0.243,0.218-0.386,0.311c-0.144,0.094-0.3,0.14-0.472,0.14
			c-0.215,0-0.422-0.078-0.622-0.236c-0.2-0.156-0.443-0.332-0.729-0.524c-0.286-0.193-0.644-0.372-1.072-0.536
			s-0.979-0.247-1.651-0.247c-0.9,0-1.755,0.243-2.562,0.729c-0.808,0.485-1.516,1.161-2.123,2.025
			c-0.607,0.865-1.09,1.897-1.447,3.099s-0.536,2.509-0.536,3.924c0,1.687,0.375,3.009,1.126,3.967
			c0.75,0.957,1.812,1.437,3.184,1.437c0.887,0,1.622-0.129,2.209-0.387c0.586-0.257,1.082-0.535,1.49-0.836
			c0.407-0.3,0.761-0.579,1.061-0.836c0.301-0.258,0.615-0.386,0.943-0.386c0.301,0,0.579,0.143,0.837,0.429l1.157,1.415
			C909.639,135.521,908.938,136.196,908.267,136.732z"/>
		<path fill="#1E91AD" d="M930.436,134.556c-0.743,0.758-1.473,1.412-2.187,1.962c-0.715,0.551-1.444,1.005-2.188,1.361
			c-0.743,0.357-1.522,0.622-2.337,0.794c-0.814,0.171-1.701,0.257-2.658,0.257c-1.272,0-2.416-0.214-3.431-0.644
			c-1.016-0.429-1.884-1.032-2.605-1.812c-0.722-0.778-1.275-1.722-1.661-2.83c-0.387-1.107-0.579-2.348-0.579-3.72
			c0-1.144,0.121-2.27,0.364-3.377s0.597-2.162,1.062-3.163c0.464-1,1.029-1.926,1.693-2.776c0.665-0.851,1.423-1.583,2.273-2.197
			c0.85-0.614,1.786-1.097,2.809-1.447c1.021-0.351,2.119-0.525,3.291-0.525c1.129,0,2.108,0.16,2.938,0.482
			c0.828,0.321,1.519,0.736,2.068,1.243c0.551,0.508,0.962,1.069,1.233,1.684s0.407,1.215,0.407,1.801
			c0,0.958-0.196,1.837-0.59,2.638c-0.393,0.8-1.097,1.521-2.111,2.165c-1.016,0.644-2.405,1.201-4.171,1.673
			s-4.027,0.851-6.786,1.136c-0.014,0.086-0.021,0.176-0.021,0.269s0,0.189,0,0.289c0,1.815,0.393,3.184,1.179,4.105
			c0.786,0.923,1.965,1.384,3.538,1.384c0.986,0,1.808-0.136,2.466-0.408c0.657-0.271,1.218-0.567,1.683-0.89
			c0.465-0.321,0.872-0.618,1.223-0.89c0.35-0.271,0.718-0.407,1.104-0.407c0.301,0,0.579,0.143,0.837,0.429L930.436,134.556z
			 M924.024,119.697c-0.8,0-1.54,0.164-2.219,0.493s-1.286,0.782-1.822,1.361s-1.001,1.269-1.394,2.069
			c-0.394,0.801-0.697,1.672-0.911,2.615c1.973-0.257,3.559-0.543,4.76-0.857c1.2-0.314,2.122-0.657,2.766-1.029
			c0.644-0.371,1.072-0.768,1.286-1.189c0.215-0.422,0.322-0.868,0.322-1.34c0-0.229-0.051-0.472-0.15-0.729
			c-0.101-0.257-0.261-0.485-0.482-0.686s-0.512-0.368-0.868-0.504C924.954,119.766,924.525,119.697,924.024,119.697z"/>
	</g>
	<g>
		<g>
			<path fill="#1E91AD" d="M639.32,24.452l-1.522,12.157h-4.824l1.522-12.157l-8.084-18.718h4.289c0.414,0,0.739,0.104,0.976,0.311
				c0.235,0.208,0.41,0.476,0.524,0.804l4.524,11.428c0.314,0.915,0.558,1.809,0.729,2.68c0.199-0.429,0.418-0.861,0.653-1.297
				c0.236-0.436,0.497-0.896,0.783-1.383l7.375-11.428c0.172-0.286,0.396-0.543,0.676-0.772c0.278-0.229,0.625-0.343,1.04-0.343
				h4.009L639.32,24.452z"/>
			<path fill="#1E91AD" d="M679.242,19.048c0,1.715-0.186,3.352-0.558,4.91s-0.904,2.998-1.598,4.32s-1.532,2.516-2.519,3.581
				s-2.088,1.973-3.303,2.723c-1.215,0.75-2.529,1.33-3.944,1.737c-1.415,0.408-2.909,0.611-4.481,0.611
				c-1.93,0-3.67-0.343-5.221-1.029s-2.866-1.633-3.945-2.841s-1.908-2.641-2.487-4.299s-0.868-3.466-0.868-5.425
				c0-1.729,0.189-3.373,0.568-4.931s0.911-3.002,1.598-4.331c0.686-1.33,1.521-2.53,2.508-3.602
				c0.986-1.072,2.087-1.983,3.302-2.734s2.53-1.329,3.945-1.737c1.415-0.407,2.909-0.611,4.481-0.611
				c1.93,0,3.666,0.343,5.21,1.029c1.544,0.687,2.858,1.641,3.945,2.863c1.086,1.222,1.919,2.666,2.498,4.331
				S679.242,17.09,679.242,19.048z M674.268,19.156c0-1.472-0.186-2.805-0.558-3.999c-0.371-1.193-0.907-2.215-1.607-3.066
				c-0.701-0.85-1.555-1.504-2.562-1.962c-1.008-0.457-2.141-0.686-3.398-0.686c-1.615,0-3.091,0.325-4.428,0.976
				c-1.336,0.65-2.479,1.576-3.431,2.776c-0.95,1.201-1.69,2.648-2.219,4.342c-0.529,1.694-0.793,3.578-0.793,5.65
				c0,1.472,0.186,2.805,0.558,3.999c0.371,1.194,0.903,2.216,1.597,3.066c0.693,0.851,1.54,1.505,2.541,1.962
				c1,0.458,2.137,0.686,3.409,0.686c1.63,0,3.112-0.325,4.449-0.976c1.336-0.65,2.483-1.572,3.44-2.766
				c0.958-1.193,1.697-2.637,2.22-4.331C674.007,23.133,674.268,21.243,674.268,19.156z"/>
			<path fill="#1E91AD" d="M694.165,32.728c1.071,0,2.055-0.204,2.948-0.611c0.893-0.408,1.679-0.979,2.358-1.715
				c0.679-0.736,1.232-1.615,1.661-2.637s0.722-2.147,0.879-3.377l2.295-18.654h4.824l-2.273,18.654
				c-0.229,1.801-0.707,3.47-1.437,5.006c-0.729,1.537-1.665,2.866-2.809,3.988c-1.144,1.123-2.473,2.001-3.988,2.637
				c-1.515,0.636-3.173,0.954-4.974,0.954s-3.381-0.318-4.738-0.954c-1.358-0.636-2.47-1.515-3.334-2.637
				c-0.865-1.122-1.473-2.451-1.823-3.988c-0.35-1.536-0.411-3.206-0.182-5.006l2.251-18.654h4.824l-2.272,18.654
				c-0.157,1.229-0.144,2.355,0.043,3.377c0.186,1.022,0.525,1.901,1.019,2.637s1.136,1.308,1.93,1.715
				C692.16,32.524,693.093,32.728,694.165,32.728z"/>
			<path fill="#1E91AD" d="M724.161,5.733c1.715,0,3.19,0.183,4.428,0.547c1.235,0.365,2.254,0.876,3.055,1.533
				c0.801,0.658,1.391,1.447,1.769,2.369c0.379,0.922,0.568,1.948,0.568,3.077c0,1.215-0.175,2.355-0.525,3.42
				c-0.35,1.065-0.854,2.026-1.511,2.884c-0.658,0.857-1.462,1.597-2.412,2.219c-0.951,0.622-2.02,1.097-3.206,1.426
				c0.558,0.357,1.008,0.865,1.351,1.522l6.047,11.878h-4.31c-0.857,0-1.43-0.335-1.716-1.008l-5.124-10.506
				c-0.186-0.357-0.404-0.614-0.654-0.772c-0.25-0.157-0.632-0.236-1.146-0.236h-2.487l-1.544,12.521h-4.803l3.773-30.875H724.161z
				 M722.253,20.592c1.157,0,2.172-0.168,3.044-0.504s1.594-0.797,2.166-1.383c0.571-0.586,1-1.279,1.286-2.08
				c0.286-0.8,0.429-1.665,0.429-2.594c0-1.444-0.45-2.555-1.351-3.334s-2.266-1.168-4.095-1.168h-3.667l-1.351,11.063H722.253z"/>
			<path fill="#1E91AD" d="M754.199,18.341l-2.101,17.453l-1.051,4.203c-0.2,0.614-0.479,1.09-0.837,1.426
				c-0.357,0.335-0.864,0.504-1.521,0.504h-1.845l2.853-23.542l-1.908-0.3c-0.301-0.071-0.54-0.196-0.719-0.375
				s-0.246-0.447-0.204-0.804l0.236-1.865h3.002l0.235-1.844c0.157-1.244,0.479-2.358,0.965-3.345s1.101-1.822,1.844-2.508
				c0.743-0.687,1.598-1.211,2.562-1.576c0.965-0.364,2.005-0.547,3.12-0.547c0.886,0,1.715,0.143,2.486,0.429l-0.429,2.401
				c-0.028,0.157-0.093,0.275-0.192,0.354c-0.101,0.079-0.232,0.132-0.396,0.161c-0.165,0.029-0.348,0.042-0.547,0.042
				c-0.2,0-0.407,0-0.622,0c-0.601,0-1.147,0.086-1.641,0.257c-0.493,0.172-0.933,0.443-1.318,0.815
				c-0.386,0.372-0.707,0.857-0.965,1.458c-0.257,0.6-0.437,1.336-0.536,2.208l-0.214,1.694h5.167l-0.429,3.302H754.199z"/>
			<path fill="#1E91AD" d="M772.509,31.505c-0.5,0.829-1.032,1.576-1.597,2.241c-0.565,0.665-1.162,1.233-1.791,1.705
				s-1.294,0.836-1.994,1.093s-1.429,0.386-2.187,0.386c-0.844,0-1.622-0.165-2.337-0.493s-1.329-0.822-1.844-1.479
				c-0.515-0.657-0.919-1.469-1.212-2.434s-0.439-2.083-0.439-3.355c0-1.301,0.164-2.569,0.493-3.806s0.793-2.401,1.394-3.495
				c0.601-1.093,1.322-2.097,2.166-3.012c0.843-0.915,1.786-1.701,2.83-2.358c1.043-0.658,2.169-1.169,3.377-1.533
				c1.208-0.365,2.477-0.547,3.806-0.547c0.957,0,1.908,0.075,2.852,0.225c0.943,0.15,1.865,0.411,2.766,0.783l-2.615,21.184h-2.423
				c-0.587,0-0.986-0.15-1.201-0.45c-0.214-0.3-0.321-0.672-0.321-1.115L772.509,31.505z M773.967,17.826
				c-0.243-0.028-0.482-0.05-0.718-0.064c-0.236-0.014-0.476-0.021-0.719-0.021c-1.229,0-2.384,0.286-3.463,0.858
				s-2.015,1.344-2.809,2.315c-0.793,0.972-1.419,2.098-1.876,3.377c-0.457,1.279-0.686,2.626-0.686,4.042
				c0,1.63,0.26,2.834,0.782,3.613c0.521,0.779,1.262,1.169,2.219,1.169c0.644,0,1.272-0.211,1.887-0.633
				c0.615-0.421,1.197-1,1.748-1.737c0.55-0.736,1.062-1.604,1.533-2.605c0.472-1,0.879-2.087,1.222-3.259L773.967,17.826z"/>
			<path fill="#1E91AD" d="M781.407,36.608l2.637-21.913h2.316c0.5,0,0.882,0.125,1.146,0.375s0.396,0.64,0.396,1.168l-0.192,3.087
				c1.029-1.644,2.147-2.876,3.355-3.699c1.207-0.822,2.483-1.233,3.827-1.233c1.4,0,2.473,0.476,3.216,1.426
				c0.743,0.951,1.144,2.319,1.201,4.106c1.058-1.901,2.236-3.298,3.537-4.191c1.301-0.893,2.694-1.34,4.182-1.34
				c1.857,0,3.208,0.722,4.052,2.166c0.844,1.444,1.107,3.488,0.793,6.132l-1.65,13.915h-4.524l1.63-13.915
				c0.1-0.772,0.14-1.44,0.118-2.005c-0.021-0.564-0.107-1.029-0.258-1.394c-0.149-0.365-0.372-0.632-0.664-0.804
				c-0.294-0.171-0.676-0.257-1.147-0.257c-0.572,0-1.14,0.15-1.704,0.451c-0.565,0.3-1.104,0.736-1.619,1.308
				c-0.515,0.572-0.994,1.272-1.437,2.101c-0.443,0.829-0.836,1.773-1.18,2.831l-1.372,11.685h-4.523l1.65-13.915
				c0.1-0.772,0.143-1.44,0.129-2.005c-0.015-0.564-0.093-1.029-0.236-1.394c-0.143-0.365-0.357-0.632-0.643-0.804
				c-0.286-0.171-0.665-0.257-1.137-0.257c-0.629,0-1.229,0.161-1.801,0.482c-0.572,0.322-1.115,0.783-1.63,1.383
				c-0.515,0.6-0.993,1.333-1.437,2.197c-0.443,0.865-0.836,1.841-1.179,2.927l-1.352,11.385H781.407z"/>
			<path fill="#1E91AD" d="M822.68,14.739l-2.637,21.87h-4.524l2.616-21.87H822.68z M824.053,8.135c0,0.415-0.086,0.808-0.258,1.179
				c-0.171,0.372-0.4,0.697-0.686,0.976c-0.286,0.279-0.608,0.5-0.965,0.665c-0.357,0.165-0.729,0.247-1.115,0.247
				s-0.754-0.082-1.104-0.247s-0.657-0.386-0.922-0.665c-0.265-0.278-0.479-0.604-0.644-0.976c-0.164-0.371-0.246-0.764-0.246-1.179
				c0-0.414,0.082-0.811,0.246-1.19c0.165-0.378,0.383-0.708,0.654-0.986c0.271-0.278,0.586-0.5,0.943-0.665
				c0.357-0.164,0.722-0.247,1.094-0.247c0.386,0,0.761,0.083,1.126,0.247c0.364,0.165,0.686,0.386,0.965,0.665
				c0.278,0.279,0.5,0.604,0.664,0.976C823.97,7.306,824.053,7.706,824.053,8.135z"/>
			<path fill="#1E91AD" d="M825.597,36.608l3.838-31.732h4.545l-3.859,31.732H825.597z"/>
			<path fill="#1E91AD" d="M856.149,14.739l-14.602,28.13c-0.343,0.672-0.851,1.008-1.522,1.008h-3.409l4.803-8.791l-5.574-20.347
				h3.816c0.357,0,0.622,0.089,0.793,0.268c0.172,0.179,0.286,0.39,0.344,0.632l3.087,12.415c0.071,0.329,0.133,0.665,0.183,1.007
				c0.05,0.343,0.089,0.679,0.118,1.008c0.143-0.343,0.289-0.682,0.439-1.019c0.15-0.335,0.304-0.675,0.461-1.018l6.11-12.415
				c0.129-0.257,0.312-0.468,0.547-0.632c0.236-0.164,0.482-0.247,0.739-0.247H856.149z"/>
			<path fill="#1E91AD" d="M634.281,50.585l-1.157,9.499h10.312l-0.493,3.773h-10.291l-1.201,9.755h12.972l-0.493,3.924h-17.817
				l3.795-30.875h17.796l-0.493,3.924H634.281z"/>
			<path fill="#1E91AD" d="M647.746,77.536l2.637-21.913h2.316c0.5,0,0.882,0.125,1.146,0.375s0.396,0.64,0.396,1.168l-0.192,3.087
				c1.029-1.644,2.147-2.876,3.355-3.699c1.207-0.822,2.483-1.233,3.827-1.233c1.4,0,2.473,0.476,3.216,1.426
				c0.743,0.951,1.144,2.319,1.201,4.106c1.058-1.901,2.236-3.298,3.537-4.191c1.301-0.893,2.694-1.34,4.182-1.34
				c1.857,0,3.208,0.722,4.052,2.166c0.844,1.444,1.107,3.488,0.793,6.132l-1.65,13.915h-4.524l1.63-13.915
				c0.1-0.772,0.14-1.44,0.118-2.005c-0.021-0.564-0.107-1.029-0.258-1.394c-0.149-0.365-0.372-0.632-0.664-0.804
				c-0.294-0.171-0.676-0.257-1.147-0.257c-0.572,0-1.14,0.15-1.704,0.451c-0.565,0.3-1.104,0.736-1.619,1.308
				c-0.515,0.572-0.994,1.272-1.437,2.101c-0.443,0.829-0.836,1.773-1.18,2.83l-1.372,11.686h-4.523l1.65-13.915
				c0.1-0.772,0.143-1.44,0.129-2.005c-0.015-0.564-0.093-1.029-0.236-1.394c-0.143-0.365-0.357-0.632-0.643-0.804
				c-0.286-0.171-0.665-0.257-1.137-0.257c-0.629,0-1.229,0.161-1.801,0.482c-0.572,0.322-1.115,0.783-1.63,1.383
				c-0.515,0.6-0.993,1.333-1.437,2.197c-0.443,0.865-0.836,1.841-1.179,2.927l-1.352,11.385H647.746z"/>
			<path fill="#1E91AD" d="M689.984,77.857c-1.2,0-2.309-0.203-3.323-0.61c-1.015-0.408-1.89-1.001-2.626-1.78
				c-0.736-0.778-1.312-1.736-1.727-2.873c-0.414-1.136-0.621-2.426-0.621-3.87c0-1.872,0.296-3.623,0.89-5.253
				c0.593-1.629,1.404-3.048,2.434-4.256c1.029-1.208,2.233-2.158,3.612-2.852c1.38-0.693,2.855-1.04,4.428-1.04
				c1.201,0,2.309,0.204,3.323,0.611c1.015,0.407,1.887,1,2.616,1.779c0.729,0.779,1.301,1.737,1.715,2.873
				c0.415,1.137,0.622,2.427,0.622,3.87c0,1.229-0.136,2.416-0.407,3.56s-0.65,2.212-1.137,3.205
				c-0.486,0.994-1.075,1.897-1.769,2.712c-0.693,0.815-1.458,1.512-2.294,2.091c-0.837,0.579-1.741,1.029-2.713,1.351
				C692.036,77.697,691.028,77.857,689.984,77.857z M690.393,74.256c0.957,0,1.829-0.269,2.615-0.805
				c0.786-0.535,1.454-1.254,2.005-2.154c0.55-0.9,0.976-1.94,1.275-3.12c0.301-1.179,0.45-2.412,0.45-3.698
				c0-1.887-0.347-3.284-1.039-4.191c-0.694-0.908-1.72-1.362-3.077-1.362c-0.973,0-1.848,0.265-2.627,0.793
				c-0.778,0.529-1.439,1.236-1.982,2.123c-0.544,0.887-0.965,1.923-1.266,3.109c-0.3,1.188-0.45,2.431-0.45,3.73
				C686.297,72.397,687.662,74.256,690.393,74.256z"/>
			<path fill="#1E91AD" d="M725.533,59.226l-2.251,18.311h-4.438l2.251-18.311h-9.605l-1.265,10.12
				c-0.071,0.586-0.129,1.055-0.172,1.404c-0.043,0.351-0.074,0.629-0.096,0.836c-0.021,0.208-0.036,0.351-0.043,0.429
				c-0.008,0.079-0.011,0.14-0.011,0.183c0,0.629,0.149,1.108,0.45,1.437c0.3,0.329,0.722,0.493,1.265,0.493
				c0.329,0,0.618-0.046,0.868-0.14c0.25-0.093,0.465-0.192,0.644-0.3s0.336-0.207,0.472-0.3s0.261-0.14,0.375-0.14
				c0.143,0,0.25,0.032,0.322,0.097c0.071,0.064,0.143,0.175,0.214,0.332l0.986,2.251c-0.743,0.63-1.576,1.112-2.498,1.447
				c-0.922,0.336-1.854,0.504-2.798,0.504c-1.486,0-2.655-0.403-3.506-1.211s-1.297-1.955-1.34-3.441c0-0.1,0-0.218,0-0.354
				s0.011-0.333,0.032-0.59c0.021-0.258,0.057-0.601,0.107-1.029c0.05-0.429,0.118-0.979,0.203-1.651l1.287-10.377h-2.166
				c-0.243,0-0.439-0.082-0.59-0.247c-0.149-0.164-0.211-0.404-0.182-0.718l0.214-1.779l3.303-0.515l1.693-6.368
				c0.086-0.243,0.218-0.439,0.396-0.589c0.179-0.15,0.404-0.225,0.676-0.225h2.444l-0.9,7.225h14.043L725.533,59.226z
				 M727.764,49.062c0,0.415-0.086,0.808-0.258,1.179c-0.172,0.372-0.4,0.697-0.686,0.976c-0.286,0.279-0.608,0.5-0.965,0.665
				c-0.358,0.165-0.729,0.247-1.115,0.247s-0.754-0.082-1.104-0.247s-0.657-0.386-0.922-0.665c-0.265-0.278-0.479-0.604-0.644-0.976
				c-0.164-0.371-0.246-0.764-0.246-1.179c0-0.414,0.082-0.811,0.246-1.19c0.164-0.378,0.383-0.708,0.654-0.986
				c0.271-0.278,0.586-0.5,0.943-0.665c0.357-0.164,0.722-0.247,1.094-0.247c0.386,0,0.761,0.083,1.125,0.247
				c0.365,0.165,0.687,0.386,0.965,0.665c0.279,0.279,0.501,0.604,0.665,0.976C727.681,48.234,727.764,48.634,727.764,49.062z"/>
			<path fill="#1E91AD" d="M737.133,77.857c-1.2,0-2.309-0.203-3.323-0.61c-1.015-0.408-1.89-1.001-2.626-1.78
				c-0.736-0.778-1.312-1.736-1.727-2.873c-0.414-1.136-0.621-2.426-0.621-3.87c0-1.872,0.296-3.623,0.89-5.253
				c0.593-1.629,1.404-3.048,2.434-4.256c1.029-1.208,2.233-2.158,3.612-2.852c1.38-0.693,2.855-1.04,4.428-1.04
				c1.201,0,2.309,0.204,3.323,0.611c1.015,0.407,1.887,1,2.616,1.779c0.729,0.779,1.301,1.737,1.715,2.873
				c0.415,1.137,0.622,2.427,0.622,3.87c0,1.229-0.136,2.416-0.407,3.56s-0.65,2.212-1.137,3.205
				c-0.486,0.994-1.075,1.897-1.769,2.712c-0.693,0.815-1.458,1.512-2.294,2.091c-0.837,0.579-1.741,1.029-2.713,1.351
				C739.185,77.697,738.177,77.857,737.133,77.857z M737.541,74.256c0.957,0,1.829-0.269,2.615-0.805
				c0.786-0.535,1.454-1.254,2.005-2.154c0.55-0.9,0.976-1.94,1.275-3.12c0.301-1.179,0.45-2.412,0.45-3.698
				c0-1.887-0.347-3.284-1.039-4.191c-0.694-0.908-1.72-1.362-3.077-1.362c-0.973,0-1.848,0.265-2.627,0.793
				c-0.778,0.529-1.439,1.236-1.982,2.123c-0.544,0.887-0.965,1.923-1.266,3.109c-0.3,1.188-0.45,2.431-0.45,3.73
				C733.445,72.397,734.811,74.256,737.541,74.256z"/>
			<path fill="#1E91AD" d="M757.416,60.619c1.129-1.772,2.394-3.098,3.795-3.977c1.4-0.879,2.844-1.319,4.331-1.319
				c0.914,0,1.729,0.183,2.444,0.547c0.715,0.365,1.301,0.9,1.758,1.608s0.772,1.576,0.943,2.605
				c0.172,1.029,0.179,2.208,0.021,3.538l-1.65,13.915h-4.589l1.651-13.915c0.199-1.558,0.11-2.691-0.269-3.398
				s-1.062-1.062-2.048-1.062c-0.629,0-1.275,0.179-1.939,0.536c-0.665,0.357-1.302,0.861-1.909,1.512s-1.176,1.437-1.704,2.358
				c-0.529,0.922-0.965,1.948-1.308,3.077l-1.201,10.892h-4.588l2.615-21.913h2.316c0.5,0,0.882,0.125,1.146,0.375
				s0.396,0.64,0.396,1.168L757.416,60.619z"/>
			<path fill="#1E91AD" d="M810.826,46.661l-15.288,30.875h-4.374l-7.74-30.875h3.881c0.415,0,0.747,0.107,0.997,0.322
				s0.404,0.486,0.461,0.815l4.632,20.476c0.143,0.544,0.271,1.133,0.386,1.77c0.114,0.636,0.214,1.297,0.3,1.982
				c0.229-0.686,0.469-1.347,0.719-1.982c0.25-0.637,0.511-1.226,0.782-1.77l9.605-20.476c0.114-0.286,0.333-0.547,0.654-0.783
				s0.689-0.354,1.104-0.354H810.826z"/>
			<path fill="#1E91AD" d="M819.895,72.434c-0.5,0.829-1.032,1.575-1.597,2.24c-0.565,0.665-1.162,1.232-1.791,1.704
				s-1.294,0.837-1.994,1.094c-0.7,0.258-1.429,0.386-2.187,0.386c-0.844,0-1.622-0.164-2.337-0.493
				c-0.715-0.328-1.329-0.821-1.844-1.479c-0.515-0.657-0.919-1.469-1.212-2.434s-0.439-2.083-0.439-3.355
				c0-1.3,0.164-2.568,0.493-3.806c0.329-1.236,0.793-2.401,1.394-3.495c0.601-1.093,1.322-2.097,2.166-3.012
				c0.843-0.915,1.786-1.701,2.83-2.358c1.043-0.658,2.169-1.169,3.377-1.533c1.208-0.365,2.477-0.547,3.806-0.547
				c0.957,0,1.908,0.075,2.852,0.225c0.943,0.15,1.865,0.411,2.766,0.783l-2.615,21.184h-2.423c-0.587,0-0.986-0.15-1.201-0.45
				c-0.214-0.3-0.321-0.672-0.321-1.115L819.895,72.434z M821.353,58.754c-0.243-0.028-0.482-0.05-0.718-0.064
				c-0.236-0.014-0.476-0.021-0.719-0.021c-1.229,0-2.384,0.286-3.463,0.858s-2.015,1.344-2.809,2.315
				c-0.793,0.972-1.419,2.098-1.876,3.377s-0.686,2.626-0.686,4.042c0,1.63,0.26,2.834,0.782,3.613
				c0.521,0.779,1.262,1.168,2.219,1.168c0.644,0,1.272-0.211,1.887-0.632c0.615-0.422,1.197-1.001,1.748-1.737
				c0.55-0.736,1.062-1.604,1.533-2.604c0.472-1.001,0.879-2.087,1.222-3.26L821.353,58.754z"/>
			<path fill="#1E91AD" d="M843.33,75.66c-0.673,0.536-1.348,0.969-2.026,1.297c-0.68,0.329-1.387,0.562-2.123,0.697
				s-1.54,0.203-2.412,0.203c-1.272,0-2.401-0.218-3.388-0.653c-0.986-0.437-1.815-1.051-2.487-1.844
				c-0.672-0.794-1.187-1.748-1.543-2.863c-0.357-1.114-0.536-2.351-0.536-3.709c0-1.172,0.129-2.322,0.386-3.452
				c0.257-1.129,0.622-2.19,1.094-3.184c0.472-0.993,1.047-1.908,1.726-2.745c0.679-0.836,1.44-1.554,2.283-2.155
				c0.844-0.6,1.759-1.068,2.745-1.404c0.986-0.335,2.029-0.504,3.13-0.504c1.458,0,2.684,0.257,3.678,0.772
				c0.993,0.515,1.868,1.272,2.626,2.273l-1.458,1.758c-0.114,0.115-0.243,0.218-0.386,0.311c-0.144,0.093-0.3,0.139-0.472,0.139
				c-0.215,0-0.422-0.078-0.622-0.236c-0.2-0.157-0.443-0.332-0.729-0.525c-0.286-0.193-0.644-0.372-1.072-0.536
				c-0.429-0.164-0.979-0.247-1.651-0.247c-0.9,0-1.755,0.243-2.562,0.729c-0.808,0.486-1.516,1.162-2.123,2.026
				c-0.607,0.865-1.09,1.897-1.447,3.098c-0.357,1.201-0.536,2.509-0.536,3.924c0,1.687,0.375,3.009,1.126,3.967
				c0.75,0.958,1.812,1.437,3.184,1.437c0.887,0,1.622-0.129,2.209-0.386c0.586-0.258,1.082-0.536,1.49-0.837
				c0.407-0.3,0.761-0.578,1.061-0.836c0.301-0.257,0.615-0.386,0.943-0.386c0.301,0,0.579,0.143,0.837,0.429l1.157,1.415
				C844.702,74.448,844.001,75.124,843.33,75.66z"/>
			<path fill="#1E91AD" d="M861.189,72.434c-0.5,0.829-1.032,1.575-1.597,2.24c-0.565,0.665-1.162,1.232-1.791,1.704
				s-1.294,0.837-1.994,1.094c-0.7,0.258-1.429,0.386-2.187,0.386c-0.844,0-1.622-0.164-2.337-0.493
				c-0.715-0.328-1.329-0.821-1.844-1.479c-0.515-0.657-0.919-1.469-1.212-2.434s-0.439-2.083-0.439-3.355
				c0-1.3,0.164-2.568,0.493-3.806c0.329-1.236,0.793-2.401,1.394-3.495c0.601-1.093,1.322-2.097,2.166-3.012
				c0.843-0.915,1.786-1.701,2.83-2.358c1.043-0.658,2.169-1.169,3.377-1.533c1.208-0.365,2.477-0.547,3.806-0.547
				c0.957,0,1.908,0.075,2.852,0.225c0.943,0.15,1.865,0.411,2.766,0.783l-2.615,21.184h-2.423c-0.587,0-0.986-0.15-1.201-0.45
				c-0.214-0.3-0.321-0.672-0.321-1.115L861.189,72.434z M862.647,58.754c-0.243-0.028-0.482-0.05-0.718-0.064
				c-0.236-0.014-0.476-0.021-0.719-0.021c-1.229,0-2.384,0.286-3.463,0.858s-2.015,1.344-2.809,2.315
				c-0.793,0.972-1.419,2.098-1.876,3.377s-0.686,2.626-0.686,4.042c0,1.63,0.26,2.834,0.782,3.613
				c0.521,0.779,1.262,1.168,2.219,1.168c0.644,0,1.272-0.211,1.887-0.632c0.615-0.422,1.197-1.001,1.748-1.737
				c0.55-0.736,1.062-1.604,1.533-2.604c0.472-1.001,0.879-2.087,1.222-3.26L862.647,58.754z"/>
			<path fill="#1E91AD" d="M892.043,59.226l-2.251,18.311h-4.438l2.251-18.311h-9.605l-1.265,10.12
				c-0.071,0.586-0.129,1.055-0.172,1.404c-0.043,0.351-0.074,0.629-0.096,0.836c-0.021,0.208-0.036,0.351-0.043,0.429
				c-0.008,0.079-0.011,0.14-0.011,0.183c0,0.629,0.149,1.108,0.45,1.437c0.3,0.329,0.722,0.493,1.265,0.493
				c0.329,0,0.618-0.046,0.868-0.14c0.25-0.093,0.465-0.192,0.644-0.3s0.336-0.207,0.472-0.3s0.261-0.14,0.375-0.14
				c0.143,0,0.25,0.032,0.322,0.097c0.071,0.064,0.143,0.175,0.214,0.332l0.986,2.251c-0.743,0.63-1.576,1.112-2.498,1.447
				c-0.922,0.336-1.854,0.504-2.798,0.504c-1.486,0-2.655-0.403-3.506-1.211s-1.297-1.955-1.34-3.441c0-0.1,0-0.218,0-0.354
				s0.011-0.333,0.032-0.59c0.021-0.258,0.057-0.601,0.107-1.029c0.05-0.429,0.118-0.979,0.203-1.651l1.287-10.377h-2.166
				c-0.243,0-0.439-0.082-0.59-0.247c-0.149-0.164-0.211-0.404-0.182-0.718l0.214-1.779l3.303-0.515l1.693-6.368
				c0.086-0.243,0.218-0.439,0.396-0.589c0.179-0.15,0.404-0.225,0.676-0.225h2.444l-0.9,7.225h14.043L892.043,59.226z
				 M894.273,49.062c0,0.415-0.086,0.808-0.258,1.179c-0.172,0.372-0.4,0.697-0.686,0.976c-0.286,0.279-0.608,0.5-0.965,0.665
				c-0.358,0.165-0.729,0.247-1.115,0.247s-0.754-0.082-1.104-0.247s-0.657-0.386-0.922-0.665c-0.265-0.278-0.479-0.604-0.644-0.976
				c-0.164-0.371-0.246-0.764-0.246-1.179c0-0.414,0.082-0.811,0.246-1.19c0.164-0.378,0.383-0.708,0.654-0.986
				c0.271-0.278,0.586-0.5,0.943-0.665c0.357-0.164,0.722-0.247,1.094-0.247c0.386,0,0.761,0.083,1.125,0.247
				c0.365,0.165,0.687,0.386,0.965,0.665c0.279,0.279,0.501,0.604,0.665,0.976C894.19,48.234,894.273,48.634,894.273,49.062z"/>
			<path fill="#1E91AD" d="M903.643,77.857c-1.2,0-2.309-0.203-3.323-0.61c-1.015-0.408-1.89-1.001-2.626-1.78
				c-0.736-0.778-1.312-1.736-1.727-2.873c-0.414-1.136-0.621-2.426-0.621-3.87c0-1.872,0.296-3.623,0.89-5.253
				c0.593-1.629,1.404-3.048,2.434-4.256c1.029-1.208,2.233-2.158,3.612-2.852c1.38-0.693,2.855-1.04,4.428-1.04
				c1.201,0,2.309,0.204,3.323,0.611c1.015,0.407,1.887,1,2.616,1.779c0.729,0.779,1.301,1.737,1.715,2.873
				c0.415,1.137,0.622,2.427,0.622,3.87c0,1.229-0.136,2.416-0.407,3.56s-0.65,2.212-1.137,3.205
				c-0.486,0.994-1.075,1.897-1.769,2.712c-0.693,0.815-1.458,1.512-2.294,2.091c-0.837,0.579-1.741,1.029-2.713,1.351
				C905.694,77.697,904.687,77.857,903.643,77.857z M904.051,74.256c0.957,0,1.829-0.269,2.615-0.805
				c0.786-0.535,1.454-1.254,2.005-2.154c0.55-0.9,0.976-1.94,1.275-3.12c0.301-1.179,0.45-2.412,0.45-3.698
				c0-1.887-0.347-3.284-1.039-4.191c-0.694-0.908-1.72-1.362-3.077-1.362c-0.973,0-1.848,0.265-2.627,0.793
				c-0.778,0.529-1.439,1.236-1.982,2.123c-0.544,0.887-0.965,1.923-1.266,3.109c-0.3,1.188-0.45,2.431-0.45,3.73
				C899.955,72.397,901.32,74.256,904.051,74.256z"/>
			<path fill="#1E91AD" d="M923.926,60.619c1.129-1.772,2.394-3.098,3.795-3.977c1.4-0.879,2.844-1.319,4.331-1.319
				c0.914,0,1.729,0.183,2.444,0.547c0.715,0.365,1.301,0.9,1.758,1.608s0.772,1.576,0.943,2.605
				c0.172,1.029,0.179,2.208,0.021,3.538l-1.65,13.915h-4.589l1.651-13.915c0.199-1.558,0.11-2.691-0.269-3.398
				s-1.062-1.062-2.048-1.062c-0.629,0-1.275,0.179-1.939,0.536c-0.665,0.357-1.302,0.861-1.909,1.512s-1.176,1.437-1.704,2.358
				c-0.529,0.922-0.965,1.948-1.308,3.077l-1.201,10.892h-4.588l2.615-21.913h2.316c0.5,0,0.882,0.125,1.146,0.375
				s0.396,0.64,0.396,1.168L923.926,60.619z"/>
		</g>
		<g>
			<path fill="#1E91AD" d="M33.717,81.892c2.996,0,5.699-0.253,8.112-0.759c2.412-0.505,4.542-1.147,6.391-1.926
				c1.848-0.778,3.462-1.614,4.844-2.51c1.38-0.895,2.539-1.73,3.472-2.51c0.934-0.777,1.683-1.42,2.247-1.926
				c0.563-0.505,0.963-0.759,1.196-0.759c0.155,0,0.311,0.079,0.467,0.233l1.109,1.284c-1.791,1.713-3.687,3.278-5.69,4.698
				c-2.004,1.421-4.154,2.637-6.449,3.647c-2.296,1.013-4.776,1.801-7.441,2.364c-2.666,0.563-5.555,0.846-8.667,0.846
				c-4.631,0-8.833-0.846-12.606-2.538c-3.774-1.693-6.994-4.086-9.659-7.179c-2.666-3.094-4.728-6.829-6.187-11.206
				s-2.188-9.25-2.188-14.62c0-7.198,1.07-13.763,3.21-19.697c2.139-5.933,5.097-11.03,8.871-15.291
				c3.773-4.26,8.229-7.558,13.365-9.892s10.68-3.502,16.633-3.502c2.762,0,5.232,0.204,7.412,0.613
				c2.179,0.409,4.182,1.031,6.011,1.868C60,3.969,61.702,5,63.278,6.225c1.576,1.226,3.122,2.655,4.64,4.29l-0.875,1.109
				c-0.272,0.272-0.623,0.409-1.051,0.409c-0.272,0-0.613-0.213-1.021-0.642c-0.409-0.428-0.973-0.963-1.692-1.605
				c-0.721-0.642-1.605-1.342-2.656-2.101c-1.05-0.759-2.334-1.459-3.852-2.101c-1.517-0.642-3.278-1.176-5.282-1.605
				c-2.004-0.428-4.329-0.642-6.974-0.642c-5.448,0-10.515,1.061-15.204,3.181c-4.689,2.121-8.774,5.156-12.256,9.105
				c-3.482,3.949-6.216,8.735-8.2,14.357c-1.984,5.623-2.977,11.916-2.977,18.88c0,5.097,0.68,9.679,2.042,13.744
				c1.361,4.066,3.269,7.529,5.72,10.388c2.451,2.86,5.388,5.059,8.812,6.595C25.876,81.124,29.632,81.892,33.717,81.892z"/>
			<path fill="#1E91AD" d="M104.101,81.892c3.852,0,7.392-0.749,10.622-2.247c3.229-1.497,6.07-3.56,8.521-6.187
				c2.451-2.626,4.465-5.699,6.041-9.221c1.576-3.521,2.616-7.305,3.123-11.352l6.245-51.3h3.21l-6.303,51.3
				c-0.583,4.397-1.761,8.531-3.531,12.402c-1.771,3.872-4.037,7.247-6.799,10.125c-2.763,2.88-5.963,5.146-9.601,6.8
				c-3.639,1.653-7.616,2.48-11.935,2.48c-4.28,0-8.045-0.827-11.293-2.48c-3.25-1.653-5.905-3.92-7.967-6.8
				c-2.062-2.879-3.501-6.254-4.318-10.125c-0.817-3.871-0.954-8.005-0.409-12.402l6.303-51.3h3.151l-6.303,51.184
				c-0.467,4.047-0.36,7.84,0.321,11.38c0.68,3.541,1.926,6.624,3.735,9.251c1.81,2.626,4.153,4.698,7.033,6.215
				C96.824,81.133,100.209,81.892,104.101,81.892z"/>
			<path fill="#1E91AD" d="M199.988,10.048c-0.233,0.389-0.564,0.583-0.992,0.583c-0.389,0-0.896-0.379-1.517-1.138
				c-0.623-0.759-1.508-1.605-2.656-2.539c-1.148-0.934-2.655-1.78-4.523-2.539c-1.868-0.759-4.241-1.138-7.12-1.138
				c-3.191,0-6.051,0.535-8.579,1.605c-2.53,1.07-4.669,2.509-6.42,4.319c-1.751,1.809-3.093,3.92-4.027,6.332
				c-0.934,2.413-1.4,4.981-1.4,7.704c0,2.568,0.486,4.718,1.459,6.449c0.972,1.732,2.266,3.21,3.881,4.436
				c1.614,1.226,3.444,2.267,5.486,3.123c2.042,0.856,4.144,1.692,6.303,2.509c2.159,0.817,4.26,1.693,6.303,2.626
				c2.042,0.934,3.871,2.072,5.486,3.414c1.614,1.343,2.908,2.968,3.881,4.874c0.972,1.907,1.459,4.241,1.459,7.003
				c0,3.619-0.623,7.062-1.868,10.331c-1.246,3.268-3.026,6.128-5.34,8.579c-2.315,2.451-5.126,4.396-8.433,5.836
				c-3.308,1.439-7.024,2.159-11.147,2.159c-2.53,0-4.796-0.243-6.799-0.729c-2.004-0.486-3.823-1.187-5.457-2.101
				c-1.634-0.914-3.113-2.033-4.436-3.356c-1.323-1.322-2.549-2.82-3.677-4.493l0.992-1.168c0.194-0.154,0.359-0.281,0.496-0.379
				c0.136-0.097,0.34-0.146,0.613-0.146c0.271,0,0.603,0.244,0.992,0.729c0.389,0.487,0.885,1.09,1.488,1.81
				c0.603,0.721,1.362,1.498,2.276,2.335c0.914,0.837,2.014,1.614,3.297,2.334c1.284,0.721,2.792,1.323,4.523,1.81
				c1.731,0.486,3.745,0.729,6.041,0.729c3.58,0,6.818-0.622,9.717-1.868c2.898-1.244,5.37-2.937,7.412-5.077
				c2.043-2.14,3.608-4.659,4.698-7.558c1.089-2.898,1.634-5.982,1.634-9.25c0-2.568-0.487-4.708-1.459-6.42
				c-0.973-1.712-2.267-3.171-3.881-4.377c-1.615-1.206-3.443-2.227-5.486-3.064c-2.043-0.836-4.144-1.653-6.303-2.451
				c-2.16-0.797-4.261-1.653-6.303-2.568c-2.042-0.914-3.872-2.042-5.486-3.385c-1.615-1.343-2.909-2.986-3.881-4.932
				c-0.973-1.945-1.459-4.357-1.459-7.237c0-3.035,0.534-5.943,1.605-8.725c1.07-2.781,2.616-5.243,4.64-7.383
				c2.023-2.139,4.513-3.842,7.471-5.106c2.956-1.264,6.303-1.897,10.038-1.897c3.773,0,7.062,0.681,9.863,2.043
				c2.801,1.362,5.252,3.443,7.354,6.245L199.988,10.048z"/>
			<path fill="#1E91AD" d="M270.198,4.328h-27.547l-9.747,79.314h-3.151l9.746-79.314h-27.78l0.292-2.743h58.479L270.198,4.328z"/>
			<path fill="#1E91AD" d="M341.868,36.077c0,7.354-1.042,14.007-3.123,19.96c-2.082,5.953-4.961,11.041-8.638,15.262
				c-3.677,4.223-8.024,7.471-13.044,9.747c-5.019,2.275-10.467,3.414-16.341,3.414c-4.669,0-8.9-0.837-12.694-2.51
				s-7.023-4.046-9.688-7.12c-2.666-3.073-4.718-6.789-6.157-11.147c-1.44-4.357-2.16-9.201-2.16-14.532
				c0-7.354,1.051-14.007,3.152-19.96c2.101-5.953,4.99-11.049,8.667-15.291c3.677-4.24,8.015-7.508,13.015-9.805
				c4.999-2.295,10.397-3.443,16.195-3.443c4.708,0,8.958,0.846,12.752,2.539c3.793,1.693,7.032,4.085,9.717,7.179
				c2.685,3.093,4.746,6.819,6.186,11.176C341.147,25.903,341.868,30.747,341.868,36.077z M338.541,36.136
				c0-5.058-0.662-9.61-1.984-13.657c-1.323-4.046-3.191-7.49-5.603-10.33c-2.413-2.84-5.331-5.028-8.754-6.566
				c-3.424-1.537-7.257-2.305-11.498-2.305c-5.252,0-10.165,1.061-14.736,3.181c-4.572,2.121-8.541,5.156-11.906,9.104
				c-3.366,3.95-6.011,8.745-7.937,14.386c-1.926,5.642-2.889,11.984-2.889,19.026c0,5.058,0.661,9.61,1.984,13.657
				c1.322,4.047,3.2,7.491,5.632,10.33c2.431,2.841,5.35,5.029,8.754,6.566c3.404,1.537,7.208,2.305,11.41,2.305
				c5.369,0,10.349-1.05,14.94-3.151c4.591-2.101,8.56-5.126,11.906-9.075c3.346-3.949,5.962-8.744,7.85-14.386
				C337.597,49.579,338.541,43.218,338.541,36.136z"/>
			<path fill="#1E91AD" d="M438.631,1.585l-10.097,82.057h-2.743l9.221-75.112c0.039-0.271,0.078-0.544,0.117-0.817
				c0.039-0.272,0.097-0.563,0.175-0.875l-38.928,60.288c-0.429,0.623-0.915,0.934-1.459,0.934h-0.583
				c-0.623,0-1.032-0.311-1.226-0.934L367.896,6.604c0,0.312-0.01,0.633-0.029,0.963c-0.02,0.331-0.049,0.652-0.088,0.963
				l-9.163,75.112h-2.743L365.97,1.585h1.868c0.544,0,0.992,0.233,1.342,0.7l25.329,61.047c0.194,0.506,0.35,1.031,0.467,1.576
				c0.117-0.271,0.243-0.544,0.379-0.817c0.136-0.272,0.301-0.525,0.496-0.759l39.453-61.047c0.233-0.272,0.447-0.457,0.642-0.555
				c0.194-0.097,0.467-0.146,0.817-0.146H438.631z"/>
			<path fill="#1E91AD" d="M456.256,83.643h-3.151l10.097-82.057h3.151L456.256,83.643z"/>
			<path fill="#1E91AD" d="M537.728,2.694c-0.078,0.389-0.312,0.817-0.7,1.284l-59.88,76.98h50.775l-0.408,2.685h-55.036
				l0.175-1.108c0.079-0.234,0.166-0.428,0.264-0.584c0.097-0.155,0.223-0.351,0.379-0.584L533.292,4.27h-49.958l0.409-2.685h54.218
				L537.728,2.694z"/>
			<path fill="#1E91AD" d="M557.395,4.27l-4.436,36.418h34.9l-0.35,2.626h-34.9l-4.611,37.644h41.555l-0.351,2.685h-44.705
				l10.097-82.057h44.646l-0.408,2.685H557.395z"/>
		</g>
	</g>
</g>
</svg>
